<?xml version="1.0" encoding="UTF-8" standalone="no"?>
<svg
   viewBox="0 0 1166.7965 805.7788"
   version="1.1"
   id="svg2137"
   sodipodi:docname="automated-documentation.svg"
   inkscape:export-filename="automated-documentation.svg"
   inkscape:export-xdpi="96"
   inkscape:export-ydpi="96"
   inkscape:version="1.2.2 (b0a8486541, 2022-12-01)"
   xmlns:inkscape="http://www.inkscape.org/namespaces/inkscape"
   xmlns:sodipodi="http://sodipodi.sourceforge.net/DTD/sodipodi-0.dtd"
   xmlns="http://www.w3.org/2000/svg"
   xmlns:svg="http://www.w3.org/2000/svg">
  <defs
     id="defs2141" />
  <sodipodi:namedview
     id="namedview2139"
     pagecolor="#ffffff"
     bordercolor="#000000"
     borderopacity="0.25"
     inkscape:showpageshadow="2"
     inkscape:pageopacity="0.0"
     inkscape:pagecheckerboard="0"
     inkscape:deskcolor="#d1d1d1"
     showgrid="false"
     inkscape:zoom="0.5613661"
     inkscape:cx="-431.98191"
     inkscape:cy="449.7956"
     inkscape:window-width="2560"
     inkscape:window-height="1403"
     inkscape:window-x="0"
     inkscape:window-y="0"
     inkscape:window-maximized="1"
     inkscape:current-layer="svg2137" />
  <path
     fill="#ff5a02"
     d="M227.5616 804.9382c-34.4287-1.6387-51.8267-2.6387-68.5-3.9373-162.2831-12.6393-157.3103-47.1437 8-55.5087 29.8886-1.5124 31.0952-1.8397 19.5-5.2894-55.6966-16.57-113.0791-42.1727-128.0302-57.1238-12.2437-12.2437-42.3338-63.0347-49.0896-82.8617-14.0205-41.1472 21.361-78.6607 74.1903-78.6607 6.4241 0 7.0747-.812 4.58-5.7157-3.3659-6.6163-6.2435-17.5215-6.8495-25.9568-.7928-11.0355-.527-10.815-9.886-8.2028-21.51 6.0036-45.947.4798-61.1496-13.8223-16.3393-15.3714-12.7333-32.2907 6.8857-32.308 14.553-.0128 18.585-2.4357 31.9338-19.1893 7.4608-9.364 13.0844-15.3755 16.9811-18.1527 6.5492-4.6677 6.7327-5.1665 3.9249-10.6703-2.6982-5.289-4.9864-16.6132-5.0107-24.7975-.0542-18.282-3.8877-28.7906-14.7935-40.5525-31.7753-34.2697 28.9904-42.7476 62.8013-8.7619 12.1003 12.1628 18.7751 25.8285 21.5547 44.1298 1.352 8.9016 7.0238 9.759 16.4708 2.4896 13.0678-10.0554 32.1938-20.5478 47.4463-26.0288 11.155-4.0085 11.1707-4.0747 2.5954-10.9168-7.805-6.2275-12.1784-11.6239-20.2961-25.044-14.3588-23.7379-22.415-35.0652-27.5757-38.7728-29.9005-21.4813-13.3562-101.6489 23.8166-115.4062 6.2911-2.3283 6.7263-2.8013 7.9463-8.6363 3.3886-16.2078 22.8251-44.1657 36.444-52.422.692-.4195 3.1177-4.6334 5.3906-9.3642 48.2387-100.4048 240.8762-96.9806 268.0062 4.764 1.755 6.5817 2.4229 7.6358 8.236 13 8.3055 7.664 17.3034 19.8347 22.2544 30.1014 3.2232 6.6838 4.4859 8.3637 6.6039 8.786 54.8285 10.9309 65.1692 138.1068 12.6391 155.4433-2.6192.8644-3.6328 2.0281-5.0472 5.7942-5.1467 13.7045-13.3309 27.709-22.1109 37.8358-5.3089 6.1232-5.3089 6.1232-1.7949 13 2.8135 5.506 3.5557 8.1725 3.7232 13.3768.4986 15.4857 43.2703 29.3823 63.7093 20.6992 6.4454-2.7382 8.708-4.2092 25.5731-16.6266 11.2117-8.2549 18.387-11.1667 29.1762-11.8398 11.6388-.7261 11.9675-1.6842 4.1751-12.1728-57.24-77.0455 44.0887-172.1657 114.7167-107.6878 54.7182 49.9536 20.256 137.1414-54.641 138.2393-9.625.141-17.8376.2862-18.25.3225-2.1226.1867-.1448 2.9416 4.2537 5.925 17.4166 11.8135 18.9535 39.2317 3.055 54.5029-4.9156 4.7215-5.8671 6.223-6.3979 10.0955-2.9437 21.4764-31.5018 34.3066-55.684 25.017-4.5232-1.7376-4.5232-1.7376-11.5 3.5584-15.9191 12.0838-40.7342 17.5678-62.1055 13.7248-4.1286-.7424-4.1286-.7424-4.6579 14.5-.5698 16.4128-2.1664 24.3166-7.1591 35.4419-2.8946 6.4499-2.7667 8.3005.5734 8.3005 27.8787 0 71.1006 26.9949 83.0212 51.8522 3.931 8.1971 4.0643 8.343 7.1782 7.8567 1.745-.2725 16.8978-2.379 33.6728-4.681 16.775-2.302 31.625-4.4983 33-4.8806 2.5-.695 2.5-.695 3-69.6712.6381-88.0292-6.1534-77.4672 49.8157-77.4724 47.673-.004 39.8002-2.631 64.0015 21.3528 25.4423 25.2136 22.671 16.9299 22.7072 67.8709.035 49.7937-1.642 44.9308 14.9756 43.4129 12.9464-1.1826 14.3548-1.7725 7.2794-3.0488-4.269-.77-9.5273-4.7982-10.8686-8.326-2.243-5.8995-1.4374-150.6795.859-154.3667 4.0653-6.5277 3.0353-6.369 43.4528-6.6947 47.4846-.3827 40.7197-2.6917 65.5027 22.3574 26.791 27.0783 23.7182 16.9381 24.0714 79.4385.3804 67.2956.1786 68-19.481 68-2.8588 0-5.4758.45-5.8157 1-.3399.55.3473 1 1.5271 1 6.11 0 106.1026 9.058 143.8472 13.0306 78.7265 8.286 82.2204 105.9694 3.7903 105.9694-3.173 0-5.8584.5286-6.478 1.2752-1.4056 1.6936-1.4505 55.4436-.047 56.311.5482.3388 4.2285.7988 8.1786 1.0223 12.1593.688 16.682 3.3079 16.682 9.6637 0 7.5693-5.3753 11.1053-18.5 12.1698-38.288 3.1057-99.2205 7.6053-129 9.526-42.488 2.7405-64.7884 4.1929-84.5 5.5034-11.825.7862-29.825 1.9172-40 2.5134-84.2139 4.9344-116.8748 6.7925-165 9.387-29.651 1.5986-26.1141 2.1383-82.2392-12.5505-13.9978-3.6634-16.761-5.7025-16.761-12.3688 0-9.112 1.7714-9.6192 41.9536-12.0112 13.9995-.8333 25.564-1.6256 25.699-1.7606 4.7653-4.7652-.0372-11.1465-8.1526-10.8326-9.367.3624-28.1915-3.3685-80.7014-15.9943-24.234-5.827-22.5235-5.8268-34.8249-.003-9.8754 4.675-29.5268 11.299-41.9737 14.148-11.2976 2.5859-10.9993 2.7832 8.2279 5.4427 78.8748 10.91 55.9058 35.3975-43.2279 46.086-46.19 4.98-179.1979 8.3437-231.5 5.8543zm493-47.3895c12.1-.5574 30.325-1.4625 40.5-2.0113 84.0714-4.5349 139.9533-6.0534 239-6.4946 81.5-.363 81.5-.363 81.7653-28.9246.2654-28.5616.2654-28.5616-2.2312-28.5616-1.373 0-10.9425 1.1482-21.2653 2.5516-10.3228 1.4033-32.0438 4.3474-48.2688 6.5423-16.225 2.195-34.225 4.6384-40 5.4299-5.775.7915-19.5 2.5947-30.5 4.0071-11 1.4125-32.375 4.3404-47.5 6.5065s-44.15 6.2092-64.5 8.9845c-20.35 2.7754-41.95 5.721-48 6.546-6.05.825-14.6 1.9518-19 2.5041-4.4.5523-17 2.2952-28 3.8731s-25.85 3.6143-33 4.5253c-19.3387 2.4641-17.5 1.531-17.5 8.882 0 7.8458-.3966 7.5286 8.8175 7.0511 4.2254-.219 17.5825-.854 29.6825-1.4114zM213.174 300.7768c-2.045-4.0085-4.5707-5.9056-5.6143-4.217-.5892.9532 6.457 9.375 7.212 8.6201.2362-.2362-.4828-2.2176-1.5977-4.403zm465.5242-7.5257c5.6062-3.9223 36.4151-33.8938 38.0088-36.9756 8.4823-16.403-27.87-13.4977-43.1026 3.4447-16.3707 18.2082-12.2044 45.6335 5.0938 33.531zm-297.6366-40.2856c0-.325-1.5027-2.3466-3.3394-4.4924-14.7296-17.2082 3.1573-47.3617 18.3394-30.9165 5.734 6.211 6.936 3.6994 2.6424-5.521-9.0607-19.4571-32.2135-19.5827-40.701-.2206-5.2184 11.9043-2.0609 29.735 6.4096 36.1957 4.8377 3.6899 16.649 7.205 16.649 4.9548Zm85.4174-.2753c.2945-.4765-.4175-1.714-1.5822-2.75-8.53-7.5874-7.1452-26.7543 2.4253-33.569 6.2394-4.443 15.2648-2.369 19.6793 4.522 2.0265 3.1634 2.0265 3.1634 2.0434.039.0877-16.2716-16.0296-27.8884-29.5872-21.3253-17.2152 8.3337-19.0917 42.085-2.896 52.089 3.1092 1.9207 8.981 2.5093 9.9174.9943zM285.8852 56.5493c42.5704-21.7821 100.9264-25.247 149.5184-8.8775 9.342 3.147 7.8324 1.3708-3.4527-4.0627-48.2817-23.2467-119.3205-17.2685-151.8893 12.782-6.878 6.3462-6.3007 6.3619 5.8236.1582zm719.6764 484.0957c-6.9926-1.7355-10.2765-5.8014-11.6115-14.3768-2.1368-13.7253-.6589-141.2046 1.6733-144.3273 3.8814-5.1971 6.816-6.6449 14.1151-6.9638 3.7527-.164 7.1292-.3256 7.5032-.3593.3741-.0337-.6384-3.6742-2.25-8.09-4.5567-12.4859-4.7307-11.8251 11.1205-42.244 15.2368-29.2403 15.3755-29.697 9.4426-31.0992-3.1822-.752-6.4369-3.3395-16.0252-12.7397-12.032-11.796-12.032-11.796-25.4737-1.6977-21.624 16.2456-18.8608 16.255-78.754-.2647-14.2597-3.9331-14.2597-3.9331-19.5.3348-47.7196 38.8644-111.3793-13.2762-84.1954-68.9605 19.4488-39.8396 84.9786-38.5066 100.3952 2.0423.7755 2.0396 2.1682 2.6963 8.7412 4.1216 4.3003.9325 15.9187 3.8421 25.8187 6.4658 20.9402 5.5495 18.3585 6.1092 27.8784-6.0445 10.7725-13.7528 7.2564-12.8865 52.2727-12.8798 51.3574.008 46.879-2.1188 61.2522 29.082 15.4072 33.4453 15.66 42.2129 1.5043 52.1906-5.5669 3.924-5.939 3.0355 4.7014 11.2218 41.1374 31.6489 41.2203 31.7578 37.9101 49.824-3.8434 20.9764-8.9509 43.6435-10.516 46.6702-2.2386 4.3287-1.962 5.1359 3.6131 10.5434 11.8545 11.498 10.8838 5.2405 10.8838 70.162 0 63.1969.222 60.8662-6.2349 65.4715-3.3413 2.3833-115.4204 4.1125-124.265 1.9173zm75-176.0884c0-8.9083-13.7594-18.1287-28.25-18.9308-1.4046-.0777-1.7268 12.0758-.6048 22.8107 1.284 12.2833 28.8548 8.576 28.8548-3.88zm-64.2485-185.75c-20.992-25.3418-22.3017-32.0253-6.6714-34.0441 6.7712-.8746 6.9638-1.4285 4.0042-11.5159-5.7806-19.7028-23.4347-34.8439-44.496-38.1623-17.9887-2.8342-20.8626-18.5575-3.3838-18.513 29.5754.0755 58.5381 24.8005 66.6822 56.9255 2.793 11.017 2.826 11.0598 8.5375 11.0598 12.1235 0 13.3141 7.0654 3.4544 20.5-10.6384 14.4955-14.967 18.5-19.9979 18.5-3.785 0-4.5785-.4637-8.1292-4.75zm-294.7515-47.1032c-14.5667-1.6406-15-3.0027-15-47.1468 0-50.482-4.4999-46 46.1845-46 48.3566 0 47.3155-.4768 47.3155 21.668 0 15.2634-1.2062 14.332 18.5604 14.332 26.6913 0 25.0613.8227 25.697-12.971 1.0794-23.4318.2442-23.029 47.7481-23.029 50.705 0 46.9803-3.7683 46.989 47.5381.01 49.2909 3.4482 45.9619-47.4945 45.9619-47.5883 0-46.5469.5545-47.3216-25.1955-.697-23.1708-43.4047-22.0151-44.1784 1.1955-.8129 24.3868.437 23.662-41.4518 24.0413-17.0765.1547-33.7482-.0228-37.0482-.3945Z"
     id="path2131" />
  <path
     fill="#0184f9"
     d="M240.5616 804.9365c-113.6105-4.2066-186.3914-14.256-196.5223-27.1354-12.4369-15.811 32.9468-27.1778 129.0223-32.315 25.4588-1.3613 26.4715-1.8258 12.8804-5.9083-55.2327-16.5909-110.657-41.2451-126.7266-56.3714-9.9742-9.3888-40.0335-58.8966-47.7532-78.6498-16.6847-42.6929 10.6615-76.2832 66.804-82.0576 13.8931-1.429 13.1696-.8324 9.8802-8.1452-3.6131-8.0325-6.1129-18.1295-6.8274-27.5771-.639-8.4487.7237-7.9582-13.2574-4.7718-29.1003 6.6323-64.3106-9.5891-67.52-31.1065-1.4145-9.4828 4.45-14.2877 18.6962-15.3184 15.359-1.1112 16.5827-1.8823 30.3415-19.1206 8.1982-10.2715 13.071-15.2166 21.3517-21.6685 2.3693-1.846 2.3693-1.846.229-6.0416-3.396-6.6564-5.0198-14.663-6.0344-29.7534-1.3257-19.7151-4.0799-26.2723-16.5656-39.4393-16.8275-17.7456.007-32.5548 29.0086-25.5187 29.1915 7.0823 49.6475 28.751 55.808 59.1163 2.6258 12.943 7.8744 15.442 16.9522 8.0713 11.981-9.728 37.8195-23.8232 50.7071-27.6613 8.0299-2.3914 8.7099-3.7774 3.8502-7.8478-12.5419-10.505-12.563-10.5325-34.9366-45.414-9.3264-14.5403-12.2562-18.3418-16.1844-21-31.1064-21.0499-11.4963-106.9223 26.556-116.2882 3.3488-.8242 3.4738-1.0136 5.3021-8.0328 4.4477-17.0758 19.0526-39.0987 32.4522-48.935 4.0779-2.9934 5.701-5.2522 9.9059-13.785 48.8334-99.0962 248.1693-93.37 266.9618 7.669.7966 4.2825 1.937 5.92 9.4014 13.5 10.3213 10.4809 16.0968 18.3477 20.6932 28.186 1.9118 4.092 3.5535 7.582 3.6483 7.7552.0947.1732 2.9266.9575 6.293 1.7428 51.0761 11.9152 59.7639 130.1055 11.2507 153.0559-4.1074 1.943-5.6762 3.318-6.5287 5.722-4.664 13.1522-17.7065 34.8353-25.0156 41.5886-3.3125 3.0607-3.2907 3.4892.5365 10.5554 2.4712 4.5626 3.2618 7.4166 3.6259 13.09.4656 7.2552.4656 7.2552 9.8485 12.4531 31.9628 17.7068 47.219 16.9938 74.4292-3.478 16.2973-12.2615 21.8788-14.8351 33.3093-15.3587 13.9179-.6374 14.4458-1.9219 5.6246-13.6861-55.1905-73.6043 38.54-166.9702 110.58-110.1498 61.771 48.721 23.421 143.8051-57.0684 141.4945-14.2798-.4099-15.1088.4521-6.772 7.0419 16.7224 13.2183 17.5318 38.3624 1.7205 53.4447-4.6162 4.4034-5.5656 5.946-6.4122 10.418-4.03 21.2894-32.6394 34.044-54.5865 24.3357-5.198-2.2993-4.822-2.4136-12.4522 3.785-14.4167 11.712-32.3523 15.704-62.2788 13.8621-3.7718-.2321-3.7718-.2321-4.127 13.7679-.3947 15.5579-2.4336 25.2698-7.6414 36.3993-3.6424 7.784-4.9701 6.6399 12.9216 11.135 36.1453 9.0813 62.3221 27.67 71.7702 50.9657 2.8571 7.0446.9455 6.9312 35.147 2.0849 15.7858-2.2369 31.4014-4.4112 34.7014-4.8319 6-.7648 6-.7648 6.5-69.9362.6395-88.4728-5.8187-78.313 49.7821-78.3153 46.3419-.002 39.5835-2.3777 64.42 22.647 24.1793 24.363 21.798 16.9397 21.798 67.948 0 35.3916.2321 42.5554 1.394 43.0012 2.0696.7942 30.8022-1.394 31.8325-2.4243.514-.514-1.603-1.1111-5.0458-1.4233-18.0879-1.6401-17.1808 2.8525-17.1808-85.098 0-94.6862-6.35-83.6431 48.1-83.6484 45.617-.004 37.88-2.8973 64.5126 24.1213 24.0342 24.3825 21.3874 14.6132 21.3874 78.9392 0 67.212.9442 64.2048-20.6045 65.6203-5.1675.3394-9.3955.9634-9.3955 1.3867 0 .823 1.917 1.0268 32 3.4038 10.725.8474 24.225 1.9718 30 2.4986 122.4124 11.1665 119.707 10.662 133.775 24.9425 32.4431 32.9333 11.0824 82.9297-37.775 88.415-15.6605 1.7583-16.8114 58.77-1.2063 59.7562 13.3165.8416 18.1676 5.2828 14.7376 13.492-2.8349 6.7848-3.927 6.9261-115.5313 14.9455-11.275.8102-23.65 1.7098-27.5 1.9991-3.85.2894-18.025 1.1948-31.5 2.0122-13.475.8173-42.05 2.6-63.5 3.9617-21.45 1.3616-51.15 3.1705-66 4.0198-28.7397 1.6436-39.0699 2.2532-95.912 5.6594-65.1166 3.902-68.86 3.5267-123.3928-12.3713-10.3876-3.0283-13.4184-7.6059-9.7423-14.7145 2.374-4.591 5.5583-5.1844 37.2424-6.9399 29.8047-1.6513 29.8047-1.6513 30.1059-8.0349.3012-6.3836.3012-6.3836-7.5-5.7149-9.423.8077-25.7386-2.4236-92.9425-18.4075-13.1414-3.1256-13.1414-3.1256-21 .8032-10.805 5.4016-23.3198 9.8688-39.8048 14.2084-16.96 4.4646-17.4364 5.2146-4.3145 6.7908 30.1315 3.6196 51.1054 10.766 53.0137 18.0633 3.9816 15.226-51.3592 27.3396-151.753 33.2176-17.1429 1.0037-137.0355 2.0048-156 1.3026zm478-46.8678c139.3232-7.0294 155.997-7.543 266.25-8.1993 97.25-.579 97.25-.579 97.25-29.3869 0-15.8443-.3408-29.0185-.7574-29.276-.8462-.523-5.0787.005-62.9688 7.8516-22.4256 3.0397-52.6988 7.1071-67.2738 9.0386-14.575 1.9315-34.6 4.6701-44.5 6.0858-20.9506 2.9958-30.0298 4.2534-60 8.311-12.1 1.6383-30.325 4.1389-40.5 5.5569-10.175 1.418-26.825 3.6934-37 5.0565-26.626 3.5669-69.1723 9.4414-78.4838 10.8365-8.3685 1.2538-11.0808 5.243-9.0544 13.3168.6995 2.7872-1.3113 2.7433 37.0382.8085zM274.7167 612.2614c11.4737-6.0882 73.3555-48.316 74.361-50.7435 2.5964-6.2685 3.0762-5.861-39.4412-33.4995-54.839-35.648-49.3187-39.023-49.7212 30.3988-.3492 60.2173.0506 61.6714 14.8014 53.8442zm549.105-18.5425c.9902-.623 1.2043-10.8398 1-47.7275-.26-46.9348-.26-46.9348-15.1444-47.2123-22.2857-.4155-22.854-1.0228-23.6042-25.2225-.5115-16.5-.5115-16.5-33.5115-16.5s-33 0-33.257 67.9366c-.1989 52.5488.0188 68.1072.961 68.6894 1.6345 1.0102 101.952 1.0453 103.556.0362zm-78.1252-44.2349c-3.3016-2.597-3.6126-7.9497-.6349-10.9274 2.387-2.387 46.992-3.1262 51.3157-.8503 4.2863 2.256 5.1564 8.3782 1.6843 11.8503-3.1402 3.1402-48.3604 3.0776-52.3651-.0726zm2.3651-25.6111c-4.8207-1.8552-6.5978-7.7499-3.58-11.8752 2.1705-2.967 50.2022-2.9995 53.4757-.036 2.4584 2.2255 2.7989 7.2619.6864 10.1538-1.4162 1.9387-46.0789 3.4904-50.582 1.7574zm222.253 29.4337c.6507-1.742-.1442-88.7649-.8208-89.8597-.3026-.4897-7.7303-.8903-16.5059-.8903-23.15 0-23.2522-.1117-23.9263-26.1708-.5-19.3292-.5-19.3292-31.5-19.3292s-31 0-31.259 67.5c-.1424 37.125-.044 68.0625.2187 68.75.3735.9776 11.6838 1.25 51.902 1.25 40.2237 0 51.526-.2723 51.8913-1.25zm-74.332-32.373c-12.451-12.2696-13.991-14.9097-11.6097-19.9035 3.999-8.3858 10.2221-8.0426 19.6768 1.0852 8.3237 8.0359 6.2018 8.8757 21.7996-8.6281 14.5564-16.3352 16.3105-17.4714 22.1323-14.3367 9.9873 5.3776 7.213 10.5572-21.5184 40.1747-15.8982 16.3886-15.503 16.3677-30.4807 1.6083zm-457.421-11.4086c27.6251-1.843 41.3989-5.172 48.7032-11.771 18.6452-16.8448 2.4536-47.9474-21.6874-41.6595-3.0874.8042-5.9514 1.462-6.3645 1.462s-1.3015-2.6645-1.9742-5.9213c-7.9976-38.7204-73.177-31.9485-73.177 7.6029 0 3.9759-.0298 3.979-7.8078.8185-28.8174-11.7095-51.316 30.8431-23.6795 44.786 9.4472 4.7662 50.8968 7.0233 85.9872 4.6824zm378.7997-25.2184c-7.7564-12.1241-18.2997-16.8904-18.2997-8.2728 0 9.6842-.1722 9.5228 10.1567 9.5228 6.914 0 8.7613-.2836 8.143-1.25zm145.7003-36.0179c0-1.7377-20.4272-21.9715-21.3003-21.0985-5.2324 5.2324.011 21.3135 7.0503 21.623 4.2625.1875 9.2125.4315 11 .5422 2.0636.1277 3.25-.2616 3.25-1.0667zm-747-142.2818c0-2.7414-5.6469-10.4503-7.655-10.4503-2.3786 0-1.4412 2.8877 2.2714 6.9971 3.2513 3.5988 5.3836 4.9666 5.3836 3.4532zm462.6366-12.7558c5.6061-3.9223 36.4151-33.8938 38.0088-36.9756 8.4822-16.403-27.87-13.4977-43.1026 3.4447-16.3707 18.2082-12.2044 45.6335 5.0938 33.531zm-300.0956-43.9177c-15.16-17.711 1.2957-47.7853 17.1136-31.2768 5.1464 5.371 5.3482 5.4183 5.3356 1.25-.0399-13.2687-15.8816-25.4952-28.2386-21.7942-26.7981 8.0263-22.0721 55.4648 5.5763 55.9737 3.828.0705 3.828.0705.2131-4.1527zm88.459 3.6565c0-.3117-1.163-2.0914-2.5843-3.955-7.2652-9.5251-6.3782-23.5947 1.9793-31.3954 6.0427-5.6401 18.7012-2.6567 21.1246 4.9787 1.2695 4 2.7152 1.9899 1.9998-2.7806-3.148-20.993-23.4225-30.0926-36.0085-16.1614-14.9324 16.5284-8.823 49.8804 9.137 49.8804 2.3937 0 4.3521-.255 4.3521-.5667ZM308.8173 47.5308c41.0446-13.6339 88.4749-13.2226 128.0318 1.11 9.9708 3.6126 8.5074 1.0884-2.6041-4.4921-47.914-24.0638-118.234-18.8724-153.9334 11.3642-10.0962 8.5512-9.0982 9.0124 4.5 2.0794 6.4625-3.2948 17.265-7.8225 24.0057-10.0615zm693.2287 491.1627c-7.877-4.2118-7.4504.2094-7.76-80.4319-.3323-86.5672-1.1095-82.705 16.6436-82.705 8.3734 0 8.235.3592 4.0295-10.4527-4.1694-10.719-4.2717-10.3672 12.1311-41.7072 14.8422-28.3582 15.1178-29.208 9.8012-30.2237-4.1425-.7915-10.2383-5.7048-20.3053-16.3664-9.1636-9.7049-8.434-9.5478-16.039-3.4535-27.0316 21.662-23.6052 21.4014-79.8805 6.0766-21.6282-5.8897-19.6545-5.864-25.9436-.3383-38.1778 33.5436-98.8247-3.6125-88.15-54.0061 10.56-49.8515 82.1983-61.0984 103.2952-16.2168 2.582 5.4929 3.4362 6.0993 10.6934 7.5907 3.3.6782 14.506 3.4745 24.902 6.214 22.2316 5.8581 19.586 6.3637 29.0757-5.5564 10.7887-13.5517 6.6044-12.5602 53.0048-12.5602 51.411 0 45.404-2.9896 60.9052 30.3117 14.6821 31.5417 14.4683 41.1977-1.1255 50.8353-4.1656 2.5744-3.9066 2.8862 13.2378 15.9415 26.6331 20.2808 32.5 26.2637 32.5 33.1422 0 6.5481-9.9266 53.943-12.059 57.5764-2.7306 4.6525-2.7617 4.5792 5.5855 13.1568 10.0266 10.3032 9.4737 6.2743 9.472 69.0295 0 60.7595.1882 59.0039-6.8964 63.7367-4.8609 3.2473-121.1096 3.6193-127.1177.4068zm117.7754-14.106c.9986-.0245 1.206-9.8272 1-47.281-.2598-47.25-.2598-47.25-17.4084-47.75-23.58-.6874-23.6-.7071-24.3514-24-.5-15.5-.5-15.5-35-15.5s-34.5 0-34.757 66.9367c-.152 39.551.116 67.167.6548 67.5.6494.4011 94.1295.4815 109.862.0944zm-76.9522-35.1383c-11.4457-11.746-12.7895-14.1078-10.783-18.9519 3.4507-8.3309 9.0642-8.0006 18.434 1.0847 8.6031 8.3421 7.7642 8.5118 18.0414-3.6485 17.6287-20.8588 23.3692-24.5986 29.0455-18.9224 5.5222 5.5223 4.1681 8.521-11.7955 26.1209-7.8375 8.6409-15.528 17.2307-17.09 19.0885-8.1912 9.7424-12.4812 8.9507-25.8524-4.7713zm70.1924-73.6247c0-.981-19.252-20.268-20.2312-20.268-.9396 0-1.037 19.3985-.102 20.3334.9118.912 20.3332.8495 20.3332-.0654zm-32.211-50.1186c.3241-10.497-19.1898-23.6631-29.3139-19.7781-1.3887.5329-1.3165 23.8687.088 28.4064 2.3945 7.7368 28.9626-.1068 29.226-8.6283zm-363.289-234.882c-9.7274-2.4356-10.5-5.8437-10.5-46.3197 0-49.639-4.1986-45.3575 44.8295-45.7151 48.3564-.3528 47.2907-.8415 48.1668 22.0859.776 20.3071 44.1924 20.9647 45.0037.6816.9308-23.2694.3774-23 47.2532-23 49.625 0 45.7484-3.9817 45.7431 46.9844-.01 49.7691 3.885 45.962-46.9963 45.992-46.4724.0276-45.1763.7121-46-24.2958-.7903-23.9937-44.2097-23.9937-45 0-.8245 25.0335.4634 24.356-46 24.2018-18.975-.0629-35.4-.3398-36.5-.6152zm67-45.4607c0-30.3066 0-30.3066-30.4317-30.5715-36.4165-.317-32.034-4.5509-32.053 30.9652-.0184 34.4471-4.4665 30.347 32.6624 30.1063 29.8223-.1934 29.8223-.1934 29.8223-30.5zm138.3 29.9934c1.3903-1.3903 1.735-57.409.3664-59.565-.6248-.9842-7.5545-1.2061-31.2346-1-30.4318.265-30.4318.265-30.697 30.1966-.2062 23.28.016 30.11 1 30.7347 2.157 1.3691 59.1746 1.0243 60.5652-.3663z"
     id="path2133" />
  <path
     fill="#002c5e"
     d="M236.0616 804.5259c-107.2023-3.5473-186.037-14.959-192.9816-27.935-8.546-15.9682 36.1686-25.8761 142.7528-31.6312 16.3714-.884 16.1708-1.1213-6.5811-7.7861-58.8232-17.2314-112.8014-43.6407-126.2385-61.7634-67.6707-91.2673-58.3264-144.138 27.0218-152.8928 12.708-1.3035 11.9744-.5304 8.254-8.698-3.8531-8.4589-5.0951-13.1783-6.6364-25.2166-1.3663-10.6713-.7163-10.1816-10.091-7.603-30.6746 8.4377-70.5-9.28-70.5-31.364 0-9.42 4.3249-12.686 18.0335-13.6188 13.846-.9421 18.1568-3.2518 26.6637-14.2864 11.0019-14.271 16.9932-20.7668 22.2869-24.1638 5.3053-3.4044 5.879-4.7236 3.6073-8.2954-3.0986-4.8718-4.8259-12.976-6.1201-28.7148-1.8166-22.0903-3.5738-26.737-14.6087-38.631-24.0827-25.9577 7.289-39.9991 45.2462-20.2516 19.4503 10.1192 31.9748 27.7573 36.9115 51.9824 1.162 5.7015 2.1952 10.4288 2.2962 10.5052 2.9387 2.2215 9.876 1.131 14.3024-2.2482 14.0205-10.7039 36.4524-22.9958 49.8811-27.3332 12.0758-3.9004 12.0602-4.0313-1.819-15.3166-4.5978-3.7386-6.4682-6.403-28.5023-40.6021-8.1469-12.6449-11.3677-16.7715-15.2885-19.5883-30.795-22.124-11.945-105.2695 26.194-115.5393 3.0379-.818 4.0276-1.6466 4.4945-3.7631 4.4659-20.2422 21.6922-46.865 35.5271-54.9063 2.276-1.3228 4.1544-4.058 7.0005-10.1936 45.5733-98.2456 228.6139-99.4256 265.3936-1.7109 1.375 3.6532 2.5001 7.7886 2.5001 9.1898 0 1.8709 1.9017 4.3215 7.1604 9.2271 9.154 8.5396 17.8467 20.2186 22.848 30.6974 3.9284 8.2307 3.945 8.2482 8.447 8.9233 51.1313 7.6676 61.4878 128.7851 13.051 152.6304-5.4435 2.6799-6.6063 3.7221-7.583 6.797-3.9613 12.4706-15.4493 31.7122-24.67 41.3206-3.5402 3.689-3.5402 3.689-.4812 8.5 3.6779 5.7843 5.455 11.9969 5.0368 17.6068-.309 4.144-.309 4.144 9.6554 9.9071 30.7612 17.7913 48.0186 16.9528 75.0356-3.6458 14.7755-11.2653 22.473-14.8142 33.3116-15.3582 13.3337-.6693 14.0884-2.474 5.6341-13.4728-50.7418-66.0148 21.137-154.8354 96.0872-118.735 78.5963 37.8563 40.9398 161.126-45.5592 149.1392-11.8545-1.6428-14.438 1.288-5.9716 6.774 17.5488 11.3714 19.4164 37.6704 3.7977 53.4774-5.4612 5.527-6.8017 7.4956-6.8096 10-.0597 19.06-31.0826 34.6458-52.1695 26.2097-8.0728-3.2296-6.8332-3.4188-13.5733 2.0711-15.0337 12.2451-39.9584 17.8074-64.2474 14.3375-3.5-.5-3.5-.5-3.1794 7.5828.5659 14.2685-2.5013 30.7688-7.8591 42.2795-4.0906 8.788-4.6325 8.2282 11.8343 12.2272 36.3767 8.8343 61.284 26.166 72.1999 50.2407 3.7102 8.1826 3.0564 7.8853 13.6163 6.1925 13.177-2.1124 42.539-6.285 53.388-7.5872 12.1264-1.4554 10.9598 6.364 10.389-69.6358-.6636-88.3493-6.299-78.671 46.065-79.111 50.0311-.4206 42.0414-3.0133 66.7182 21.6502 25.294 25.2803 22.8152 17.633 22.8222 70.411.01 47.6804-2.6844 42.6526 21.8074 40.7481 15.241-1.1851 18.3045-2.4744 7.7726-3.271-8.3489-.6314-12.5757-2.4973-15.9699-7.0498-2.9472-3.953-3.8925-145.959-1.0219-153.5119 3.1376-8.2553 2.5901-8.1573 45.6023-8.1616 45.5597-.005 38.871-2.3653 63.5704 22.4374 25.9946 26.1034 23.245 16.5477 23.2431 80.7768 0 67.2133 1.318 63.2495-21.711 65.1994-16.73 1.4165-14.8457 2.2017 9.8246 4.094 54.203 4.1574 145.597 13.1291 153.388 15.0573 60.5325 14.981 47.489 96.41-16.335 101.9774-11.8092 1.0301-13.1995 59.4498-1.415 59.4596 12.4962.0103 18.25 3.0148 18.25 9.5296 0 8.0455-3.5196 9.917-21.5 11.4322-26.4032 2.2251-38.111 3.155-63.5 5.0435-56.5849 4.2088-62.3108 4.6007-110 7.527-13.475.827-34.625 2.1635-47 2.97-26.798 1.7468-99.9312 6.0287-189.2043 11.0778-33.2008 1.8778-29.71 2.2965-72.2957-8.6714-30.6116-7.884-32.73-9.0374-31.0067-16.8836 1.532-6.9752 4.9163-7.834 37.9118-9.6194 33.9316-1.836 30.7601-.9336 30.393-8.6484-.298-6.263-.298-6.263-10.298-5.9715-10.5.306-20.0031-1.5758-85.239-16.8788-18.239-4.2785-18.239-4.2785-25.5-.6611-14.521 7.234-23.1654 10.1525-52.511 17.7284-4.789 1.2363-5.6714 3.0167-1.5 3.0266 17.017.0405 52.9576 9.1156 59.2018 14.9486 26.5141 24.7678-129.4233 43.9548-308.9519 38.0142Zm487-46.4818c131.6413-6.598 201.9284-8.5701 301.4118-8.4574 45.601.0517 57.0753-.1934 57.7346-1.2328 1.096-1.7276 1.0633-54.918-.035-56.6508-1.0144-1.601 1.1358-1.8634-113.1117 13.8094-15.675 2.1503-30.975 4.1921-34 4.5374-3.025.3452-22.825 3.0566-44 6.0252-21.175 2.9687-46.825 6.527-57 7.9074-46.5226 6.3114-80.164 10.9047-99.5 13.5856-11.55 1.6014-27.9728 3.8706-36.4952 5.0426-18.5897 2.5566-17.0045 1.686-17.0045 9.3382 0 8.9728-3.9569 8.3986 42 6.0952zm-343.5661-15.4885c45.5373-1.7685 90.6254-7.834 93.0524-12.518 3.0472-5.8809 12.4218-23.106 16.7177-30.7174 6.2129-11.008 6.475-10.7821-9.3853-8.0868-97.5341 16.575-232.6372 4.1075-339.1314-31.2955-9.247-3.074-17.037-5.365-17.311-5.091-1.4954 1.4955 15.9903 48.8477 18.5186 50.1494 32.0197 16.4853 125.243 35.0193 188.6051 37.497 10.45.4087 20.125.8078 21.5.8868 1.375.079 13.7202-.292 27.4338-.8245zm275.1233-9.1177c5.9933-1.5091 5.598-2.3148-1.8072-3.6833-24.3442-4.4987-32.616-29.1525-15.14-45.1245 6.554-5.99 7.5806-6.3021 31.8592-9.685 20.7575-2.8924 22.9362-3.6655 23.8992-8.4805.8639-4.3193.8444-4.3267-8.08-3.0523-4.2836.6116-12.9634 1.7917-19.2884 2.6222-31.7147 4.1646-32.8456 4.5012-40.1875 11.9617-23.4096 23.7875-2.8705 63.4025 28.7447 55.4417zm-139.703-12.0528c16.9941-4.9668 19.2909-6.6969 37.608-28.3285 20.6115-24.341 20.5428-24.0947 5.3453-19.1682-5.7685 1.87-17.4225 5.105-25.8978 7.189-18.3459 4.511-16.1912 2.6216-28.7623 25.2227-13.3082 23.9261-14.2762 22.6789 11.7067 15.085zm231.088-2.383c24.3737-10.9383 25.482-46.7423 1.8076-58.3972-33.3236-16.4051-61.5995 31.34-32.871 55.5042 8.178 6.8788 19.7752 7.9588 31.0635 2.893zm-17.6212-16.0052c-8.3485-4.2578-8.2879-19.3395.099-24.6132 6.6626-4.1895 16.7365.1595 18.1789 7.848 2.2336 11.9064-8.5002 21.7518-18.2779 16.7652zm147.0246-3.269c31.189-13.7963 23.3107-62.1955-10.158-62.405-29.3729-.184-43.8215 38.093-21.8396 57.8566 8.3724 7.5276 21.155 9.3446 31.9976 4.5484zm-16.0759-16.6539c-9.4533-4.1096-9.6869-20.1476-.3636-24.9689 4.64-2.3994 10.4133-1.992 13.9504.9842 11.8877 10.0029.4986 30.108-13.5868 23.9847zm-738.8157 11.2326c-11.7815-38.9397-16.719-47.8506-29.2533-52.7945-14.0149-5.5279-40.2601-18.6584-47.6714-23.85-9.387-6.5755-8.7905-5.01 10.2454 26.8945 16.122 27.0208 15.331 26.3181 49.7253 44.1696 16.3832 8.5033 17.9993 9.0352 16.954 5.5804zm883.7123-9.1473c20.7405-7.4079 28.9766-33.7208 15.9473-50.949-18.9218-25.0194-55.3409-11.338-55.4917 20.8463-.1002 21.3707 20.3681 36.952 39.5444 30.1027zm-14.0699-17.8675c-6.5599-3.3712-9.0923-13.5384-4.9156-19.7352 6.3351-9.3991 18.0946-8.4992 22.4481 1.7179 4.8536 11.391-6.9077 23.4776-17.5325 18.0173zm-579.0964 14.1878c20.3238-1.3224 19.2507.3975 11.2075-17.963-6.7726-15.46-6.7726-15.46-40.9187-15.96-38.1066-.558-39.3943-.8031-40.0858-7.6304-.7092-7.0003-.0403-7.1281 40.297-7.6997 64.7375-.9174 92.0344-13.3732 120.0277-54.7696 13.7661-20.3573 16.361-29.9972 7.2862-27.0676-24.7647 7.9948-76.8652 11.4004-123.8823 8.0976-16.8653-1.1847-16.2874-1.3604-17.3483 5.2745-1.2848 8.0347-11.9861 16.3254-62.8752 48.712-47.7953 30.4176-60.871 25.6196-61.5246-22.576-.3475-25.6328-.2198-25.1833-5.3964-18.9905-5.1843 6.202-9.302 7.8881-18.3434 7.5108-8.7597-.3656-8.2529-.794-12.8804 10.8886-17.5237 44.2398-15.4444 43.5528-72.1885 23.8495-23.3553-8.1098-30.1017-6.6307-37.8182 8.2914-2.3773 4.597-2.1085 4.9845 6.0825 8.769 73.9402 34.1625 213.8128 57.4156 308.361 51.2634Zm49.5-3.4364c37.2398-3.7082 114.5-22.9267 114.5-28.482 0-4.6176-7.7834-22.049-14.634-32.774-4.4038-6.8941-4.3114-7.2306 1.984-7.2306 11.037 0 21.5473 11.6318 26.6557 29.5 1.9917 6.9668 2.2924 7.0237 10.7792 2.0406 28.0841-16.4898 21.5045-50.1545-11.4498-58.5828-35.9724-9.2002-76.4483 9.2457-99.8343 45.497-8.7254 13.5254-7.3808 12.9555-38.0444 16.1255-20.9409 2.1649-19.7547.2457-11.4075 18.4557 7.6565 16.7032 7.9907 17.1458 12.4511 16.4895 1.65-.2428 5.7-.7103 9-1.0389zm669.0765-8.4174c26.139-11.5625 27.0614-48.1537 1.51-59.8971-23.3849-10.7477-49.6769 13.272-42.708 39.0169 5.126 18.9372 23.9838 28.4948 41.198 20.8802zm-16.3068-16.5518c-8.866-3.8543-9.8244-18.0029-1.6548-24.4291 3.9297-3.0912 11.2951-2.8764 15.2416.4444 11.8877 10.0029.4986 30.108-13.5868 23.9847zm-314.2697 2.4096c11.275-1.6988 21.0034-3.6148 21.6187-4.2579 1.372-1.4339 3.5695-7.8142 2.9164-8.4673-.394-.394-46.0456 6.7532-53.285 8.3424-4.8761 1.0703.0585 8.821 5.0884 7.9924 1.7389-.2865 12.3865-1.9108 23.6615-3.6096zm138.5-18.5283c15.2245-1.763 16.1873-2.1902 16.6734-7.3987.38-4.0723-5.091-4.4236-22.6096-1.4518-11.5717 1.963-12.0668 2.4183-10.0063 9.2018.4711 1.5508-.7087 1.5768 15.9425-.3513zm117.6536-16.3947c9.7095-1.1022 17.9104-2.004 18.2243-2.004.8606 0 3.6221-5.6802 3.6221-7.4503 0-2.172-46.7332 2.0581-49.3493 4.467-2.6757 2.4635 2.2544 8.003 6.6067 7.4232 1.7834-.2376 11.1867-1.3338 20.8962-2.436zM88.2477 609.7929c12.1696-19.5415 22.9645-31.3402 37.51-40.9979 6.5016-4.3168 6.5074-4.0513-.1765-8.0491-3.0142-1.8029-9.2624-6.858-13.885-11.2336-9.8958-9.3673-8.7143-9.0903-14.738-3.4557-5.4689 5.1155-6.6177 5.2848-23.6652 3.4889-28.0506-2.955-52.3287 13.4033-48.747 32.8454 1.3133 7.129 19.2303 20.6654 42.5331 32.134 15.2338 7.4973 13.281 7.9338 21.1686-4.732zm186.469 2.4685c11.4737-6.0882 73.3554-48.316 74.361-50.7435 2.5964-6.2685 3.0762-5.861-39.4412-33.4995-54.839-35.648-49.3187-39.023-49.7212 30.3988-.3492 60.2173.0506 61.6714 14.8014 53.8442zm549.105-18.5425c.9902-.623 1.2043-10.8398 1-47.7275-.26-46.9348-.26-46.9348-15.1444-47.2123-22.2857-.4155-22.854-1.0228-23.6042-25.2225-.5115-16.5-.5115-16.5-33.5115-16.5s-33 0-33.257 67.9366c-.1989 52.5488.0188 68.1072.961 68.6894 1.6345 1.0102 101.952 1.0453 103.556.0362zm-78.1252-44.2349c-3.3016-2.597-3.6126-7.9497-.6349-10.9274 2.387-2.387 46.992-3.1262 51.3157-.8503 4.2863 2.256 5.1564 8.3782 1.6843 11.8503-3.1402 3.1402-48.3604 3.0776-52.3651-.0726zm2.3651-25.6111c-4.8207-1.8552-6.5978-7.7499-3.58-11.8752 2.1705-2.967 50.2022-2.9995 53.4757-.036 2.4584 2.2255 2.7989 7.2619.6864 10.1538-1.4162 1.9387-46.0789 3.4904-50.582 1.7574zm-524.6402 36.3067c4.821-2.0143 6.6402-6.621 6.6402-16.814 0-26.5773-19.7149-54.451-48.6385-68.7673-5.5762-2.76-10.4137-5.7353-10.75-6.6117-2.9929-7.7994 4.9632-11.7941 17.2032-8.6377 8.8293 2.2768 8.0624 2.7445 26.5291-16.1812 12.9425-13.2642 15.9415-15.084 20.5737-12.484 7.4472 4.18 4.942 10.173-12.008 28.7255-14.0551 15.384-13.6694 13.5623-4.8401 22.8572 8.3624 8.8035 14.4728 17.973 18.8522 28.2902 5.3964 12.713 4.9261 11.8278 5.0464 9.5 1.2426-24.0451 5.2954-33.1456 15.624-35.0832 10.8074-2.0275 18.4572 1.6474 57.2994 27.5259 34.4714 22.9665 28.6977 20.6551 58.9415 23.5962 76.2282 7.4128 141.3147-2.5475 154.4055-23.629 9.8587-15.8763 1.4477-72.2647-14.7584-98.9428-3.9205-6.4539-4.1257-7.6002-1.9233-10.7446 7.0136-10.0134 25.6745 14.06 32.0852 41.3913 3.265 13.9195 3.1055 13.665 9.4669 15.1158 25.9077 5.909 58.1323-2.5871 51.621-13.61-2.5637-4.3399-2.1281-8.1007 1.7632-15.2248 1.9211-3.5172 5.5819-10.3618 8.135-15.2102 5.223-9.9187 6.7216-11.2364 14.4306-12.6893 18.2875-3.4466 31.0535-27.199 18.7486-34.8837-7.8148-4.8804-18.5976-1.8773-33.8072 9.4156-33.0751 24.5576-52.0955 26.2473-88.6025 7.8711-14.431-7.264-14.431-7.264-19.1642-3.1627-60.0336 52.0191-223.0173 37.5736-283.592-25.1353-8.1989-8.4878-6.5136-8.363-23.094-1.709-69.9551 28.0738-111.6405 88.5533-98.6207 143.0843 7.3879 30.9424 38.7838 58.5244 66.6168 58.5244 7.9697 0 8.0977-.2584 3.3865-6.8376-4.2147-5.8858-7.7702-15.7221-6.2371-17.2552 1.015-1.015 7.6102 2.9253 23.2445 13.8873 18.9769 13.3056 28.1258 16.8773 35.4225 13.8285zm746.8932-6.873c.6507-1.742-.1442-88.7649-.8208-89.8597-.3026-.4897-7.7303-.8903-16.5059-.8903-23.15 0-23.2522-.1117-23.9263-26.1708-.5-19.3292-.5-19.3292-31.5-19.3292s-31 0-31.259 67.5c-.1424 37.125-.044 68.0625.2187 68.75.3735.9776 11.6838 1.25 51.902 1.25 40.2237 0 51.526-.2723 51.8913-1.25zm-74.332-32.373c-12.451-12.2696-13.991-14.9097-11.6097-19.9035 3.999-8.3858 10.2221-8.0426 19.6768 1.0852 8.3237 8.0359 6.2018 8.8757 21.7996-8.6281 14.5564-16.3352 16.3105-17.4714 22.1323-14.3367 9.9873 5.3776 7.213 10.5572-21.5184 40.1747-15.8982 16.3886-15.503 16.3677-30.4807 1.6083zm-78.6213-36.627c-7.7564-12.1241-18.2997-16.8904-18.2997-8.2728 0 9.6842-.1722 9.5228 10.1567 9.5228 6.914 0 8.7613-.2836 8.143-1.25zM66.0374 464.9939c13.1334-2.9871 18.5848-8.2954 22.0156-21.4373 4.4333-16.982 13.554-32.49 30.7118-52.2195 7.8159-8.9873 9.211-11.7805 5.8838-11.7805-3.7893 0-6.2572-4.493-6.9355-12.627-2.611-31.309-20.713-52.6254-48.2989-56.8752-5.848-.901-6.2116.6827-1.5689 6.832 9.5935 12.7063 12.489 20.9832 13.639 38.987 1.1712 18.3354 4.4298 27.4926 12.7647 35.8715 5.9244 5.9557 5.844 6.1333-5.425 11.996-9.9308 5.1667-17.4177 11.9453-24.616 22.2875-11.5843 16.6439-19.1077 22.1175-34.5771 25.157-9.822 1.9299-10.3198 2.775-4.216 7.1584 10.776 7.7388 25.3478 10.1243 40.6225 6.6501zm897.0242-16.7052c0-1.7377-20.4272-21.9715-21.3003-21.0985-5.2324 5.2324.011 21.3135 7.0503 21.623 4.2625.1875 9.2125.4315 11 .5422 2.0636.1277 3.25-.2616 3.25-1.0667zm-308.6152-1.7749c3.4548-1.2926 6.7736-3.497 9.0375-6.0029 5.411-5.9894 5.1485-6.3696-4.1347-5.9884-5.9488.2443-11.0917-1.206-16.6277-4.6889-9.4461-5.9427-17.4188.1842-13.2434 10.1773 3.1962 7.6496 14.2257 10.5222 24.9683 6.503zm15.8773-27.5308c18.9187-6.4463 20.7216-30.4264 2.2876-30.4264-5.1893 0-5.835.5423-11.5806 9.7267-2.2875 3.6566-6.1792 7.9906-9.4284 10.5-10.9275 8.4395 2.4683 15.7377 18.7214 10.1997zm-247.2359-22.474c38.0571-4.7043 73.1455-20.1088 76.9424-33.7793 3.273-11.7842.6555-13.1805-10.5662-5.6364-54.0926 36.365-158.4392 30.9803-229.2629-11.8307-6.3784-3.8556-11.1572-5.989-15-6.6968-3.1017-.5712-7.4395-1.6872-9.6395-2.48-17.1122-6.1668-5.2879 10.9607 17.9988 26.071 41.4878 26.9209 112.779 41.367 169.5274 34.3522zm-6.5262-33.9733c151.507-16.907 162.6742-239.931 14.8006-295.5905-75.0215-28.238-156.9558-.2514-189.475 64.7198-5.8285 11.645-5.8436 12.503-.3514 19.9636 27.3841 37.1987 23.9027 101.4484-7.1928 132.7431-6.1453 6.1847-6.0474 5.726-2.6615 12.468 9.5054 18.9276 14.756 21.9992 42.3157 24.7543 11.191 1.1188 11.191 1.1188 16.7494-2.7093 10.2125-7.0337 22.0719-4.6971 28.9556 5.705 5.3863 8.1392 3.5721 20.047-3.7095 24.3484-4.1942 2.4776-3.3915 2.9489 11.069 6.499 29.6544 7.2805 63.684 9.9795 89.5 7.0987zm-21.6479-16.1675c-84.8157-6.0504-134.7309-94.352-96.9055-171.429 42.9719-87.564 174.0097-92.2861 217.7318-7.8462 44.7702 86.4641-22.5088 186.2889-120.8263 179.2752zm44.148-48.2625c3.7574-1.3806 5.2003-1.4585 8.745-.4727 17.1097 4.7586 43.7525-21.3404 27.1608-26.6064-2.284-.725-4.9703.6839-11.6479 6.1088-6.5542 5.3247-10.1598 6.22-15.4473 3.8357-3.4092-1.5373-4.4232-1.6107-7.142-.517-14.49 5.8292-19.8352 6.0127-31.0203 1.065-4.5526-2.0138-4.5526-2.0138-10.3158.0118-12.9597 4.555-22.6982 1.9251-29.5968-7.9924-4.8775-7.0121-8.5489-8.9897-12.2216-6.5832-17.2956 11.3325 21.3451 39.419 42.9043 31.1855 4.2015-1.6046 4.6295-1.5878 10.2332.4018 6.9997 2.4853 20.9812 2.2698 28.3483-.437zm-123.6476-84.77c16.1883-62.5088 78.919-96.1917 140.0955-75.2233 10.3675 3.5534 10.0757 1.3764-.5463-4.0757-68.8454-35.3368-158.861 32.0025-146.7886 109.8105 2.2645 14.595 3.23 13.5606 4.0054-4.2907.5484-12.628 1.3074-18.7811 3.234-26.2207zm67.6475 40.4079c0-.4471-1.4085-2.1346-3.13-3.75-11.5244-10.8142-8.396-32.9663 5.0734-35.9247 4.0933-.899 9.5439 1.7264 12.2479 5.8997 3.7493 5.7865 5.7522 3.9173 3.8117-3.5573-3.9426-15.1864-19.8103-24.075-31.9354-17.8893-18.0182 9.1922-19.3421 43.2217-2.0252 52.0561 6.0203 3.0713 15.9576 5.0426 15.9576 3.1655zm84.5502-.2684c.3676-.5947-.4545-2.2822-1.8268-3.75-4.1358-4.4236-5.7234-8.6267-5.7234-15.1523 0-19.2768 19.2316-27.5638 26.9527-11.6141 2.947 6.0875 3.4183 5.8079 2.8179-1.6718-1.2436-15.4928-12.3797-26.3162-25.0157-24.3133-26.2186 4.1559-26.7335 56.661-.564 57.4968 1.4801.0473 2.9918-.4006 3.3593-.9953zm253.9498 87.1673c38.285-13.5118 49.3653-64.1036 20.4137-93.2068-30.3908-30.55-83.3782-13.5663-92.4143 29.6208-8.5285 40.7606 32.931 77.3747 72.0006 63.586zm-507.2791-39.3507c-2.929-5.1882-5.486-6.8702-7.4534-4.9028-.6935.6935.6927 2.8311 4.3288 6.6758 6.1476 6.5002 7.3954 5.7921 3.1246-1.773zm-11.9383-24.7409c37.1022-11.4597 35.5822-113.2776-1.7826-119.4114-8.9386-1.4673-19.4598 4.5333-26.4292 15.0736-5.0983 7.7106-5.128 8.536-.2788 7.7607 28.3253-4.5294 38.8541 58.8592 12.6304 76.0416-3.2713 2.1434-3.095 3.3916 1.7432 12.3382 6.3891 11.8148 5.0057 11.0115 14.117 8.1973zm352.1406-32.5788c8.8303-22.0575 5.8988-57.517-6.558-79.3282-4.0486-7.0887-4.5267-5.906-1.4937 3.695 6.9783 22.0905 8.9382 54.0292 4.67 76.104-1.8596 9.6175-.5859 9.4401 3.3817-.4708zM307.6955 48.1804c42.9293-14.2975 89.5573-13.7633 130.6488 1.497 11.1712 4.1486 8.5256.396-4.2826-6.0746-47.945-24.2215-121.3929-18.0985-155.25 12.9424-9.4447 8.6591-8.5332 8.9228 5.6338 1.6295 6.811-3.5064 17.2735-8.0038 23.25-9.9943zM1004.32 539.852c-3.2874-.634-8.0349-5.8293-9.2173-10.0867-1.705-6.1393-1.3983-141.435.33-145.4908 2.6864-6.3048 5.8857-8.1693 14.7052-8.5698 9.2273-.419 8.985.1418 4.8415-11.2067-3.924-10.7475-4.3522-9.333 12.6551-41.8123 15.3188-29.2545 15.0335-28.2846 8.8085-29.9496-3.8493-1.0295-6.6393-3.2113-16.75-13.0988-12.1315-11.8635-12.1315-11.8635-24.6315-2.4012-22.4139 16.967-22.4759 16.9669-81.803-.1205-12.3032-3.5435-12.3032-3.5435-18.5 1.6201-41.8426 34.866-103.5626-7.8357-86.259-59.6791 15.3083-45.866 78.8241-52.0381 101.3-9.8438 3.2381 6.0789 3.2381 6.0789 9.5 7.2652 3.4441.6525 14.6858 3.4121 24.9815 6.1325 23.6786 6.2564 20.9364 6.7185 30.1536-5.0815 10.9568-14.027 6.6593-12.9724 52.8654-12.9724 51.9226 0 45.5407-3.9038 65.3921 40 9.571 21.1673 7.6015 35.519-5.626 40.998-4.5716 1.8937-3.8372 3.0645 7.2454 11.5517 30.0464 23.0097 37.3252 29.6692 38.34 35.0776.9818 5.2344-9.213 56.6221-12.1108 61.0448-2.2952 3.503-1.9679 4.1821 5.9248 12.2926 10.2275 10.5097 9.6931 6.476 9.3708 70.7344-.308 61.4433-.039 59.4241-8.3913 62.914-3.1812 1.3292-116.5137 1.9572-123.125.6823zm115.5013-15.2644c.9986-.0246 1.206-9.8273 1-47.281-.2598-47.25-.2598-47.25-17.4084-47.75-23.58-.6875-23.6-.7072-24.3514-24-.5-15.5-.5-15.5-35-15.5s-34.5 0-34.757 66.9366c-.152 39.551.116 67.167.6548 67.5.6494.4011 94.1295.4815 109.862.0944zm-76.9522-35.1384c-11.4457-11.746-12.7895-14.1078-10.783-18.9519 3.4507-8.3309 9.0642-8.0006 18.434 1.0847 8.6031 8.3421 7.7642 8.5118 18.0414-3.6485 17.6287-20.8588 23.3692-24.5986 29.0455-18.9224 5.5222 5.5223 4.1681 8.521-11.7955 26.1209-7.8375 8.6409-15.528 17.2307-17.09 19.0885-8.1912 9.7424-12.4812 8.9507-25.8524-4.7713zm70.1924-73.6247c0-.981-19.252-20.268-20.2312-20.268-.9396 0-1.037 19.3985-.102 20.3334.9118.912 20.3332.8495 20.3332-.0654zm-.6122-54.268c4.4653-26.5261 4.462-26.258.3622-29.4262-9.0485-6.9925-34.8393-25.5737-35.4962-25.5736-.6938.0002-13.2855 25.7327-13.2635 27.1054.01.333 6.6472 2.7663 14.7597 5.4073 19.4944 6.3463 18.25 4.9006 18.25 21.202 0 30.0039 10.4071 30.873 15.3878 1.2852zm-31.1657 12.75c.7145-2.0484-.091-19.0242-.939-19.7975-1.5509-1.4134-28.465-9.958-29.4497-9.3495-.9633.5954-.1834 27.8782.8475 29.647.7998 1.3724 29.055.8941 29.5412-.5zm-19.222-98.7413c24.911-3.6575 25.206-4.4096 12.8665-32.7973-11.3262-26.0569-5.6955-23.2113-45.93-23.2113-38.9523 0-33.8239-1.4635-45.4258 12.9626-12.5578 15.6146-12.1037 15.542-44.7958 7.1739-12.5318-3.2077-22.9557-5.5561-23.1642-5.2187-.2086.3374-.8542 4.029-1.4348 8.2035-.5807 4.1744-1.5193 8.8092-2.0859 10.2994-2.047 5.3843-1.489 6.2378 5.22 7.9835 3.4374.8945 15.6098 4.109 27.0497 7.1434 29.1135 7.7222 25.7584 8.2662 46.7425-7.5795 19.6877-14.8669 19.0041-14.9172 35.901 2.6409 15.8127 16.4315 13.4025 15.579 35.0567 12.3996zM871.778 272.495c37.9194-12.8056 34.6723-66.834-4.4514-74.0665-27.2307-5.0338-50.2097 21.2071-42.8342 48.9144 5.3464 20.0844 27.4603 31.8472 47.2856 25.152zm-18.3326-18.8515c-14.1156-6.4102-14.9394-28.1714-1.3292-35.1148 12.7102-6.4843 25.9453 2.5105 25.9453 17.6328 0 14.2663-12.363 23.0463-24.616 17.482zM715.4557 129.6732c-8.086-3.7216-8.3943-5.382-8.3925-45.1823.002-49.6736-4.32-45.4343 46.3229-45.4343 47.4727 0 45.7942-.8213 46.4965 22.75.5566 18.6837 45.179 20.5596 45.179 1.8992 0-24.8542 1.0512-25.3897 49-24.959 47.8723.4299 44-3.6603 44 46.4765 0 50.1216 3.7372 46.531-48 46.1172-45.9487-.3675-44.116.642-44.9974-24.784-.768-22.1597-45.0026-23.6728-45.0026-1.5393 0 15.4204-1.2694 20.1685-6.3637 23.8023-4.567 3.2576-71.434 3.9872-78.2422.8537zm69.106-44.31c0-30.3066 0-30.3066-30.4318-30.5715-36.4165-.317-32.034-4.5509-32.053 30.9652-.0184 34.4471-4.4665 30.347 32.6624 30.1063 29.8223-.1934 29.8223-.1934 29.8223-30.5zm138.3 29.9934c1.3902-1.3903 1.7348-57.409.3663-59.565-.6248-.9842-7.5545-1.2061-31.2346-1-30.4318.265-30.4318.265-30.697 30.1966-.2062 23.28.016 30.11 1 30.7347 2.157 1.3691 59.1746 1.0243 60.5652-.3663z"
     id="path2135" />
  <path
     style="font-variation-settings:'opsz' 32, 'wght' 900;opacity:1;fill:#ffffff;fill-opacity:1;stroke:#506690;stroke-width:0;stroke-linecap:round;stroke-linejoin:bevel;stroke-dasharray:none;paint-order:markers fill stroke"
     d="m 802.95195,484.24321 c -3.00788,-1.21371 -2.90787,-11.28982 0.11206,-11.28982 3.06641,0 12.3181,9.6885 10.74954,11.25706 -1.36952,1.36953 -7.50291,1.38802 -10.8616,0.0328 z"
     id="path3290" />
  <path
     style="font-variation-settings:'opsz' 32, 'wght' 900;opacity:1;fill:#ffffff;fill-opacity:1;stroke:#506690;stroke-width:0;stroke-linecap:round;stroke-linejoin:bevel;stroke-dasharray:none;paint-order:markers fill stroke"
     d=""
     id="path3292" />
  <path
     style="font-variation-settings:'opsz' 32, 'wght' 900;opacity:1;fill:#ffffff;fill-opacity:1;stroke:#506690;stroke-width:0;stroke-linecap:round;stroke-linejoin:bevel;stroke-dasharray:none;paint-order:markers fill stroke"
     d=""
     id="path3294" />
  <path
     style="font-variation-settings:'opsz' 32, 'wght' 900;opacity:1;fill:#ffffff;fill-opacity:1;stroke:#506690;stroke-width:0;stroke-linecap:round;stroke-linejoin:bevel;stroke-dasharray:none;paint-order:markers fill stroke"
     d="m 944.04422,443.68688 c -1.55947,-2.38004 -2.57997,-6.82702 -2.26778,-9.88217 l 0.56761,-5.55483 9.73668,9.88218 9.73667,9.88217 h -7.4689 c -5.94308,0 -8.04813,-0.88403 -10.30428,-4.32735 z"
     id="path3296" />
  <path
     style="font-variation-settings:'opsz' 32, 'wght' 900;opacity:1;fill:#ffffff;fill-opacity:1;stroke:#506690;stroke-width:0;stroke-linecap:round;stroke-linejoin:bevel;stroke-dasharray:none;paint-order:markers fill stroke"
     d="m 1092.8697,406.66437 v -9.28522 l 8.9069,8.77292 c 4.8987,4.8251 8.9068,9.00345 8.9068,9.28522 0,0.28177 -4.0081,0.5123 -8.9068,0.5123 h -8.9069 z"
     id="path3298" />
  <path
     style="font-variation-settings:'opsz' 32, 'wght' 900;opacity:1;fill:#ffffff;fill-opacity:1;stroke:#506690;stroke-width:0;stroke-linecap:round;stroke-linejoin:bevel;stroke-dasharray:none;paint-order:markers fill stroke"
     d="m 454.5322,248.40542 c -8.66401,-6.81511 -10.55987,-27.24908 -3.61841,-39.00003 3.40478,-5.76383 11.13768,-10.78278 16.61347,-10.78278 6.11006,0 14.04869,4.97128 16.97488,10.6299 3.97278,7.68252 3.34535,9.01294 -2.80383,5.94532 -4.01885,-2.00486 -7.02605,-2.31819 -11.13356,-1.16004 -10.28955,2.90124 -15.30184,20.86327 -9.14451,32.77024 2.26146,4.37317 2.30179,5.25564 0.24024,5.25564 -1.36267,0 -4.57039,-1.64621 -7.12828,-3.65825 z"
     id="path3300" />
  <path
     style="font-variation-settings:'opsz' 32, 'wght' 900;opacity:1;fill:#ffffff;fill-opacity:1;stroke:#506690;stroke-width:0;stroke-linecap:round;stroke-linejoin:bevel;stroke-dasharray:none;paint-order:markers fill stroke"
     d="m 368.38446,248.57305 c -7.57383,-4.61804 -11.22003,-12.16711 -11.22003,-23.22991 0,-20.75775 15.94455,-32.74751 31.17395,-23.44176 5.57224,3.40486 11.23416,11.91071 9.24947,13.8954 -0.63097,0.63096 -2.31665,0.17667 -3.74595,-1.00955 -1.4293,-1.18621 -5.23076,-1.90166 -8.44768,-1.58987 -11.99734,1.16279 -17.66849,18.40639 -10.60814,32.25487 3.85082,7.55315 2.19307,8.36131 -6.40162,3.12082 z"
     id="path3302" />
  <path
     style="font-variation-settings:'opsz' 32, 'wght' 900;opacity:1;fill:#ffffff;fill-opacity:1;stroke:#506690;stroke-width:0;stroke-linecap:round;stroke-linejoin:bevel;stroke-dasharray:none;paint-order:markers fill stroke"
     d="m 665.22356,290.05363 c -3.69227,-9.7114 4.0316,-26.97589 15.592,-34.85141 12.99739,-8.85448 31.02683,-11.09458 35.11501,-4.36294 1.69252,2.78692 -0.89967,6.01866 -18.93213,23.60314 -22.75161,22.18638 -28.24826,24.88693 -31.77488,15.61121 z"
     id="path3304" />
</svg>
