<?xml version="1.0" encoding="UTF-8" standalone="no"?>
<svg
   viewBox="0 0 1536 1024"
   version="1.1"
   id="svg3864"
   sodipodi:docname="multiple-platforms.svg"
   inkscape:version="1.2.2 (b0a8486541, 2022-12-01)"
   xmlns:inkscape="http://www.inkscape.org/namespaces/inkscape"
   xmlns:sodipodi="http://sodipodi.sourceforge.net/DTD/sodipodi-0.dtd"
   xmlns="http://www.w3.org/2000/svg"
   xmlns:svg="http://www.w3.org/2000/svg">
  <defs
     id="defs3868" />
  <sodipodi:namedview
     id="namedview3866"
     pagecolor="#ffffff"
     bordercolor="#000000"
     borderopacity="0.25"
     inkscape:showpageshadow="2"
     inkscape:pageopacity="0.0"
     inkscape:pagecheckerboard="0"
     inkscape:deskcolor="#d1d1d1"
     showgrid="false"
     inkscape:zoom="0.85286458"
     inkscape:cx="627.88397"
     inkscape:cy="512.9771"
     inkscape:window-width="2560"
     inkscape:window-height="1403"
     inkscape:window-x="0"
     inkscape:window-y="0"
     inkscape:window-maximized="1"
     inkscape:current-layer="svg3864" />
  <path
     fill="#ebb81e"
     d="M97.9935 978.068C73.214 970.5077 71.3431 937.253 95 924.8577c7.7875-4.0803 891.889-3.64 900.2144.4484 21.548 10.5814 22.3231 39.792 1.3538 51.0162-4.1664 2.2302-891.3376 3.9535-898.5747 1.7455zm42.3618-71.5146c-16.6498-7.2446-16.3341-5.3013-16.3455-100.6219-.0116-96.6338-.4282-93.6499 14.188-101.6288 3.9808-2.1731 229.1046-3.3754 236.9407-1.2654 4.8388 1.303 11.242 6.8983 14.184 12.3945 3.0964 5.785 3.4792 172.6863.4088 178.3047-3.3265 6.0872-7.7245 10.1173-13.3291 12.2142-7.0619 2.6422-230.0511 3.2116-236.0469.6027zm571.2722-.0216c-5.439-1.9388-10.6545-6.4423-13.3385-11.5178-3.2607-6.166-3.6263-210.537-.3891-217.514 2.2936-4.9434 7.4021-9.899 12.318-11.9493 6.2639-2.6126 232.6136-2.281 238.2821.3491 5.3228 2.4697 10.0659 7.6182 11.9575 12.9796 2.5743 7.2965 2.2657 208.932-.3286 214.6428-2.3326 5.135-7.4717 10.274-12.6067 12.6067-5.404 2.4549-229.0665 2.8369-235.8947.403zM441.5 905.1098c-5.3282-2.4593-11.0778-8.4296-12.9968-13.4956-3.6553-9.6494-1.5591-176.0203 2.2659-179.8452 4.156-4.156 215.2873-5.8845 221.9324-1.817 7.174 4.3912 6.7677-.887 7.0708 91.8583.3197 97.8132.7737 94.2483-13.008 102.152-6.7146 3.8507-197.1018 4.915-205.2643 1.1475zm198.2275-18.382c3.0504-3.0501 5.1053-116.8145 2.1738-120.3467-1.7131-2.0642-195.0895-2.0642-196.8026 0-2.3456 2.8262-1.0088 116.9544 1.4013 119.6325 3.4683 3.8541 4.1505 3.8797 98.2275 3.681 92.2275-.1946 92.2275-.1946 95-2.9668zM523 876.3399c-9.3505-1.4186-8.0639-.3383-28.506-23.9356-22.4957-25.9677-21.7914-23.8896-11.744-34.6523 4.2625-4.566 11.8596-13.0518 16.8825-18.8572 12.587-14.5481 10.587-13.9042 43.0186-13.8497 32.7243.055 27.9869-1.9648 50.802 21.6592 22.887 23.6984 22.7638 18.4971 1.014 42.7957-25.6203 28.6225-21.9486 26.5-45.8425 26.5-11.2536 0-21.0603.1618-21.7928.3596-.7325.1978-2.4568.1889-3.8318-.0197zm11.9064-11.2898c4.5292-2.424 39.6968-43.6207 40.7212-47.7025 2.5997-10.358-3.9167-14.7522-22.5018-15.1734-17.928-.4064-18.1399-.2336-10.4547 8.5244 11.8055 13.4535 11.8426 12.1455-.7481 26.396-13.787 15.6046-17.0114 16.0068-23.29 2.9054-2.1565-4.5-2.1565-4.5-10.5518-4.793-11.5182-.402-11.5061-.2289.9635 13.8396 15.7764 17.7993 18.8974 19.7307 25.8617 16.0035zm-64.851-118.0797c7.6576-4.0983 5.9875-17.151-2.5553-19.9704-11.1943-3.6944-19.756 12.8044-10.1398 19.5398 2.4071 1.686 9.876 1.9393 12.695.4306zm38.4507-1.222c5.6812-4.8868 3.8673-15.441-3.1583-18.3764-7.1593-2.9914-14.3358 2.4895-14.344 10.955-.008 8.3872 10.9684 13.0416 17.5023 7.4214zm621.9939 9.665c-1.65-.2346-6.6-.9037-11-1.487-63.8011-8.4586-111.1253-76.7979-100.0137-144.4264.8134-4.95 1.4866-9.566 1.4962-10.2578.1072-7.7216-120.4468.1138-123.4213 8.0218-17.0167 45.2393-71.1306 58.0799-105.2763 24.9807-11.8463-11.4832-186.5711-8.9856-189.9491 2.7153-18.0675 62.583-108.9228 62.0682-122.4257-.6937-.6823-3.1715-1.6736-6.3316-2.203-7.0226-4.239-5.5331-151.0897-.464-152.272 5.2563-15.0894 73.001-119.4005 67.5992-125.113-6.4792-5.7902-75.0852 99.1278-99.2889 122.746-28.3164 2.7834 8.3643 154.8185 10.346 156.9423 2.0456 15.7625-61.6043 102.9788-63.937 121.5115-3.25 2.42 7.9242 174.7946 11.8988 173.4781 4-14.7929-88.7572 106.0804-115.0168 125.4318-27.25 1.2155 5.5128 128.8357 4.0518 131.0335-1.5 26.1038-65.939 119.9016-91.7978 182.7792-50.3897 10.1026 6.6531 9.6119 6.571 12.6457 2.1164 11.8461-17.3943 38.8729-28.5609 52.0535-21.5068 1.4131.7562 3.2371.279 7.7039-2.0161 12.6275-6.488 24.148-4.7245 33.4519 5.1209 7.7919 8.2454 15.8328 6.8939 20.868-3.5076 3.488-7.2053 2.3624-8.1395-10.6712-8.8566-21.3942-1.177-32.9586-8.1447-37.1932-22.4092-1.7122-5.7678-1.7122-5.7678-20.6577-5.4644-104.662 1.6759-188.4497-34.7166-195.1629-84.7674-1.1903-8.8746 16.7288-31.4219 31.4523-39.5757.1291-.0715.725-3.6993 1.3242-8.0619 3.829-27.8774 21.8357-50.6256 47.4758-59.9771 10.0325-3.659 10.0532-4.0056.8227-13.7676-4.7052-4.9761-9.4622-11.2853-11.8575-15.7265-3.1629-5.8645-4.6278-7.5982-7-8.2843-15.5527-4.4985-26.5-21.5162-26.5-41.1947 0-5.7251-.01-5.7347-6.5012-12.1671-10.4057-10.3038-14.9568-21.1985-17.4905-41.8698-3.5962-29.3387-8.8858-32.8028-50.81-33.2745-29.3018-.3296-29.3018-.3296-33.8104 3.8263-15.7842 14.5493-38.4506 6.1515-38.366-14.2145.0803-19.2995 21.3538-29.5003 36.0012-17.2628 4.1661 3.4807 4.1661 3.4807 32.8215 3.498 56.6427.0344 70.9615 10.5536 76.6498 56.3103 2.419 19.4594 3.8635 22.796 7.1093 16.4224 4.9973-9.813 12.5895-17.013 20.8963-19.817 5.4987-1.856 5.9436-2.2755 8.9661-8.4532 7.5261-15.3828 25.7589-31.831 41.2839-37.2428 3.25-1.133 3.25-1.133 3.2556-10.935.01-12.5338 1.074-16.2377 5.9446-20.638 15.0316-13.5802 71.9149-16.1046 92.6697-4.1126 6.9761 4.0307 7.7739 6.7675 8.3605 28.6818.011.4032 2.3821 1.9239 5.2696 3.3793 8.3186 4.1928 17.7759 10.6127 23.8902 16.2174C1334.7804 107 1334.7804 107 1342.7305 107c32.3322 0 55.7112 52.537 36.3457 81.6757-3.0638 4.61-4.1035 7.388-4.9869 13.3243-1.9405 13.0402-7.9457 22.9796-18.4852 30.5954-5.851 4.228-.4142 16.1785 8.1467 17.9074 2.6088.5268 3.3799.2951 3.9044-1.1732 9.4761-26.5267 46.3716-37.5482 68.8448-20.5654 12.0308 9.0915 11.7533 15.4688-.978 22.4781-15.176 8.3554-19.5325 14.0895-22.5567 29.6902-3.7302 19.2427-4.3146 18.2135 12.2475 21.5675 26.0508 5.2756 48.2664 12.9906 55.996 19.4462 16.911 14.1238-21.4292 76.4544-53.4629 86.916-8.05 2.629-8.0902 2.6593-11.9492 9.0501-4.2651 7.0633-4.2572 7.096 2.2767 9.5246 34.1499 12.6934 21.0505 41.3904-26.0734 57.1194-9.5 3.1709-9.5 3.1709-10.2385 10.5573-3.1476 31.4827-28.1917 55.724-56.5701 54.7566-6.5953-.2249-8.2868.0609-10.7585 1.8171-14.9654 10.6335-32.1389 7.1774-42.1645-8.4852-4.5573-7.1197-9.5168-5.4085-18.5134 6.3876-4.6042 6.037-4.6264 7.087-.3054 14.4597 50.657 86.4329-25.6476 205.1964-122.9496 191.364zM1276.03 363.75c16.5221-8.3467 4.6919-34.7289-12.471-27.8113-6.2134 2.5043-6.559 2.4856-6.559-.3542 0-19.9826-35.6841-27.3698-39.5285-8.1831-1.2714 6.3458-1.2195 6.298-7.4525 6.8632-17.3513 1.5733-21.3559 23.5088-5.2615 28.8204 10.4668 3.4543 64.7485 3.9608 71.2725.665zM1178 194.1635c0-8.4071 10.5894-10.7258 14.4947-3.1738 2.0136 3.8938 3.5053 3.0306 3.5053-2.0285 0-7.884-4.6775-14.9612-9.8881-14.9612-6.4593 0-13.4145 14.836-10.5071 22.4125.8871 2.3119 2.3952.8959 2.3952-2.249zM1242.9809 189c.039-18.6008-18.4074-20.5678-21.4443-2.2867-1.027 6.182.103 6.9646 4.1055 2.8433 5.1749-5.3284 14.3579-2.6423 14.3579 4.1998 0 1.0507.3068 2.217.6817 2.592 1.2967 1.2967 2.2877-1.8705 2.2992-7.3484zM103 534c-33.9315-.617-39.8425-3.0002-44.1274-17.7919-2.0363-7.0295-2.0272-226.8537.0097-232.624 1.7293-4.899 8.2543-12.0708 13.5728-14.9184 5.4067-2.8948 292.0023-4.003 300.5553-1.1623 5.0151 1.6658 11.5486 7.6928 14.6309 13.4966 2.1995 4.1418 3.4786 227.1274 1.3482 235.0392-1.4972 5.56-6.6937 11.8094-12.558 15.1026C371.3312 534.0058 201.156 535.7847 103 534Zm448.5-26.3636c-10.45-5.6889-30.925-16.874-45.5-24.856-14.575-7.9819-32.125-17.5565-39-21.277-23.5954-12.7686-26.6625-14.662-28.3334-17.4907-2.787-4.718-2.5108-123.1159.298-127.7224 2.6129-4.2854 9.7685-7.663 63.0354-29.7538 9.625-3.9917 28.3-11.7717 41.5-17.2889 13.2-5.5172 25.896-10.5962 28.2134-11.2867 5.6057-1.6704-3.5383-5.1367 100.2866 38.0164 9.075 3.7719 20.1647 8.2593 24.6437 9.972 11.065 4.2312 15.9734 7.915 17.348 13.02 2.2951 8.5233.8683 122.3981-1.575 125.7083-2.3558 3.1915 1.0772 1.2522-67.9167 38.3658-78.8869 42.4354-66.3265 39.1139-93 24.593zm317.6914-34.1288c-2.9774-2.5053-3.6217-4.66-5.7313-19.1654-.911-6.264-2.0935-7.1764-12.7053-9.804-5.3539-1.3258-10.7391-3.1142-11.967-3.9743-3.2417-2.2706-4.2116-2.0335-11.8202 2.8885-16.879 10.9189-17.2536 10.846-36.566-7.103-16.4186-15.2594-16.739-17.1577-5.9072-34.999 5.5236-9.0981 5.545-8.0754-.4072-19.4566-2.702-5.1666-5.4808-11.4188-6.175-13.8938-1.7885-6.3757-2.5123-6.9925-8.2846-7.0596-19.1368-.2225-19.6276-.9375-19.6276-28.5962 0-26.843.3963-27.5696 15.6873-28.7658 10.2336-.8006 10.337-.8698 12.8187-8.5784 2.1837-6.7833 5.6047-13.6913 10.2298-20.6573 3.1324-4.7177 3.3729-5.5241 2.146-7.1955-.76-1.0353-3.9529-5.2227-7.0953-9.3053-11.8162-15.3516-11.7353-17.4178 1.239-31.6261 18.4114-20.1627 21.2923-20.5952 40.6816-6.1067 6.3446 4.7409 6.6391 4.7489 15.2469.414 3.7972-1.9122 10.1708-4.382 14.1635-5.4885 9.1176-2.5265 8.6798-1.9864 10.2776-12.6821 2.4809-16.6072 2.8914-16.8525 28.2024-16.8525 20.6212 0 21.5812.2283 24.5886 5.8477.8008 1.4963 3.7946 17.0756 3.81 19.8273.002.3713 3.7164 1.8712 8.2539 3.333 4.5375 1.4619 11.5345 4.4643 15.549 6.672 7.2988 4.014 7.2988 4.014 14.8435-1.083 12.7885-8.6395 13.7447-8.3572 30.6075 9.0348 17.4613 18.0094 17.619 19.3906 4.0056 35.0837-4.0906 4.7155-4.0906 4.7155 1.7568 16 3.2161 6.2065 6.379 13.4084 7.0286 16.0043 1.5557 6.2162 1.9322 6.4432 12.6753 7.6427 15.987 1.7849 16.2837 2.316 16.2837 29.155 0 25.9846-.1143 26.183-16.13 27.9972-11.0203 1.2484-10.0249.4665-13.3486 10.4853-1.4596 4.4-4.1709 10.7226-6.0249 14.0503-3.371 6.0502-3.371 6.0502.5685 13 10.7755 19.009 10.8585 18.4651-5.3609 35.132-17.511 17.9943-17.8874 18.0944-33.2188 8.8287-9.0147-5.4481-9.0147-5.4481-20.5-1.492-6.317 2.1758-12.1868 3.9617-13.0442 3.9685-3.6371.0291-4.8579 2.4723-6.3759 12.7607C916.8526 476.134 917.0575 476 891.6425 476c-19.3135 0-19.5157-.0224-22.4511-2.4924zm84.4621-56.0162c11.2779-7.3896 6.1364-24.4757-7.3687-24.4877-9.3719-.008-18.3476-13.922-14.02-21.7334C935.6833 365.0995 953.8505 352 958.99 352c13.7736 0 18.6022-19.5266 6.6546-26.9106-10.3235-6.3803-20.596.6682-21.608 14.8266-.8944 12.5132-11.6082 19.8775-24.1761 16.6178-13.9455-3.617-21.468.7952-23.2993 13.6659-.4511 3.1706-1.2205 4.8587-2.365 5.1884-11.4174 3.2902-15.0675 3.7298-18.0713 2.1765-1.9024-.9838-5.633-1.5646-10.049-1.5646-8.087 0-27.2614-19.344-25.591-25.8174 1.818-7.0455 1.6747-10.941-.5965-16.2205-3.7873-8.8037 8.4286-29.9316 17.3492-30.006 22.549-.188 29.7033-27.3787 9.852-37.4441-15.5289-7.8738-31.5738 8.3524-26.192 26.488 1.917 6.4597-12.7289 31.4118-20.0285 34.1224-16.8457 6.2553-14.8153 27.3317 2.9872 31.0088 6.123 1.2647 6.3184 1.4108 14.4254 10.7856C852.4563 385.308 852 384.5715 852 391.0608c0 16.1046 22.8348 19.8844 27.1804 4.499 2.3349-8.2666 13.6033-12.2266 22.6344-7.9542 3.7102 1.7552 8.1124 2.8442 13.3002 3.29 10.8492.9323 17.578 6.2065 17.054 13.3672-.875 11.9557 11.6538 19.67 21.4845 13.2286zm6.0591-112.604c4.8274-4.8274-11.0247-29.5921-25.03-39.103-18.0183-12.236-55.1647-16.8206-46.0057-5.678 3.9482 4.8033 4.8306 5.2136 14.2043 6.6051 18.8552 2.799 39.1757 18.2248 44.3646 33.6782.5744 1.7106 1.4842 3.6728 2.0217 4.3603 1.2115 1.5494 8.9316 1.6509 10.4452.1373z"
     id="path3852" />
  <path
     fill="#e26416"
     d="M97.9935 978.068C73.214 970.5077 71.3431 937.253 95 924.8577c7.7875-4.0803 891.889-3.64 900.2144.4484 21.548 10.5814 22.3231 39.792 1.3538 51.0162-4.1664 2.2302-891.3376 3.9535-898.5747 1.7455zm42.3618-71.5146c-16.6498-7.2446-16.3341-5.3013-16.3455-100.6219-.0116-96.6338-.4282-93.6499 14.188-101.6288 3.9808-2.1731 229.1046-3.3754 236.9407-1.2654 4.8388 1.303 11.242 6.8983 14.184 12.3945 3.0964 5.785 3.4792 172.6863.4088 178.3047-3.3265 6.0872-7.7245 10.1173-13.3291 12.2142-7.0619 2.6422-230.0511 3.2116-236.0469.6027zm32.9268-81.903c1.869-.7838 8.866-7.4913 16.691-16 15.9639-17.3588 14.2166-17.01 25.99-5.1874 12.064 12.1143 17.7332 13.4357 21.7256 5.0637 2.4074-5.0484 1.0868-7.0803-13.8306-21.2804-20.1467-19.178-20.1603-19.1749-47.9417 10.7686-16.8099 18.118-18.3602 25.1748-6.1343 27.9217.1552.035 1.7302-.544 3.5-1.2862zm175.5573-22.2501c2.8754-3.3429 2.436-8.9076-.9198-11.6503-3.0267-2.4737-80.1139-2.703-83.618-.2488-4.8964 3.4297-3.4647 12.1272 2.3044 13.9988 8.1931 2.658 79.7119.8318 82.2334-2.0997zm362.7881 104.1315c-5.439-1.9388-10.6545-6.4423-13.3385-11.5177-3.2607-6.1661-3.6263-210.5371-.3891-217.5141 2.2936-4.9433 7.4021-9.899 12.318-11.9493 6.2639-2.6126 232.6136-2.281 238.2821.3492 5.3228 2.4696 10.0659 7.6182 11.9575 12.9796 2.5743 7.2964 2.2657 208.9319-.3286 214.6427-2.3326 5.135-7.4717 10.274-12.6067 12.6067-5.404 2.4549-229.0665 2.837-235.8947.403zm140.3976-32.6325c10.1612-5.5553 28.9302-15.7127 41.709-22.572C924.4728 834.8277 921 842.86 921 788.2663c0-53.257.4115-50.8441-9.4331-55.3098-3.3368-1.5137-17.7669-8.4621-32.0669-15.441-44.6923-21.8114-49.2603-23.8134-52.745-23.1165-10.0567 2.0113-85.1519 39.564-87.799 43.9053-4.0022 6.5639-2.8326 96.9467 1.294 99.9936 17.488 12.9125 45.4996 24.153 48.9245 19.6323 3.5026-4.6231 1.5334-6.4645-17.981-16.8138-9.7314-5.161-18.481-10.0683-19.4435-10.905-2.8077-2.4409-2.6874-79.2114.124-79.2114 1.0308 0 11.1174 4.725 22.4148 10.5 21.5649 11.0235 23.9764 11.7649 27.5226 8.461 5.7484-5.3554 3.7925-7.2004-20.4804-19.3193-10.543-5.2639-19.4638-10.0475-19.824-10.6304C760.6195 738.5753 823.872 708 827.73 708c1.5723 0 20.8967 8.8069 53.6044 24.4295 18.695 8.9296 18.5765 7.7845 1.6655 16.1037-17.6906 8.7026-19.7355 10.7866-15.345 15.638 2.8214 3.1176 6.8486 2.09 22.4714-5.7345 8.3057-4.1598 15.7251-7.324 16.4875-7.0314 2.0996.8057 2.0523 75.7856-.0491 77.8871-.7894.7894-11.927 6.9665-24.75 13.727C826.7165 872.0673 823 874.3488 823 879.1245c0 8.0159 7.1654 6.726 29.025-5.2253zm-37.102-7.1493C828.2304 852.709 875 797.5855 875 795.9423c0-3.1593-3.3519-3.9423-16.8752-3.9423-16.2538 0-15.6862 2.2443-6.4567-25.5285 8.4226-25.345 8.5558-26.6748 2.731-27.2655-3.7954-.385-5.1244 1.0123-36.8994 38.794-34.2299 40.7005-34.0193 40-12.0245 40 16.385 0 15.6865-2.2878 6.9256 22.6873-10.392 29.6246-9.924 27.9773-8.4502 29.7532 2.4322 2.9305 5.7574 1.8121 10.9725-3.6905zM441.5 905.1098c-5.3282-2.4593-11.0778-8.4296-12.9968-13.4956-3.6553-9.6494-1.5591-176.0203 2.2659-179.8452 4.156-4.156 215.2873-5.8845 221.9324-1.817 7.174 4.3912 6.7677-.887 7.0708 91.8583.3197 97.8132.7737 94.2483-13.008 102.152-6.7146 3.8507-197.1018 4.915-205.2643 1.1475zm198.2275-18.382c3.0504-3.0501 5.1053-116.8145 2.1738-120.3467-1.7131-2.0642-195.0895-2.0642-196.8026 0-2.3456 2.8262-1.0088 116.9544 1.4013 119.6325 3.4683 3.8541 4.1505 3.8797 98.2275 3.681 92.2275-.1946 92.2275-.1946 95-2.9668zM523 876.3399c-9.3505-1.4186-8.0639-.3383-28.506-23.9356-22.4957-25.9677-21.7914-23.8896-11.744-34.6523 4.2625-4.566 11.8596-13.0518 16.8825-18.8572 12.587-14.5481 10.587-13.9042 43.0186-13.8497 32.7243.055 27.9869-1.9648 50.802 21.6592 22.887 23.6984 22.7638 18.4971 1.014 42.7957-25.6203 28.6225-21.9486 26.5-45.8425 26.5-11.2536 0-21.0603.1618-21.7928.3596-.7325.1978-2.4568.1889-3.8318-.0197zm11.9064-11.2898c4.5292-2.424 39.6968-43.6207 40.7212-47.7025 2.5997-10.358-3.9167-14.7522-22.5018-15.1734-17.928-.4064-18.1399-.2336-10.4547 8.5244 11.8055 13.4535 11.8426 12.1455-.7481 26.396-13.787 15.6046-17.0114 16.0068-23.29 2.9054-2.1565-4.5-2.1565-4.5-10.5518-4.793-11.5182-.402-11.5061-.2289.9635 13.8396 15.7764 17.7993 18.8974 19.7307 25.8617 16.0035zm-64.851-118.0797c7.6576-4.0983 5.9875-17.151-2.5553-19.9704-11.1943-3.6944-19.756 12.8044-10.1398 19.5398 2.4071 1.686 9.876 1.9393 12.695.4306zm38.4507-1.222c5.6812-4.8868 3.8673-15.441-3.1583-18.3764-7.1593-2.9914-14.3358 2.4895-14.344 10.955-.008 8.3872 10.9684 13.0416 17.5023 7.4214zm621.9939 9.665c-1.65-.2346-6.6-.9037-11-1.487-63.8011-8.4586-111.1253-76.7979-100.0137-144.4264.8134-4.95 1.4866-9.566 1.4962-10.2578.1072-7.7216-120.4468.1138-123.4213 8.0218-17.0167 45.2393-71.1306 58.0799-105.2763 24.9807-11.8463-11.4832-186.5711-8.9856-189.9491 2.7153-18.0675 62.583-108.9228 62.0682-122.4257-.6937-.6823-3.1715-1.6736-6.3316-2.203-7.0226-4.239-5.5331-151.0897-.464-152.272 5.2563-15.0894 73.001-119.4005 67.5992-125.113-6.4792-5.7902-75.0852 99.1278-99.2889 122.746-28.3164 2.7834 8.3643 154.8185 10.346 156.9423 2.0456 15.7625-61.6043 102.9788-63.937 121.5115-3.25 2.42 7.9242 174.7946 11.8988 173.4781 4-14.7929-88.7572 106.0804-115.0168 125.4318-27.25 1.2155 5.5128 128.8357 4.0518 131.0335-1.5 26.1038-65.939 119.9016-91.7978 182.7792-50.3897 10.1026 6.6531 9.6119 6.571 12.6457 2.1164 11.8461-17.3943 38.8729-28.5609 52.0535-21.5068 1.4131.7562 3.2371.279 7.7039-2.0161 12.6275-6.488 24.148-4.7245 33.4519 5.1209 7.7919 8.2454 15.8328 6.8939 20.868-3.5076 3.488-7.2053 2.3624-8.1395-10.6712-8.8566-21.3942-1.177-32.9586-8.1447-37.1932-22.4092-1.7122-5.7678-1.7122-5.7678-20.6577-5.4644-104.662 1.6759-188.4497-34.7166-195.1629-84.7674-1.1903-8.8746 16.7288-31.4219 31.4523-39.5757.1291-.0715.725-3.6993 1.3242-8.0619 3.829-27.8774 21.8357-50.6256 47.4758-59.9771 10.0325-3.659 10.0532-4.0056.8227-13.7676-4.7052-4.9761-9.4622-11.2853-11.8575-15.7265-3.1629-5.8645-4.6278-7.5982-7-8.2843-15.5527-4.4985-26.5-21.5162-26.5-41.1947 0-5.7251-.01-5.7347-6.5012-12.1671-10.4057-10.3038-14.9568-21.1985-17.4905-41.8698-3.5962-29.3387-8.8858-32.8028-50.81-33.2745-29.3018-.3296-29.3018-.3296-33.8104 3.8263-15.7842 14.5493-38.4506 6.1515-38.366-14.2145.0803-19.2995 21.3538-29.5003 36.0012-17.2628 4.1661 3.4807 4.1661 3.4807 32.8215 3.498 56.6427.0344 70.9615 10.5536 76.6498 56.3103 2.419 19.4594 3.8635 22.796 7.1093 16.4224 4.9973-9.813 12.5895-17.013 20.8963-19.817 5.4987-1.856 5.9436-2.2755 8.9661-8.4532 7.5261-15.3828 25.7589-31.831 41.2839-37.2428 3.25-1.133 3.25-1.133 3.2556-10.935.01-12.5338 1.074-16.2377 5.9446-20.638 15.0316-13.5802 71.9149-16.1046 92.6697-4.1126 6.9761 4.0307 7.7739 6.7675 8.3605 28.6818.011.4032 2.3821 1.9239 5.2696 3.3793 8.3186 4.1928 17.7759 10.6127 23.8902 16.2174C1334.7804 107 1334.7804 107 1342.7305 107c32.3322 0 55.7112 52.537 36.3457 81.6757-3.0638 4.61-4.1035 7.388-4.9869 13.3243-1.9405 13.0402-7.9457 22.9796-18.4852 30.5954-5.851 4.228-.4142 16.1785 8.1467 17.9074 2.6088.5268 3.3799.2951 3.9044-1.1732 9.4761-26.5267 46.3716-37.5482 68.8448-20.5654 12.0308 9.0915 11.7533 15.4688-.978 22.4781-15.176 8.3554-19.5325 14.0895-22.5567 29.6902-3.7302 19.2427-4.3146 18.2135 12.2475 21.5675 26.0508 5.2756 48.2664 12.9906 55.996 19.4462 16.911 14.1238-21.4292 76.4544-53.4629 86.916-8.05 2.629-8.0902 2.6593-11.9492 9.0501-4.2651 7.0633-4.2572 7.096 2.2767 9.5246 34.1499 12.6934 21.0505 41.3904-26.0734 57.1194-9.5 3.1709-9.5 3.1709-10.2385 10.5573-3.1476 31.4827-28.1917 55.724-56.5701 54.7566-6.5953-.2249-8.2868.0609-10.7585 1.8171-14.9654 10.6335-32.1389 7.1774-42.1645-8.4852-4.5573-7.1197-9.5168-5.4085-18.5134 6.3876-4.6042 6.037-4.6264 7.087-.3054 14.4597 50.657 86.4329-25.6476 205.1964-122.9496 191.364zm31.6356-21.441c65.5348-13.3552 101.9165-76.6375 82.1965-142.9724-22.5325-75.7956-125.335-98.69-179.6612-40.0113-73.597 79.4937-7.1217 204.297 97.4647 182.9837zM1121 715.5574c-53.483-11.214-83.2651-72.9077-59.9831-124.255 40.1738-88.6013 167.4538-61.8473 167.4495 35.1976 0 57.6417-51.9571 100.6965-107.4664 89.0575zm41.7542-8.0098c55.0822-14.9473 77.7559-83.1877 42.9151-129.1605-33.5069-44.2127-101.1129-40.6599-128.3897 6.7472-38.8018 67.4374 13.2668 142.008 85.4746 122.4133zm-61.556-22.9747c-4.1267-4.7-4.0868-6.7609.456-23.5729 5.6427-20.8821 6.4677-17.7082-8.0315-30.8966-21.714-19.751-19.6574-25.6387 9.9888-28.597 18.7543-1.8713 16.6744-.2224 23.9476-18.9846 10.5649-27.2533 17.6848-27.5242 26.861-1.0218 6.3201 18.2535 6.4824 18.5 12.1829 18.5 17.3933 0 34.9633 4.0226 37.095 8.4929 2.5587 5.3657 1.2675 7.3232-13.168 19.9624-15.7449 13.7858-14.8432 10.4717-9.112 33.4876 4.6637 18.7288 4.6922 21.4656.2562 24.5727-4.518 3.1646-7.6755 1.988-22.788-8.4916-17.4507-12.1011-14.8772-12.0709-32.1429-.378-17.3747 11.7667-20.5417 12.6255-25.5451 6.927zm-824.707-20.2448c31.6398-9.677 42.198-51.9312 19.0424-76.2075-17.9394-18.8077-47.0288-18.7012-64.1408.2347-31.4398 34.7908 1.0108 89.457 45.0984 75.9728zm-12.8363-13.4356c-7.4055-2.0053-6.8593-12.8409.8652-17.1637 3.6841-2.0617.727-2.7288-12.097-2.7288C237.0643 631 233 629.1445 233 622.1327c0-7.2265 2.9435-8.4825 19.3383-8.252 15.6829.2204 16.2465.0118 11.7106-4.3338-7.5923-7.274-4.0516-17.5213 5.2477-15.1873 2.681.6729 23.798 21.664 24.9636 24.8149 1.4638 3.9569-1.247 8.2632-12.5338 19.9114-11.6365 12.009-13.303 13.098-18.0715 11.8066zm295.6356 8.8225c29.1453-14.022 36.099-50.8984 14.0822-74.6791-23.553-25.44-65.7274-14.3673-75.7792 19.8956-10.7038 36.4851 28.1049 70.945 61.697 54.7835zm-19.926-11.8844c-5.6723-2.7466-5.2604-8.14 1.1567-15.1446 1.9134-2.0885 3.4788-3.9973 3.4788-4.2417 0-.2443-6.3296-.4443-14.0657-.4443-17.2842 0-21.579-2.3112-19.5221-10.506 1.498-5.969 3.1284-6.494 20.1653-6.494 15.5776 0 15.5776 0 11-5.2328-8.6667-9.9074-2.0317-21.087 8.0223-13.5172 19.0762 14.3628 25.6853 25.9878 19.529 34.35-10.9956 14.9352-23.8418 24.0983-29.7643 21.2306zm316.8151-20.5122c28.8204-13.5804 35.4116-51.2839 13.1658-75.312-24.439-26.397-67.3224-13.9026-75.8056 22.0867-8.8683 37.6226 28.4528 69.3345 62.6398 53.2253zM835.5 617.8453c-5.9436-3.251-5.9024-7.4317.1368-13.8881C840.2737 599 840.2737 599 826.5872 599c-17.68 0-20.5872-1.2889-20.5872-9.1272 0-6.6746 3.0369-7.8728 19.9546-7.8728 17.1612 0 16.655.2977 10.0454-5.9077-5.6358-5.2912-6.5122-9.092-2.9723-12.8916 5.2619-5.648 8.9588-3.9267 23.6479 11.0106 14.5266 14.772 14.5187 15.3468-.432 31.4415-12.1246 13.0525-15.5211 15.049-20.7436 12.1925zM1276.03 363.75c16.5221-8.3467 4.6919-34.7289-12.471-27.8113-6.2134 2.5043-6.559 2.4856-6.559-.3542 0-19.9826-35.6841-27.3698-39.5285-8.1831-1.2714 6.3458-1.2195 6.298-7.4525 6.8632-17.3513 1.5733-21.3559 23.5088-5.2615 28.8204 10.4668 3.4543 64.7485 3.9608 71.2725.665zM1178 194.1635c0-8.4071 10.5894-10.7258 14.4947-3.1738 2.0136 3.8938 3.5053 3.0306 3.5053-2.0285 0-7.884-4.6775-14.9612-9.8881-14.9612-6.4593 0-13.4145 14.836-10.5071 22.4125.8871 2.3119 2.3952.8959 2.3952-2.249zM1242.9809 189c.039-18.6008-18.4074-20.5678-21.4443-2.2867-1.027 6.182.103 6.9646 4.1055 2.8433 5.1749-5.3284 14.3579-2.6423 14.3579 4.1998 0 1.0507.3068 2.217.6817 2.592 1.2967 1.2967 2.2877-1.8705 2.2992-7.3484zM103 534c-33.9315-.617-39.8425-3.0002-44.1274-17.7919-2.0363-7.0295-2.0272-226.8537.0097-232.624 1.7293-4.899 8.2543-12.0708 13.5728-14.9184 5.4067-2.8948 292.0023-4.003 300.5553-1.1623 5.0151 1.6658 11.5486 7.6928 14.6309 13.4966 2.1995 4.1418 3.4786 227.1274 1.3482 235.0392-1.4972 5.56-6.6937 11.8094-12.558 15.1026C371.3312 534.0058 201.156 535.7847 103 534Zm190.3928-65.5162c9.6633-4.5855 8.2342-18.4636-2.2165-21.5244-7.6152-2.2303-77.5465-.8195-80.8544 1.6312-6.9983 5.1846-6.123 15.4927 1.6625 19.5801 4.848 2.5452 76.1269 2.8194 81.4084.3131zm-159.1107-2.829c1.933-.8081 10.6046-9.2816 21.7179-21.222 10.175-10.9321 22.4134-24.0268 27.1965-29.0992 17.979-19.0666 19.1993-16.6012-35.6774-72.0836-14.2866-14.4443-18.946-16.023-26.1191-8.85-7.8454 7.8454-6.3886 10.6581 19.277 37.2191 24.0112 24.849 24.8677 25.8749 23.6968 28.3815-.4806 1.0288-10.7738 12.2437-22.8738 24.922-22.8225 23.9134-24.834 26.577-23.8355 31.5627 1.6607 8.2932 9.0113 12.3492 16.6176 9.1695zM551.5 507.6364c-10.45-5.6889-30.925-16.874-45.5-24.856-14.575-7.9819-32.125-17.5565-39-21.277-23.5954-12.7686-26.6625-14.662-28.3334-17.4907-2.787-4.718-2.5108-123.1159.298-127.7224 2.6129-4.2854 9.7685-7.663 63.0354-29.7538 9.625-3.9917 28.3-11.7717 41.5-17.2889 13.2-5.5172 25.896-10.5962 28.2134-11.2867 5.6057-1.6704-3.5383-5.1367 100.2866 38.0164 9.075 3.7719 20.1647 8.2593 24.6437 9.972 11.065 4.2312 15.9734 7.915 17.348 13.02 2.2951 8.5233.8683 122.3981-1.575 125.7083-2.3558 3.1915 1.0772 1.2522-67.9167 38.3658-78.8869 42.4354-66.3265 39.1139-93 24.593zm317.6914-34.1288c-2.9774-2.5053-3.6217-4.66-5.7313-19.1654-.911-6.264-2.0935-7.1764-12.7053-9.804-5.3539-1.3258-10.7391-3.1142-11.967-3.9743-3.2417-2.2706-4.2116-2.0335-11.8202 2.8885-16.879 10.9189-17.2536 10.846-36.566-7.103-16.4186-15.2594-16.739-17.1577-5.9072-34.999 5.5236-9.0981 5.545-8.0754-.4072-19.4566-2.702-5.1666-5.4808-11.4188-6.175-13.8938-1.7885-6.3757-2.5123-6.9925-8.2846-7.0596-19.1368-.2225-19.6276-.9375-19.6276-28.5962 0-26.843.3963-27.5696 15.6873-28.7658 10.2336-.8006 10.337-.8698 12.8187-8.5784 2.1837-6.7833 5.6047-13.6913 10.2298-20.6573 3.1324-4.7177 3.3729-5.5241 2.146-7.1955-.76-1.0353-3.9529-5.2227-7.0953-9.3053-11.8162-15.3516-11.7353-17.4178 1.239-31.6261 18.4114-20.1627 21.2923-20.5952 40.6816-6.1067 6.3446 4.7409 6.6391 4.7489 15.2469.414 3.7972-1.9122 10.1708-4.382 14.1635-5.4885 9.1176-2.5265 8.6798-1.9864 10.2776-12.6821 2.4809-16.6072 2.8914-16.8525 28.2024-16.8525 20.6212 0 21.5812.2283 24.5886 5.8477.8008 1.4963 3.7946 17.0756 3.81 19.8273.002.3713 3.7164 1.8712 8.2539 3.333 4.5375 1.4619 11.5345 4.4643 15.549 6.672 7.2988 4.014 7.2988 4.014 14.8435-1.083 12.7885-8.6395 13.7447-8.3572 30.6075 9.0348 17.4613 18.0094 17.619 19.3906 4.0056 35.0837-4.0906 4.7155-4.0906 4.7155 1.7568 16 3.2161 6.2065 6.379 13.4084 7.0286 16.0043 1.5557 6.2162 1.9322 6.4432 12.6753 7.6427 15.987 1.7849 16.2837 2.316 16.2837 29.155 0 25.9846-.1143 26.183-16.13 27.9972-11.0203 1.2484-10.0249.4665-13.3486 10.4853-1.4596 4.4-4.1709 10.7226-6.0249 14.0503-3.371 6.0502-3.371 6.0502.5685 13 10.7755 19.009 10.8585 18.4651-5.3609 35.132-17.511 17.9943-17.8874 18.0944-33.2188 8.8287-9.0147-5.4481-9.0147-5.4481-20.5-1.492-6.317 2.1758-12.1868 3.9617-13.0442 3.9685-3.6371.0291-4.8579 2.4723-6.3759 12.7607C916.8526 476.134 917.0575 476 891.6425 476c-19.3135 0-19.5157-.0224-22.4511-2.4924zm84.4621-56.0162c11.2779-7.3896 6.1364-24.4757-7.3687-24.4877-9.3719-.008-18.3476-13.922-14.02-21.7334C935.6833 365.0995 953.8505 352 958.99 352c13.7736 0 18.6022-19.5266 6.6546-26.9106-10.3235-6.3803-20.596.6682-21.608 14.8266-.8944 12.5132-11.6082 19.8775-24.1761 16.6178-13.9455-3.617-21.468.7952-23.2993 13.6659-.4511 3.1706-1.2205 4.8587-2.365 5.1884-11.4174 3.2902-15.0675 3.7298-18.0713 2.1765-1.9024-.9838-5.633-1.5646-10.049-1.5646-8.087 0-27.2614-19.344-25.591-25.8174 1.818-7.0455 1.6747-10.941-.5965-16.2205-3.7873-8.8037 8.4286-29.9316 17.3492-30.006 22.549-.188 29.7033-27.3787 9.852-37.4441-15.5289-7.8738-31.5738 8.3524-26.192 26.488 1.917 6.4597-12.7289 31.4118-20.0285 34.1224-16.8457 6.2553-14.8153 27.3317 2.9872 31.0088 6.123 1.2647 6.3184 1.4108 14.4254 10.7856C852.4563 385.308 852 384.5715 852 391.0608c0 16.1046 22.8348 19.8844 27.1804 4.499 2.3349-8.2666 13.6033-12.2266 22.6344-7.9542 3.7102 1.7552 8.1124 2.8442 13.3002 3.29 10.8492.9323 17.578 6.2065 17.054 13.3672-.875 11.9557 11.6538 19.67 21.4845 13.2286zm6.0591-112.604c4.8274-4.8274-11.0247-29.5921-25.03-39.103-18.0183-12.236-55.1647-16.8206-46.0057-5.678 3.9482 4.8033 4.8306 5.2136 14.2043 6.6051 18.8552 2.799 39.1757 18.2248 44.3646 33.6782.5744 1.7106 1.4842 3.6728 2.0217 4.3603 1.2115 1.5494 8.9316 1.6509 10.4452.1373z"
     id="path3854" />
  <path
     fill="#096fd0"
     d="M97.9935 978.068C73.214 970.5077 71.3431 937.253 95 924.8577c7.7875-4.0803 891.889-3.64 900.2144.4484 21.548 10.5814 22.3231 39.792 1.3538 51.0162-4.1664 2.2302-891.3376 3.9535-898.5747 1.7455zm42.3618-71.5146c-16.6498-7.2446-16.3341-5.3013-16.3455-100.6219-.0116-96.6338-.4282-93.6499 14.188-101.6288 3.9808-2.1731 229.1046-3.3754 236.9407-1.2654 4.8388 1.303 11.242 6.8983 14.184 12.3945 3.0964 5.785 3.4792 172.6863.4088 178.3047-3.3265 6.0872-7.7245 10.1173-13.3291 12.2142-7.0619 2.6422-230.0511 3.2116-236.0469.6027zm35.1722-81.9362c1.0849-.7605 7.8068-7.7355 14.9375-15.5 15.4092-16.7786 13.6381-16.4695 25.6719-4.4808 11.1674 11.1255 15.6482 12.6398 20.5474 6.9442 5.259-6.114 3.859-9.229-10.2925-22.9003-21.3586-20.6338-24.3892-20.5206-44.2307 1.6522-5.4963 6.1421-11.8681 12.9675-14.1596 15.1675-11.272 10.822-4.647 27.6509 7.526 19.1172zm172.3131-20.2181c4.843-3.3922 4.7675-11.459-.1396-14.896-2.6948-1.8875-79.3834-2.2786-82.8514-.4226-5.2366 2.8026-5.3589 12.7843-.1933 15.787 3.325 1.9328 80.3755 1.499 83.1843-.4684zm363.7869 102.1327c-5.439-1.9388-10.6545-6.4423-13.3385-11.5177-3.2607-6.1661-3.6263-210.5371-.3891-217.5141 2.2936-4.9433 7.4021-9.899 12.318-11.9493 6.2639-2.6126 232.6136-2.281 238.2821.3492 5.3228 2.4696 10.0659 7.6182 11.9575 12.9796 2.5743 7.2964 2.2657 208.9319-.3286 214.6427-2.3326 5.135-7.4717 10.274-12.6067 12.6067-5.404 2.4549-229.0665 2.837-235.8947.403zm137.8928-30.3415c8.7888-4.8453 27.2165-14.8403 40.9503-22.2112C925.631 835.1088 921.5 843.915 921.5 787.8318c0-51.6368.1015-50.6913-5.7566-53.624-93.0937-46.6054-83.0012-44.4882-122.3624-25.669-16.9845 8.1205-35.156 16.7548-40.381 19.1873-18.1653 8.4567-17 4.298-17 60.6685 0 55.5544-3.262 47.5465 25.5 62.5993 22.5124 11.782 23.6513 12.152 27.1855 8.8318 6.0571-5.6904 3.6966-8.4062-16.4473-18.9231-8.656-4.5192-16.9757-9.0767-18.4882-10.1278-3.4454-2.3942-4.5224-78.7748-1.1108-78.7748.9015 0 10.876 4.725 22.1657 10.5 22.6285 11.5752 22.729 11.6045 27.1184 7.9111 6.9263-5.8281 4.4454-8.3451-20.1733-20.466-23.6431-11.6408-27.923-6.8143 31.0438-35.008 16.1277-7.7111 16.6945-7.5456 77.4027 22.5985 7.1336 3.5421 7.2137 3.4404-8.6175 10.945-17.4524 8.273-20.2062 11.521-13.9441 16.4468 4.0448 3.1817 6.2446 2.6463 22.4247-5.4573 8.2691-4.1414 15.4635-7.2649 15.9875-6.941 1.9691 1.217 1.2024 74.9482-.7971 76.653-.9625.8206-13.9 7.9258-28.75 15.7894-57.102 30.2373-58.9515 31.577-52.5 38.0285 3.8998 3.8998 8.153 2.7649 25.5203-6.8097zm-36.907-5.9672c1.7125-1.4977 8.6875-9.2294 15.5-17.1817 6.8127-7.9522 20.3919-23.6938 30.176-34.9814 22.8085-26.3136 22.7945-27.0183-.5393-27.0453-8.6588-.01-12.75-.3705-12.75-1.1235 0-.61 3.4646-11.613 7.6992-24.4512 7.5507-22.8921 7.6635-23.3818 5.845-25.3911-4.7714-5.2723-8.188-2.5453-30.6916 24.4967-7.344 8.825-18.0776 21.6192-23.8526 28.4313C784.0761 816.479 784.2635 819 805.9343 819c14.711 0 14.2303-2.2862 4.9698 23.6365-9.4826 26.5445-9.1615 25.3217-7.3675 28.0597 1.997 3.0478 5.2448 2.8785 9.0768-.4731zM441.5 905.1098c-5.3282-2.4593-11.0778-8.4296-12.9968-13.4956-3.6553-9.6494-1.5591-176.0203 2.2659-179.8452 4.156-4.156 215.2873-5.8845 221.9324-1.817 7.174 4.3912 6.7677-.887 7.0708 91.8583.3197 97.8132.7737 94.2483-13.008 102.152-6.7146 3.8507-197.1018 4.915-205.2643 1.1475zm198.2275-18.382c3.0504-3.0501 5.1053-116.8145 2.1738-120.3467-1.7131-2.0642-195.0895-2.0642-196.8026 0-2.3456 2.8262-1.0088 116.9544 1.4013 119.6325 3.4683 3.8541 4.1505 3.8797 98.2275 3.681 92.2275-.1946 92.2275-.1946 95-2.9668zM523 876.3399c-9.3505-1.4186-8.0639-.3383-28.506-23.9356-22.4957-25.9677-21.7914-23.8896-11.744-34.6523 4.2625-4.566 11.8596-13.0518 16.8825-18.8572 12.587-14.5481 10.587-13.9042 43.0186-13.8497 32.7243.055 27.9869-1.9648 50.802 21.6592 22.887 23.6984 22.7638 18.4971 1.014 42.7957-25.6203 28.6225-21.9486 26.5-45.8425 26.5-11.2536 0-21.0603.1618-21.7928.3596-.7325.1978-2.4568.1889-3.8318-.0197zm11.9064-11.2898c4.5292-2.424 39.6968-43.6207 40.7212-47.7025 2.5997-10.358-3.9167-14.7522-22.5018-15.1734-17.928-.4064-18.1399-.2336-10.4547 8.5244 11.8055 13.4535 11.8426 12.1455-.7481 26.396-13.787 15.6046-17.0114 16.0068-23.29 2.9054-2.1565-4.5-2.1565-4.5-10.5518-4.793-11.5182-.402-11.5061-.2289.9635 13.8396 15.7764 17.7993 18.8974 19.7307 25.8617 16.0035zm-64.851-118.0797c7.6576-4.0983 5.9875-17.151-2.5553-19.9704-11.1943-3.6944-19.756 12.8044-10.1398 19.5398 2.4071 1.686 9.876 1.9393 12.695.4306zm38.4507-1.222c5.6812-4.8868 3.8673-15.441-3.1583-18.3764-7.1593-2.9914-14.3358 2.4895-14.344 10.955-.008 8.3872 10.9684 13.0416 17.5023 7.4214zm621.9939 9.665c-1.65-.2346-6.6-.9037-11-1.487-63.8011-8.4586-111.1253-76.7979-100.0137-144.4264.8134-4.95 1.4866-9.566 1.4962-10.2578.1072-7.7216-120.4468.1138-123.4213 8.0218-17.0167 45.2393-71.1306 58.0799-105.2763 24.9807-11.8463-11.4832-186.5711-8.9856-189.9491 2.7153-18.0675 62.583-108.9228 62.0682-122.4257-.6937-.6823-3.1715-1.6736-6.3316-2.203-7.0226-4.239-5.5331-151.0897-.464-152.272 5.2563-15.0894 73.001-119.4005 67.5992-125.113-6.4792-5.7902-75.0852 99.1278-99.2889 122.746-28.3164 2.7834 8.3643 154.8185 10.346 156.9423 2.0456 15.7625-61.6043 102.9788-63.937 121.5115-3.25 2.42 7.9242 174.7946 11.8988 173.4781 4-14.7929-88.7572 106.0804-115.0168 125.4318-27.25 1.2155 5.5128 128.8357 4.0518 131.0335-1.5 26.1038-65.939 119.9016-91.7978 182.7792-50.3897 10.1026 6.6531 9.6119 6.571 12.6457 2.1164 11.8461-17.3943 38.8729-28.5609 52.0535-21.5068 1.4131.7562 3.2371.279 7.7039-2.0161 12.6275-6.488 24.148-4.7245 33.4519 5.1209 7.7919 8.2454 15.8328 6.8939 20.868-3.5076 3.488-7.2053 2.3624-8.1395-10.6712-8.8566-21.3942-1.177-32.9586-8.1447-37.1932-22.4092-1.7122-5.7678-1.7122-5.7678-20.6577-5.4644-104.662 1.6759-188.4497-34.7166-195.1629-84.7674-1.1903-8.8746 16.7288-31.4219 31.4523-39.5757.1291-.0715.725-3.6993 1.3242-8.0619 3.829-27.8774 21.8357-50.6256 47.4758-59.9771 10.0325-3.659 10.0532-4.0056.8227-13.7676-4.7052-4.9761-9.4622-11.2853-11.8575-15.7265-3.1629-5.8645-4.6278-7.5982-7-8.2843-15.5527-4.4985-26.5-21.5162-26.5-41.1947 0-5.7251-.01-5.7347-6.5012-12.1671-10.4057-10.3038-14.9568-21.1985-17.4905-41.8698-3.5962-29.3387-8.8858-32.8028-50.81-33.2745-29.3018-.3296-29.3018-.3296-33.8104 3.8263-15.7842 14.5493-38.4506 6.1515-38.366-14.2145.0803-19.2995 21.3538-29.5003 36.0012-17.2628 4.1661 3.4807 4.1661 3.4807 32.8215 3.498 56.6427.0344 70.9615 10.5536 76.6498 56.3103 2.419 19.4594 3.8635 22.796 7.1093 16.4224 4.9973-9.813 12.5895-17.013 20.8963-19.817 5.4987-1.856 5.9436-2.2755 8.9661-8.4532 7.5261-15.3828 25.7589-31.831 41.2839-37.2428 3.25-1.133 3.25-1.133 3.2556-10.935.01-12.5338 1.074-16.2377 5.9446-20.638 15.0316-13.5802 71.9149-16.1046 92.6697-4.1126 6.9761 4.0307 7.7739 6.7675 8.3605 28.6818.011.4032 2.3821 1.9239 5.2696 3.3793 8.3186 4.1928 17.7759 10.6127 23.8902 16.2174C1334.7804 107 1334.7804 107 1342.7305 107c32.3322 0 55.7112 52.537 36.3457 81.6757-3.0638 4.61-4.1035 7.388-4.9869 13.3243-1.9405 13.0402-7.9457 22.9796-18.4852 30.5954-5.851 4.228-.4142 16.1785 8.1467 17.9074 2.6088.5268 3.3799.2951 3.9044-1.1732 9.4761-26.5267 46.3716-37.5482 68.8448-20.5654 12.0308 9.0915 11.7533 15.4688-.978 22.4781-15.176 8.3554-19.5325 14.0895-22.5567 29.6902-3.7302 19.2427-4.3146 18.2135 12.2475 21.5675 26.0508 5.2756 48.2664 12.9906 55.996 19.4462 16.911 14.1238-21.4292 76.4544-53.4629 86.916-8.05 2.629-8.0902 2.6593-11.9492 9.0501-4.2651 7.0633-4.2572 7.096 2.2767 9.5246 34.1499 12.6934 21.0505 41.3904-26.0734 57.1194-9.5 3.1709-9.5 3.1709-10.2385 10.5573-3.1476 31.4827-28.1917 55.724-56.5701 54.7566-6.5953-.2249-8.2868.0609-10.7585 1.8171-14.9654 10.6335-32.1389 7.1774-42.1645-8.4852-4.5573-7.1197-9.5168-5.4085-18.5134 6.3876-4.6042 6.037-4.6264 7.087-.3054 14.4597 50.657 86.4329-25.6476 205.1964-122.9496 191.364zm37-21.7576c111.5853-28.2533 110.0162-191.8488-2.0555-214.3112-71.3253-14.2955-135.0212 40.731-132.1406 114.1554 2.7547 70.2167 66.0039 117.422 134.1961 100.1558zm-62.1119-46.6452c-7.3228-2.9264-7.7841-8.4096-2.3881-28.3869 2.2-8.1448 4-15.351 4-16.0135 0-.6626-5.6099-6.3413-12.4665-12.6194-21.8975-20.05-19.8569-25.2727 10.9665-28.0673 16.5849-1.5036 15.4507-.6525 21.5418-16.1647 8.6709-22.0819 10.9871-24.8637 17.7783-21.3518 3.1865 1.6478 3.0955 1.4555 10.6914 22.593 4.895 13.6216 3.5294 12.6983 21.5003 14.5365C1199.222 603.8082 1204 605.591 1204 611.6068c0 3.9244-.8873 4.956-14.5633 16.9302-7.3902 6.4706-13.4367 12.3498-13.4367 13.065 0 .715 2.0343 9.5313 4.5208 19.5917 4.9989 20.2266 4.9446 22.48-.612 25.3535-4.1026 2.1215-3.6021 2.3444-20.517-9.1365-18.234-12.3762-15.0846-12.3638-33.529-.1318-15.3336 10.169-17.1821 11.0475-20.4747 9.7317zm-829.3196-21.606C295.0808 659.8204 309 640.59 309 619.9076c0-46.054-58.2626-63.9-83.1843-25.4797-23.3535 36.0025 9.8178 82.8534 50.2528 70.9767zm-14.4336-16.4772c-4.1996-3.3034-2.206-11.9459 3.4545-14.9752 5.4622-2.9233 2.2303-3.9522-12.415-3.9522C236.568 630 234 628.9407 234 622.2963c0-6.926 2.0245-7.7718 19.1614-8.0055 8.4362-.115 15.5448-.2275 15.7968-.25.252-.0225-1.4057-1.9533-3.6839-4.2908-5.2582-5.3952-6.0847-8.45-3.2582-12.0433 4.1452-5.2698 6.9055-4.0736 19.677 8.527 15.7357 15.5252 15.7282 15.0797.532 31.439-12.701 13.6731-15.5417 15.2259-20.5902 11.2547zm294.9704 12.915c31.8518-11.7155 40.6138-52.89 16.6102-78.0553-24.796-25.996-69.4243-12.0952-77.0904 24.0121-7.4464 35.0727 27.4001 66.2105 60.4802 54.0432zm-18.431-16.1568c-3.5406-3.7688-.909-10.8436 5.574-14.9853 4.5929-2.9342 1.2779-4.007-10.5453-3.4125-17.5988.8849-22.203-.7335-22.203-7.8046 0-6.4797 2.6347-7.4832 19.6478-7.4832 17.7337 0 17.5323.1064 11.822-6.2447-8.608-9.5742-2.7152-19.8643 7.1614-12.5053 5.7666 4.2966 19.9939 19.4307 21.3545 22.7155 4.2937 10.366-25.5761 37.4216-32.8114 29.72zM856 628.381c46.8088-22.1505 28.823-94.9144-22.5-91.026-38.3651 2.9067-55.957 52.281-28.785 80.7896 13.1267 13.7723 34.7094 18.0802 51.285 10.2364zm-20.5-11.576c-4.9806-2.8244-4.6812-6.628 1-12.7016 5.978-6.391 6.4233-6.1035-9.453-6.1035-18.9438 0-23.4097-2.5098-19.3262-10.8612C809.5 583.5 809.5 583.5 825.75 583.2252c18.5459-.3136 18.6538-.3829 11.25-7.2252-9.8545-9.1072-3.0505-19.967 7.6-12.1303 24.0927 17.728 26.0307 25.2505 10.7269 41.6389-11.5988 12.4208-14.714 14.1958-19.8269 11.2965zm440.53-253.055c16.5221-8.3467 4.6919-34.7289-12.471-27.8113-6.2134 2.5043-6.559 2.4856-6.559-.3542 0-19.9826-35.6841-27.3698-39.5285-8.1831-1.2714 6.3458-1.2195 6.298-7.4525 6.8632-17.3513 1.5733-21.3559 23.5088-5.2615 28.8204 10.4668 3.4543 64.7485 3.9608 71.2725.665zM1178 194.1635c0-8.4071 10.5894-10.7258 14.4947-3.1738 2.0136 3.8938 3.5053 3.0306 3.5053-2.0285 0-7.884-4.6775-14.9612-9.8881-14.9612-6.4593 0-13.4145 14.836-10.5071 22.4125.8871 2.3119 2.3952.8959 2.3952-2.249zM1242.9809 189c.039-18.6008-18.4074-20.5678-21.4443-2.2867-1.027 6.182.103 6.9646 4.1055 2.8433 5.1749-5.3284 14.3579-2.6423 14.3579 4.1998 0 1.0507.3068 2.217.6817 2.592 1.2967 1.2967 2.2877-1.8705 2.2992-7.3484zM103 534c-33.9315-.617-39.8425-3.0002-44.1274-17.7919-2.0363-7.0295-2.0272-226.8537.0097-232.624 1.7293-4.899 8.2543-12.0708 13.5728-14.9184 5.4067-2.8948 292.0023-4.003 300.5553-1.1623 5.0151 1.6658 11.5486 7.6928 14.6309 13.4966 2.1995 4.1418 3.4786 227.1274 1.3482 235.0392-1.4972 5.56-6.6937 11.8094-12.558 15.1026C371.3312 534.0058 201.156 535.7847 103 534Zm194.1928-67.8398c7.1226-7.638 3.307-18.1756-7.3247-20.2293-5.9397-1.1474-70.371-1.1133-75.3681.0399-12.7508 2.9424-12.5515 22.2741.2509 24.3402 17.9623 2.8987 78.7207-.1603 82.442-4.1508zm-153.6936-7.4307c4.4005-4.5487 16.1008-16.9363 26.0008-27.5279 34.1094-36.4921 34.5446-31.4628-6.3336-73.2016-30.1265-30.7608-34.2834-33.1487-42.2274-24.2577-7.3497 8.2257-5.8267 12.4975 10.4082 29.1955 38.839 39.947 36.451 33.178 18.4028 52.1612-32.5208 34.2054-32.75 34.478-32.75 38.9492 0 15.5344 13.6648 17.9484 26.4992 4.6813zM551.5 507.6365c-10.45-5.689-30.925-16.8742-45.5-24.856-14.575-7.982-32.125-17.5566-39-21.277-23.5954-12.7687-26.6625-14.6621-28.3334-17.4908-2.787-4.718-2.5108-123.1159.298-127.7224 2.6129-4.2854 9.7685-7.663 63.0354-29.7538 9.625-3.9917 28.3-11.7717 41.5-17.2889 13.2-5.5172 25.896-10.5962 28.2134-11.2867 5.6057-1.6704-3.5383-5.1367 100.2866 38.0164 9.075 3.7719 20.1647 8.2593 24.6437 9.972 11.065 4.2312 15.9734 7.915 17.348 13.02 2.2951 8.5233.8683 122.3981-1.575 125.7083-2.3558 3.1915 1.0772 1.2522-67.9167 38.3658-78.8869 42.4354-66.3265 39.1139-93 24.593zM568 443.009c0-53.9909 0-53.9909-10.25-59.1145-5.6375-2.818-18.6103-9.572-28.8285-15.009-10.2182-5.4371-19.1057-9.8856-19.75-9.8856-1.7526 0-1.6757 102.9565.0785 105.2569.6875.9015 8 5.4387 16.25 10.0825 8.25 4.644 20.625 11.6354 27.5 15.5367 6.875 3.9013 13.0625 7.1002 13.75 7.1086.9847.0121 1.25-11.4414 1.25-53.9756zM615.9988 480c10.5255-5.4727 22.1896-114 12.2523-114-29.8239 0-44.7622 25.115-45.011 75.6744-.3087 62.7263-1.5782 56.663 10.4939 50.1186 5.37-2.9111 15.3892-8.218 22.2648-11.793Zm49.896-27.3968c11.3328-6.2683 22.824-12.5051 25.536-13.8597 4.9306-2.4628 4.9306-2.4628 4.667-54.8527-.3074-61.0994 1.1532-54.2714-10.2956-48.1288-5.1162 2.745-16.5022 8.7277-25.3022 13.295-8.8 4.5672-16.3306 8.7853-16.7347 9.3735-.9167 1.3345-1.0133 103.9882-.0986 104.9028 1.0333 1.0333.4573 1.3114 22.2281-10.7301zm-172.136-48.2734c.2418-48.5658.1426-52.1055-1.5-53.542-3.1546-2.7589-36.7077-19.8295-38.0006-19.3334-1.4894.5715-1.8424 100.0752-.3633 102.4098 1.1288 1.7817 37.3004 23.085 38.6051 22.7365.6462-.1726 1.0916-18.6665 1.2588-52.271zM597.5 364.2056c20.3712-10.385 22.3162-11.7334 19.3848-13.4384-4.6829-2.7237-103.1765-49.7641-104.168-49.7505-2.2358.0307-42.0514 17.4872-42.422 18.5992-.201.6027 8.988 5.8552 20.4199 11.6721 11.432 5.817 34.9603 18.0288 52.2853 27.1373 17.325 9.1086 31.95 16.5441 32.5 16.5235.55-.0206 10.45-4.855 22-10.7432zm62.9326-32.3085c26.6532-13.659 27.701-10.7042-9.3478-26.3615-15.8237-6.6873-12.4443-7.1319-37.4919 4.9322-23.5453 11.3406-23.6297 9.3676.941 22.0034 24.5004 12.5996 20.0845 12.6549 45.8987-.5741zm-68.652-27.9992c9.1957-4.4562 18.2456-8.7639 20.111-9.5726 4.7176-2.0454 3.8-2.6927-16.6063-11.7145-21.2833-9.4096-18.3205-9.71-51.765 5.2503-11.7042 5.2356-12.3272 4.2905 9.7445 14.7828 23.2966 11.0746 18.568 10.9206 38.5158 1.254zm277.4108 169.6097c-2.9774-2.5053-3.6217-4.66-5.7313-19.1654-.911-6.264-2.0935-7.1764-12.7053-9.804-5.3539-1.3258-10.7391-3.1142-11.967-3.9743-3.2417-2.2705-4.2116-2.0335-11.8202 2.8885-16.879 10.9189-17.2536 10.846-36.566-7.103-16.4186-15.2594-16.739-17.1577-5.9072-34.999 5.5236-9.0981 5.545-8.0754-.4072-19.4566-2.702-5.1666-5.4808-11.4188-6.175-13.8938-1.7885-6.3757-2.5123-6.9925-8.2846-7.0596-19.1368-.2225-19.6276-.9375-19.6276-28.5962 0-26.843.3963-27.5696 15.6873-28.7658 10.2336-.8006 10.337-.8698 12.8187-8.5784 2.1837-6.7833 5.6047-13.6913 10.2298-20.6573 3.1324-4.7177 3.3729-5.5241 2.146-7.1955-.76-1.0353-3.9529-5.2227-7.0953-9.3053-11.8162-15.3516-11.7353-17.4178 1.239-31.6261 18.4114-20.1627 21.2923-20.5952 40.6816-6.1067 6.3446 4.7409 6.6391 4.7489 15.2469.414 3.7972-1.9122 10.1708-4.382 14.1635-5.4885 9.1176-2.5265 8.6798-1.9864 10.2776-12.6821 2.4809-16.6072 2.8914-16.8525 28.2024-16.8525 20.6212 0 21.5812.2283 24.5886 5.8477.8008 1.4963 3.7946 17.0756 3.81 19.8273.002.3713 3.7164 1.8712 8.2539 3.333 4.5375 1.4619 11.5345 4.4643 15.549 6.672 7.2988 4.014 7.2988 4.014 14.8435-1.083 12.7885-8.6395 13.7447-8.3572 30.6075 9.0348 17.4613 18.0094 17.619 19.3906 4.0056 35.0837-4.0906 4.7155-4.0906 4.7155 1.7568 16 3.2161 6.2065 6.379 13.4084 7.0286 16.0043 1.5557 6.2162 1.9322 6.4432 12.6753 7.6427 15.987 1.7849 16.2837 2.316 16.2837 29.155 0 25.9846-.1143 26.183-16.13 27.9972-11.0203 1.2484-10.0249.4665-13.3486 10.4853-1.4596 4.4-4.1709 10.7226-6.0249 14.0503-3.371 6.0502-3.371 6.0502.5685 13 10.7755 19.009 10.8585 18.4651-5.3609 35.132-17.511 17.9943-17.8874 18.0944-33.2188 8.8287-9.0147-5.4481-9.0147-5.4481-20.5-1.492-6.317 2.1758-12.1868 3.9617-13.0442 3.9685-3.6371.0291-4.8579 2.4723-6.3759 12.7607C916.8526 476.134 917.0575 476 891.6425 476c-19.3135 0-19.5157-.0224-22.4511-2.4924zm84.4621-56.0162c11.2779-7.3896 6.1364-24.4757-7.3687-24.4877-9.3719-.008-18.3476-13.922-14.02-21.7334C935.6833 365.0995 953.8505 352 958.99 352c13.7736 0 18.6022-19.5266 6.6546-26.9106-10.3235-6.3803-20.596.6682-21.608 14.8266-.8944 12.5132-11.6082 19.8775-24.1761 16.6178-13.9455-3.617-21.468.7952-23.2993 13.6659-.4511 3.1706-1.2205 4.8587-2.365 5.1884-11.4174 3.2902-15.0675 3.7298-18.0713 2.1765-1.9024-.9838-5.633-1.5646-10.049-1.5646-8.087 0-27.2614-19.344-25.591-25.8174 1.818-7.0455 1.6747-10.941-.5965-16.2205-3.7873-8.8037 8.4286-29.9316 17.3492-30.006 22.549-.188 29.7033-27.3787 9.852-37.4441-15.5289-7.8738-31.5738 8.3524-26.192 26.488 1.917 6.4597-12.7289 31.4118-20.0285 34.1224-16.8457 6.2553-14.8153 27.3317 2.9872 31.0088 6.123 1.2647 6.3184 1.4108 14.4254 10.7856C852.4563 385.308 852 384.5715 852 391.0608c0 16.1046 22.8348 19.8844 27.1804 4.499 2.3349-8.2666 13.6033-12.2266 22.6344-7.9542 3.7102 1.7552 8.1124 2.8442 13.3002 3.29 10.8492.9323 17.578 6.2065 17.054 13.3672-.875 11.9557 11.6538 19.67 21.4845 13.2286zm6.0591-112.604c4.8274-4.8274-11.0247-29.5921-25.03-39.103-18.0183-12.236-55.1647-16.8206-46.0057-5.678 3.9482 4.8033 4.8306 5.2136 14.2043 6.6051 18.8552 2.799 39.1757 18.2248 44.3646 33.6782.5744 1.7106 1.4842 3.6728 2.0217 4.3603 1.2115 1.5494 8.9316 1.6509 10.4452.1373z"
     id="path3856" />
  <path
     fill="#022156"
     d="M94.5 975.6472c-20.8003-9.7068-20.5084-38.7693.5-49.7872 5.775-3.0287 885.3278-4.3602 895.6623-1.3558 25.8372 7.511 26.9657 45.395 1.5624 52.4502-9.2027 2.5558-892.2019 1.27-897.7247-1.3072zm17.7821-13.0092c12.535-5.3055 8.6952-22.638-5.0153-22.638-12.9657 0-15.8439 17.2665-3.7668 22.5975 3.8375 1.694 4.8645 1.6987 8.7821.0405zm784.9679-.637C956 962 956 962 956 953.9989c0-11.7972-820.2878-12.3949-820.7991-.598-.1645 3.7954-.0375 7.5825.2822 8.4156.5184 1.351 38.5905 1.443 351.799.8503 193.1699-.3655 377.6554-.665 409.9679-.6656zm93.5668-1.8299c5.725-5.348 5.1117-14.4141-1.2371-18.2856-9.2704-5.6531-20.7685 2.8657-17.6984 13.1126 2.4574 8.202 12.698 10.9997 18.9355 5.173zm-845.064-53.2054c-8.1768-1.3764-14.9938-6.8403-18.6719-14.9657-2.3145-5.113-3.2967-164.0828-1.0635-172.1227 1.3377-4.8157 8.4194-12.7165 13.4439-14.9988 4.6338-2.1049 228.138-2.9527 235.5387-.8935 4.7373 1.3182 10.5827 6.3195 13.279 11.3617 4.1025 7.6716 3.3614 173.4652-.8054 180.2051-4.1767 6.7558-10.0375 10.189-19.4871 11.415-9.029 1.1716-215.2733 1.1705-222.2337-.001zm29.7747-82.3485c1.0849-.7605 7.8068-7.7355 14.9375-15.5 15.4092-16.7786 13.6381-16.4695 25.6719-4.4808 11.1674 11.1255 15.6482 12.6399 20.5474 6.9442 5.259-6.114 3.859-9.229-10.2925-22.9003-21.3586-20.6338-24.3892-20.5206-44.2307 1.6522-5.4963 6.1421-11.8681 12.9675-14.1596 15.1675-11.272 10.822-4.647 27.6509 7.526 19.1172zm172.3131-20.2181c4.843-3.3922 4.7675-11.459-.1396-14.896-2.6948-1.8875-79.3834-2.2786-82.8514-.4226-5.2366 2.8026-5.3589 12.7843-.1933 15.787 3.325 1.9328 80.3755 1.499 83.1843-.4684zm369.9865 102.6267c-7.2139-.948-14.0907-4.956-17.5995-10.2578-2.9734-4.4928-5.0567-207.2847-2.2296-217.0346 1.3762-4.746 6.18-10.2734 11.1175-12.7923 5.9032-3.0116 233.8226-3.0427 239.6743-.0327 5.1217 2.6344 8.8508 6.8213 10.6714 11.9815 2.5659 7.2726 2.2595 208.927-.3262 214.6186-2.0685 4.5534-7.7871 9.9674-13.0623 12.3666-3.864 1.7574-215.5077 2.8244-228.2456 1.1506zm131.6932-30.8355c8.7888-4.8453 27.2165-14.8403 40.9503-22.2112C925.631 835.1088 921.5 843.915 921.5 787.8318c0-51.6368.1015-50.6913-5.7566-53.624-93.0937-46.6054-83.0012-44.4882-122.3624-25.669-16.9845 8.1205-35.156 16.7548-40.381 19.1873-18.1653 8.4567-17 4.298-17 60.6685 0 55.5544-3.262 47.5465 25.5 62.5993 22.5124 11.782 23.6513 12.152 27.1855 8.8318 6.0571-5.6904 3.6966-8.4062-16.4473-18.9231-8.656-4.5192-16.9757-9.0767-18.4882-10.1278-3.4454-2.3942-4.5224-78.7748-1.1108-78.7748.9015 0 10.876 4.725 22.1657 10.5 22.6285 11.5752 22.729 11.6045 27.1184 7.9111 6.9263-5.8281 4.4454-8.3451-20.1733-20.466-23.6431-11.6408-27.923-6.8143 31.0438-35.008 16.1277-7.7111 16.6945-7.5456 77.4027 22.5985 7.1336 3.5421 7.2137 3.4404-8.6175 10.945-17.4524 8.273-20.2062 11.521-13.9441 16.4468 4.0448 3.1817 6.2446 2.6463 22.4247-5.4573 8.2691-4.1414 15.4635-7.2649 15.9875-6.941 1.9691 1.217 1.2024 74.9482-.7971 76.653-.9625.8206-13.9 7.9258-28.75 15.7894-57.102 30.2373-58.9515 31.577-52.5 38.0285 3.8998 3.8998 8.153 2.7649 25.5203-6.8097zm-36.907-5.9672c1.7125-1.4977 8.6875-9.2294 15.5-17.1817 6.8127-7.9522 20.3919-23.6938 30.176-34.9814 22.8085-26.3136 22.7945-27.0183-.5393-27.0453-8.6588-.01-12.75-.3705-12.75-1.1235 0-.61 3.4646-11.613 7.6992-24.4512 7.5507-22.8921 7.6635-23.3818 5.845-25.3911-4.7714-5.2723-8.188-2.5453-30.6916 24.4967-7.344 8.825-18.0776 21.6192-23.8526 28.4313C784.0761 816.479 784.2635 819 805.9343 819c14.711 0 14.2303-2.2862 4.9698 23.6365-9.4826 26.5445-9.1615 25.3217-7.3675 28.0597 1.997 3.0478 5.2448 2.8785 9.0768-.4731zm-365.2869 35.7325c-8.332-1.6475-15.7465-7.9047-18.4557-15.5749-2.1403-6.0597-2.0186-170.6238.1293-174.7908 3.8903-7.5474-5.8005-6.9473 113.2325-7.012 135.4637-.0739 116.8886-15.4847 116.5342 96.683-.311 98.4044-.1753 97.7354-20.4986 101.0943-5.6464.9332-186.1112.5555-190.9417-.3996zm191.4239-16.9463c5.2653-3.488 5.2497-3.2942 5.2497-65.3753 0-53.8318-.1134-57.6188-1.75-58.4142-3.3584-1.6323-197.2587-.8148-198.3234.8362-.5553.861-.8294 24.8627-.679 59.444.2766 63.5557.0563 61.297 6.2524 64.0908 4.6897 2.1145 186.0217 1.5573 189.2503-.5815zm-119.658-13.9061c-5.0015-.8846-3.275.8194-26.8423-26.4906-19.0119-22.031-18.4556-19.8614-8-31.2046 4.5375-4.9226 11.9535-13.2727 16.48-18.5557C512.1884 785.4793 510.489 786 542.6668 786c23.74 0 27.2243.2035 29.958 1.75C576.5602 789.9762 611 825.376 611 827.1948c0 2.742-35.0207 42.807-40.6302 46.4825-2.8013 1.8354-42.6899 2.9446-51.2774 1.4259zm22.4-15.389c44.132-45.8833 46.2762-58.7394 9.7898-58.6989-17.6486.0196-17.7792.1133-11.1085 7.9732 13.4406 15.837 13.4207 13.668.2604 28.28-12.7554 14.1625-16.257 14.4366-21.4248 1.6772-1.9208-4.7422-2.3466-4.913-12.2906-4.9304-11.9241-.0208-11.98.6448-1.0648 12.6919 22.7052 25.0596 23.8473 25.4741 35.8385 13.007zm-70.709-112.2749c7.8233-5.4797 6.4768-17.3436-2.389-21.048-12.1109-5.0602-22.0455 12.445-11.687 20.593 3.15 2.478 10.8332 2.7263 14.076.455zM509.6 745.6c5.9013-5.9013 3.6759-15.9155-4.275-19.2376-11.9057-4.9745-21.482 14.112-10.499 20.9255 4.7342 2.937 10.8475 2.2386 14.774-1.6879zm619.4 8.7863c-12.2083-1.504-18.5403-2.8311-26.5-5.554-57.6862-19.7334-92.4969-79.199-82.0928-140.2358.9086-5.3304 1.3871-10.1202 1.0634-10.644-4.5506-7.363-121.5917.1512-124.3944 7.9863-16.0674 44.9174-68.9468 58.3897-103.2732 26.3112-7.2282-6.7548-184.7272-12.375-189.4925-6-.5139.6875-1.5141 3.725-2.2228 6.75-14.768 63.0401-105.0877 64.0596-121.1217 1.3672-1.0917-4.2685-2.5431-8.1154-3.2254-8.5487-2.2416-1.4236-150.3589-1.0016-151.43.4315-.514.6875-1.4985 4.175-2.188 7.75-14.2456 73.8693-122.849 61.9081-122.5755-13.5.262-72.2576 96.5662-89.9912 120.817-22.2474 3.7761 10.5485 155.9212 9.7027 159.1541-.8847 18.1407-59.409 106.5274-58.1714 119.8173 1.6776 1.2112 5.4545 1.2112 5.4545 87.6254 5.71 93.0185.2752 88.6105.536 86.8635-5.1394-1.511-4.909-1.2133-22.3837.5185-30.4247 13.805-64.1013 105.3697-65.3746 121.657-1.6919 1.0691 4.1803 2.208 8.028 2.531 8.5505 3.3935 5.4907 129.7298.3312 132.3304-5.4044 29.6707-65.4373 117.3645-89.3829 180.0918-49.1756 3.7609 2.4106 7.1366 4.866 7.5015 5.4565 1.4878 2.4074 4.4587.772 8.8355-4.8642 12.9723-16.7045 36.914-25.9105 49.6536-19.0924 1.42.7599 3.3113.238 8.115-2.2395 12.3695-6.3795 26.1412-3.7685 33.7287 6.3946 6.1118 8.1865 16.9173 5.006 21.6745-6.3795 2.9525-7.0663 1.208-8.7455-9.0859-8.7455-21.1993 0-35.4801-8.0419-39.3438-22.1555-1.7368-6.3445-1.7368-6.3445-21.6345-6.0393-97.8496 1.501-167.6454-25.004-189.9914-72.1496-7.7356-16.3206.8234-33.7813 23.6102-48.166 2.1909-1.383 3.9835-2.9265 3.9835-3.4298 0-27.838 21.2233-57.6787 47.144-66.286 12.062-4.0054 12.1264-4.54 1.869-15.5033-5.3181-5.684-9.2651-11.0698-11.8117-16.117-3.8246-7.5802-3.8246-7.5802-9.8969-9.3684C1124.229 228.9344 1114 211.5118 1114 193.0915c0-6.1199 0-6.1199-6.0705-11.8193-10.3707-9.7367-15.1541-20.4382-17.5543-39.2722-4.2493-33.3435-9.6825-36.9575-55.6009-36.9844-26.7258-.0156-26.7258-.0156-29.8921 3.464-13.8139 15.1804-37.9375 7.2877-37.8602-12.3869.0748-19.0552 21.1044-29.0077 34.92-16.5262 3.8004 3.4335 3.8004 3.4335 32.6792 3.4509 56.5348.034 69.8816 9.7166 75.7978 54.9887 3.0846 23.6037 4.422 25.8246 9.6474 16.0207 4.4327-8.3166 12.0135-15.2193 19.8539-18.078 5.7034-2.0796 6.476-2.7075 8.1573-6.6299 6.3469-14.8067 25.0389-32.7529 39.9047-38.3123 6.0177-2.2505 6.0177-2.2505 6.0233-12.3785.013-23.3816 14.9764-31.8992 55.9944-31.8737 36.7064.023 49.5184 7.2527 48.9753 27.6365-.2608 9.7857-.3782 9.414 3.4831 11.0273 7.0294 2.937 17.2496 9.588 24.5416 15.9707 7.5 6.5648 7.5 6.5648 15.5 6.5977 32.2343.1326 54.9115 51.7065 35.5104 80.76-3.1195 4.6715-4.1688 7.4373-5.0551 13.3243-1.9043 12.6492-8.0346 23.3021-16.4102 28.517-5.1126 3.1831-5.2485 3.924-2.5073 13.6605 2.4714 8.7782 11.9054 9.5649 16.7229 1.3945 15.4359-26.179 48.6034-32.7332 68.0768-13.4526 8.5205 8.4362 7.7157 12.308-3.818 18.3688-14.7096 7.7297-20.0212 14.7276-23.0542 30.3734-3.7121 19.1495-3.6826 19.2111 10.5347 22.029 44.096 8.74 63.5075 18.18 62.0327 30.1674-3.8447 31.2505-34.4031 69.0835-61.2858 75.8753-3.6655.9261-4.5873 1.734-6.672 5.848-1.3304 2.6254-3.129 5.3628-3.9969 6.083-3.0602 2.5398-1.8452 4.724 3.9321 7.0689 34.3806 13.954 20.5868 42.6596-27.143 56.4854-7.5851 2.1972-8.3636 2.9291-8.3845 7.883-.1281 30.4688-27.3712 57.8345-56.2444 56.4974-6.5868-.305-7.6432-.0738-11.7382 2.5694-15.1857 9.8016-31.6179 6.067-40.198-9.1362-4.3856-7.7707-11.1891-5.466-19.7057 6.6751-5.0252 7.164-5.0305 7.5698-.2067 15.8473C1303.4519 651.59 1228.2749 766.6167 1129 754.3863zm38.5-20.7305c111.5853-28.2533 110.0162-191.8488-2.0555-214.3111-71.3253-14.2956-135.0212 40.7309-132.1406 114.1553 2.7547 70.2167 66.0039 117.422 134.1961 100.1558zm-62.1119-46.6452c-7.3228-2.9264-7.7841-8.4096-2.3881-28.3869 2.2-8.1448 4-15.351 4-16.0135 0-.6626-5.6099-6.3413-12.4665-12.6194-21.8975-20.05-19.8569-25.2727 10.9665-28.0673 16.5849-1.5036 15.4507-.6525 21.5418-16.1647 8.6709-22.0819 10.9871-24.8637 17.7783-21.3518 3.1865 1.6478 3.0955 1.4555 10.6914 22.593 4.895 13.6217 3.5294 12.6983 21.5003 14.5365C1199.222 603.8082 1204 605.591 1204 611.6068c0 3.9244-.8873 4.956-14.5633 16.9302-7.3902 6.4706-13.4367 12.3498-13.4367 13.065 0 .715 2.0343 9.5313 4.5208 19.5918 4.9989 20.2266 4.9446 22.48-.612 25.3534-4.1026 2.1215-3.6021 2.3444-20.517-9.1364-18.234-12.3763-15.0846-12.364-33.529-.132-15.3336 10.169-17.1821 11.0476-20.4747 9.7318zm-829.3196-21.606C295.0808 659.8204 309 640.59 309 619.9076c0-46.054-58.2626-63.9-83.1843-25.4797-23.3535 36.0025 9.8178 82.8534 50.2528 70.9767zm-14.4336-16.4772c-4.1996-3.3034-2.206-11.9459 3.4545-14.9752 5.4622-2.9233 2.2303-3.9522-12.415-3.9522C236.568 630 234 628.9407 234 622.2963c0-6.926 2.0245-7.7718 19.1614-8.0055 8.4362-.115 15.5448-.2275 15.7968-.25.252-.0225-1.4057-1.9533-3.6839-4.2908-5.2582-5.3952-6.0847-8.45-3.2582-12.0433 4.1452-5.2698 6.9055-4.0736 19.677 8.527 15.7357 15.5252 15.7282 15.0797.532 31.439-12.701 13.6731-15.5417 15.2259-20.5902 11.2547zm294.9704 12.915c31.8518-11.7155 40.6138-52.89 16.6102-78.0553-24.796-25.996-69.4243-12.0952-77.0904 24.0121-7.4464 35.0727 27.4001 66.2105 60.4802 54.0432zm-18.431-16.1568c-3.5406-3.7688-.909-10.8436 5.574-14.9853 4.5929-2.9342 1.2779-4.007-10.5453-3.4125-17.5988.8849-22.203-.7335-22.203-7.8046 0-6.4797 2.6347-7.4832 19.6478-7.4832 17.7337 0 17.5323.1064 11.822-6.2447-8.608-9.5742-2.7152-19.8643 7.1614-12.5053 5.7666 4.2966 19.9939 19.4307 21.3545 22.7155 4.2937 10.366-25.5761 37.4216-32.8114 29.72zM856 628.381c46.8088-22.1505 28.823-94.9144-22.5-91.026-38.3651 2.9067-55.957 52.281-28.785 80.7896 13.1267 13.7723 34.7094 18.0802 51.285 10.2364zm-20.5-11.576c-4.9806-2.8244-4.6812-6.628 1-12.7016 5.978-6.391 6.4233-6.1035-9.453-6.1035-18.9438 0-23.4097-2.5098-19.3262-10.8612C809.5 583.5 809.5 583.5 825.75 583.2252c18.5459-.3136 18.6538-.3829 11.25-7.2252-9.8545-9.1072-3.0505-19.967 7.6-12.1303 24.0927 17.728 26.0307 25.2505 10.7269 41.6389-11.5988 12.4208-14.714 14.1958-19.8269 11.2965zm411.4877-74.9955c3.8807-5.718 10.9836-11.7479 18.0655-15.3366 5.4433-2.7583 10.7524-12.6445 7.8516-14.6205-7.772-5.2942-32.6993 8.1838-39.8512 21.5473-3.9096 7.3053 9.2807 15.2662 13.9341 8.4098zm56.8968 2.2493c17.8579-9.1104 15.3905-36.5589-3.2863-36.5589-10.8776 0-21.0982 10.2144-21.0982 21.0854 0 12.716 13.2763 21.1405 24.3845 15.4735zm38.6573-7.9317c22.2344-10.4047 39.9572-49.464 20.9057-46.074-9.1903 1.6353-9.172 1.6237-9.8637 6.2366-1.8705 12.473-13.5205 24.603-23.7114 24.6882-3.5216.0294-4.4849 1.5065-5.2321 8.022-.3469 3.025-.9231 6.8044-1.2805 8.3986-.9109 4.0637 9.2154 3.3926 19.182-1.2714zm19.5624-56.1355c40.3606-6.0506 74.1694-25.8648 61.8015-36.2198-15.2287-12.75-34.834-14.0564-37.7403-2.5147-2.9133 11.5698-31.9892 22.0215-45.5268 16.3652-3.9745-1.6607-9.7916-.9168-22.0349 2.8176-4.6161 1.408-9.4754 2.56-10.7983 2.56-7.7458 0-4.6689 9.8681 4.593 14.7304 8.8551 4.6486 27.9784 5.5186 49.7058 2.2614zm-74.3148-27.001c9.425-.9794 21.4312-2.751 23.9482-3.5336 3.8239-1.189-14.6205-24.9772-19.2558-24.8347-2.19.0673-13.4318.6086-24.9818 1.203-59.5249 3.0632-126.0867-10.4471-166.5648-33.8084-13.5444-7.817-12.0001-2.9454 5.5018 17.3558 11.1595 12.9443 34.0186 25.3798 28.1052 15.2893-5.2331-8.9295-4.4522-9.1198 12.7981-3.1186 21.5624 7.5014 51.6557 12.768 79.6597 13.9412 20.0583.8403 20.316.8988 23.2889 5.2886 9.2086 13.5973 12.84 14.7804 37.5005 12.2175zm-26.695-8.0191c-5.6857-7.8489-4.4956-8.9716 9.5094-8.9716 9.1428 0 15.3962 4.1138 15.3962 10.1284 0 4.3845-21.6189 3.3803-24.9056-1.1568zm73.0948-.4716c-2.6818-17.2553-1.4334-18.7872 24.4809-30.0417 22.5038-9.7734 55.1758-26.5203 66.4153-34.0428 12.231-8.1862 15.3783-7.6535 9.0023 1.5235-7.1823 10.3375-9.1278 16.7871-4.5373 15.0418 15.4345-5.8681 34.7901-31.309 42.9838-56.4973 4.7646-14.6472 1.132-13.1167-34.5342 14.5498-19.4371 15.0775-51.2074 32.63-84.4025 46.631-3.2464 1.3691-6.8464 3.0871-8 3.8177-4.9983 3.1651-23.7372 10.4689-30.851 12.0246-9.0913 1.9883-9.5283 2.4105-6.3755 6.1587 1.3115 1.5591 5.1833 7.4683 8.6042 13.1317 6.227 10.3088 18.4704 15.7876 17.214 7.703zm21.2531-7.0674c29.8261-8.6469 51.5577-21.1664 51.5577-29.7022 0-5.4424-.3735-5.3658-20.1296 4.1322-10.1037 4.8574-21.9704 10.2733-26.3704 12.0352-16.9345 6.781-21.1156 10.2457-17.5496 14.5424 1.692 2.0387 2.0966 2.0061 12.4919-1.0076zm-73.7196-21.524c14.6941-1.4188 47.3148-10.8556 51.6615-14.9451.4982-.4687-.6914-2.6728-2.7248-5.0483-1.9849-2.319-4.3565-6.1735-5.27-8.5657-1.9568-5.1238-1.0529-5.0145-18.2177-2.2036-15.0753 2.4687-11.7931.5912-34.55 19.7636-17.1118 14.4165-17.7911 13.5956 9.101 10.999zm-24.9958-6.1586c4.9664-3.9875 12.4595-9.8995 16.6514-13.1378 11.079-8.5586 10.8948-8.7447-7.3783-7.4573-37.0198 2.6083-79.1663-4.733-98.779-17.2056-3.3771-2.1477-36.221 17.8192-36.221 22.02 0 6.027 58.6951 20.2112 92.5 22.3534 22.5482 1.4288 23.4942 1.2417 33.2269-6.5727zm-128.8554-23.3818c7.1912-6.1388 20.2809-15.1887 29.427-20.3449 5.9829-3.373 6.8834-8.2124 3.726-20.0233-1.1955-4.4718-4.3944-3.2294-5.1497 2-1.4174 9.8133-2.7931 12.9283-7.082 16.0351-11.2708 8.1645-24.3159 5.4602-31.321-6.493-3.9713-6.7766-12.0981-3.3334-22.2623 9.4322-5.4983 6.9056-5.445 7.127 3.0405 12.6334 21.0703 13.6727 21.4287 13.7545 29.6215 6.7605zm224.4933-1.4634c4.4743-3.9023 14.0486-11.5495 21.276-16.9936 14.0821-10.6075 18.521-14.9694 20.8109-20.45 5.4855-13.1284 3.3129-27.9262-7.2118-49.1212-5.9307-11.9436-2.1701-13.3576 6.7487-2.5376 4.1799 5.071 3.7924 2.0022-.7356-5.8251-11.95-20.6574-37.321-36.2586-43.7882-26.9265-30.6467 44.2233-130.4436 57.625-175.4129 23.5562-7.2113-5.4634-7.2113-5.4634-11.3816-4.199-24.5021 7.4287-43.1061 32.3298-41.3689 55.3716 2.1102 27.9892 26.6986 29.1823 26.6986 1.2954 0-9.1584 2.7255-11.4385 8.3679-7.0003 3.1135 2.4491 3.211 2.2738 4.0792-7.3359.7186-7.953 1.6374-10.672 5.1728-15.3071 4.7222-6.191 4.8801-5.4526 4.8801 22.8181 0 36.338-.4242 35.6854 27.7755 42.7331 32.1095 8.025 71.0145 8.3926 106.0708 1.0025 16.6035-3.5001 15.0544-2.27 15.8096-12.554 1.0548-14.363 2.4848-17.512 13.3863-29.4783 8.6429-9.487 11.4037-14.4851 11.4358-20.7031.025-4.8152 1.5578-5.5267 4.617-2.143 4.9882 5.5174 2.0361 14.7106-8.5895 26.7492-22.7607 25.7874-12.5854 67.932 11.3593 47.0486zm46.5473-14.5456c8.0998-4.6622 18.3739-11.5839 26.5879-17.9121 4.4-3.39 13.85-10.0098 21-14.711 21.436-14.094 21.3358-13.448 2.8453-18.353-42.7519-11.341-45.4593-10.7544-43.4369 9.4123 1.6583 16.5356-.6103 22.6996-12.8638 34.953-8.6399 8.64-8.6335 8.1998-.1325 9.1018.7767.0824 3.4767-1.0386 6-2.491zm-130.5779-73.8584C1306.9798 291.4348 1345 267.398 1345 248.032c0-4.3608-2.3249-5.7345-3.4904-2.0623-1.9674 6.1986-22.4976 21.3303-36.5096 26.9092-36.9157 14.6981-74.8943 15.7268-114.3231 3.0966-13.9989-4.4843-16.6316-4.0932-13.0669 1.9413 8.6796 14.6934 52.277 23.6239 90.7242 18.5839zm134.234-18.2508c4.0788-18.4992 9.903-27.044 23.2381-34.0935 7.807-4.1271 7.7595-5.6236-.3063-9.6565-16.8659-8.433-36.8269-1.5406-45.4365 15.6888-3.947 7.8987-3.9166 8.1282 1.5801 11.91 5.5257 3.8018 11.6871 9.972 15.1296 15.1512 2.9526 4.4421 4.9597 4.7885 5.795 1zm-131.9556-2.7763c29.9706-4.713 84.9744-39.4737 62.4613-39.4737-.9247 0-3.9747-1.143-6.778-2.5398-37.0387-18.4572-29.6833-101.1238 8.9541-100.6332 11.2725.1432-16.146-29.492-34.2451-37.0137-4.9792-2.0693-4.9792-2.0693-9.122 1.6736-16.8201 15.1958-74.9717 17.0895-91.7315 2.987-8.8957-7.4852-48.1509 27.3877-48.1513 42.7761-.0001 2.3546-.4504 2.6626 8.0431-5.5004 8.8791-8.5335 18.5285-13.7017 30.4863-16.3284 100.6878-22.1177 140.5668 120.9078 42.9705 154.113-8.0294 2.7318 19.6424 2.6868 37.1126-.0605zm-39.0294-7.2646c61.8543-19.571 68.3443-104.852 10.1665-133.5894-49.1372-24.2717-100.1871 9.6915-97.4332 64.8216 2.4734 49.5164 44.1969 82.3953 87.2667 68.7678zm-34.4809-13.7922c-25.8899-6.962-44.2672-39.0135-38.5354-67.209 10.4119-51.2176 77.8903-60.5291 100.9225-13.9266 21.8419 44.1942-16.1282 93.575-62.3871 81.1356zm29.9485-24.0735c10.4807-4.7321 14.4604-11.0922 8.8902-14.208-2.3961-1.3403-2.8965-1.1992-7.8622 2.2166-6.0197 4.1409-6.9187 4.2923-11.7817 1.9847-2.8835-1.3683-4.0756-1.457-6.7221-.5-5.2136 1.8853-9.7529 1.4065-13.9951-1.4762-5.5956-3.8023-13.0168-.5446-9.9995 4.3895 5.5886 9.1387 28.6825 13.3673 41.4704 7.5934zm-48.0128-35.281c.9654-9.4733 10.0016-11.1257 13.1549-2.4055 2.1662 5.9904 4.826 3.7733 4.7851-3.9887-.04-7.672-5.2716-15.6682-10.2502-15.6682-8.1114 0-15.5304 15.8196-11.7262 25.004 1.8082 4.3654 3.4108 3.1975 4.0364-2.9415zm64.7696-4.3823c1.3927-21.872-20.5801-24.3994-23.3004-2.6801-.9076 7.2462.7959 8.3361 5.0794 3.25 5.597-6.6458 13.4134-4.2928 13.4134 4.0379 0 8.3106 4.2441 4.243 4.8076-4.6078zM1347.5 225.1343c25.8388-11.7678 24.2813-72.2153-2.1152-82.0915-15.1829-5.6807-26.9575 3.2367-32.4067 24.5426-8.7296 34.1325 11.5839 67.9957 34.5219 57.549zm-7.7741-16.8985c-9.2892-9.6958-8.6286-40.661 1.0296-48.258 9.7215-7.647 18.5812 4.2848 18.5797 25.0222 0 20.1459-10.5708 32.67-19.6093 23.2358zM1137 220.16c0-1.012-.9578-5.3996-2.1285-9.75-4.2983-15.9737-2.6824-36.2208 4.576-57.3351 3.4792-10.1208 2.5664-10.9183-4.3781-3.8249-16.1214 16.4672-17.4133 51.9267-2.5359 69.6074 2.9971 3.5619 4.4665 3.9904 4.4665 1.3026zm239-55.5c0-20.9741-14.0169-43.9462-28.7508-47.1192-4.8878-1.0526-5.2276 1.4982-.8767 6.5813 1.9626 2.2929 4.0989 5.791 4.7473 7.7734.73 2.232 3.5129 5.7505 7.3087 9.2407 6.8317 6.2817 10.5821 12.4205 13.0516 21.3638 2.3463 8.4968 2.3476 8.5 3.4885 8.5.6001 0 1.0314-2.6514 1.0314-6.34zm-384.1188-60.7684c6.9741-2.4312 8.1554-13.6438 1.7583-16.691-4.2427-2.0211-5.8049-2.1583-9.0647-.7963-12.9163 5.3968-5.936 22.1036 7.3064 17.4873zm263.6188-2.9353c18.8081-1.6036 29.8896-5.6543 32.4627-11.8663 1.3812-3.3345 1.9309-18.194.8189-22.138-4.1566-14.7435-80.7296-12.8893-84.8886 2.0555-5.8776 21.1204 2.22 29.8708 29.607 31.9936 4.95.3836 9.225.7607 9.5.838.275.0771 5.9-.3201 12.5-.8828zM1232 77.4004c-34.6311-4.0279-16.686-17.7586 21-16.0681 18.2411.8182 27.2378 4.1923 25.5296 9.5745-1.4133 4.4528-29.8978 8.428-46.5296 6.4936zM78.5596 532.948c-9.6064-1.6268-17.7339-9.9527-19.5834-20.0614-2.045-11.1775-.8121-225.6404 1.3245-230.3866 2.4984-5.55 7.2981-10.3182 13.1993-13.1127 6.4604-3.0593 291.0694-3.8618 299.6205-.8448 5.1561 1.8192 10.2064 6.3882 13.2171 11.9575 3.0455 5.6335 3.4664 233.6175.4416 239.1439-2.3901 4.3667-7.2505 9.027-12.1448 11.6447-4.349 2.3261-282.9183 3.8874-296.0748 1.6594zm218.6332-66.7878c7.1226-7.638 3.307-18.1756-7.3247-20.2293-5.9397-1.1474-70.371-1.1133-75.3681.0399-12.7508 2.9424-12.5515 22.2741.2509 24.3402 17.9623 2.8987 78.7207-.1603 82.442-4.1508zm-153.6936-7.4307c4.4005-4.5487 16.1008-16.9363 26.0008-27.5279 34.1094-36.4921 34.5446-31.4628-6.3336-73.2016-30.1265-30.7608-34.2834-33.1487-42.2274-24.2577-7.3497 8.2257-5.8267 12.4975 10.4082 29.1955 38.839 39.947 36.451 33.178 18.4028 52.1612-32.5208 34.2054-32.75 34.478-32.75 38.9492 0 15.5344 13.6648 17.9484 26.4992 4.6813zM551.5 506.6705c-10.45-5.6738-31.15-16.9878-46-25.1422-14.85-8.1544-33.525-18.3077-41.5-22.5628-19.6248-10.471-23.2063-12.8776-25.2484-16.9655-2.3865-4.777-2.6226-115.767-.2606-122.5 2.1857-6.2308 3.542-6.9484 48.509-25.6667 7.975-3.3197 24.4-10.204 36.5-15.2986 59.8203-25.1864 42.1813-25.874 115 4.4832 21.45 8.9422 44.9486 18.6261 52.219 21.5197 16.0863 6.4022 19.5921 8.491 21.6973 12.9273 2.7657 5.8282 1.9184 123.2891-.9163 127.027-1.6912 2.23-93.6547 52.7966-124.7278 68.5823-11.8415 6.0156-12.6782 5.8637-35.2722-6.4037zm16.5-63.6614c0-53.9909 0-53.9909-10.25-59.1145-5.6375-2.818-18.6103-9.572-28.8285-15.009-10.2182-5.4371-19.1057-9.8856-19.75-9.8856-1.7526 0-1.6757 102.9565.0785 105.2569.6875.9015 8 5.4387 16.25 10.0825 8.25 4.644 20.625 11.6354 27.5 15.5367 6.875 3.9013 13.0625 7.1002 13.75 7.1086.9847.0121 1.25-11.4414 1.25-53.9756zM615.9988 480c10.5255-5.4727 22.1896-114 12.2523-114-29.8239 0-44.7622 25.115-45.011 75.6744-.3087 62.7263-1.5782 56.663 10.4939 50.1186 5.37-2.9111 15.3892-8.218 22.2648-11.793Zm49.896-27.3968c11.3328-6.2683 22.824-12.5051 25.536-13.8597 4.9306-2.4628 4.9306-2.4628 4.667-54.8527-.3074-61.0994 1.1532-54.2714-10.2956-48.1288-5.1162 2.745-16.5022 8.7277-25.3022 13.295-8.8 4.5672-16.3306 8.7853-16.7347 9.3735-.9167 1.3345-1.0133 103.9882-.0986 104.9028 1.0333 1.0333.4573 1.3114 22.2281-10.7301zm-172.136-48.2734c.2418-48.5658.1426-52.1055-1.5-53.542-3.1546-2.7589-36.7077-19.8295-38.0006-19.3334-1.4894.5715-1.8424 100.0752-.3633 102.4098 1.1288 1.7817 37.3004 23.085 38.6051 22.7365.6462-.1726 1.0916-18.6665 1.2588-52.271zM597.5 364.2056c20.3712-10.385 22.3162-11.7334 19.3848-13.4384-4.6829-2.7237-103.1765-49.7641-104.168-49.7505-2.2358.0307-42.0514 17.4872-42.422 18.5992-.201.6027 8.988 5.8552 20.4199 11.6721 11.432 5.817 34.9603 18.0288 52.2853 27.1373 17.325 9.1086 31.95 16.5441 32.5 16.5235.55-.0206 10.45-4.855 22-10.7432zm62.9326-32.3085c26.6532-13.659 27.701-10.7042-9.3478-26.3615-15.8237-6.6873-12.4443-7.1319-37.4919 4.9322-23.5453 11.3406-23.6297 9.3676.941 22.0034 24.5004 12.5996 20.0845 12.6549 45.8987-.5741zm-68.652-27.9992c9.1957-4.4562 18.2456-8.7639 20.111-9.5726 4.7176-2.0454 3.8-2.6927-16.6063-11.7145-21.2833-9.4096-18.3205-9.71-51.765 5.2503-11.7042 5.2356-12.3272 4.2905 9.7445 14.7828 23.2966 11.0746 18.568 10.9206 38.5158 1.254zm282.3488 171.1709c-5.7428-1.4747-7.0182-3.665-8.9665-15.398-2.1534-12.9681-2.3033-13.1352-14.4826-16.1511-5.313-1.3156-10.6646-3.0957-11.8926-3.9558-3.2712-2.2913-4.6527-1.9862-11.2877 2.4929-16.9545 11.4454-18.385 11.1388-38.75-8.3043-13.9115-13.2818-14.0495-14.8511-2.9022-33.0201 4.065-6.6256 5.1764-10.9814 3.1253-12.249-1.577-.9746-8.5069-15.2803-10.5422-21.7625-2.0358-6.484-1.6611-6.2889-13.7307-7.1484-14.4387-1.0282-15.523-3.7328-14.0526-35.0514.8364-17.814 1.6343-18.9583 13.9234-19.969 12.5433-1.0318 11.9904-.715 14.4868-8.3006 2.5367-7.7078 6.4554-15.72 10.883-22.2515 3.5092-5.1765 3.6905-6.2358 1.3908-8.1276-.9177-.7548-3.9998-4.5224-6.8493-8.3724-11.5847-15.6524-11.5435-17.278.7677-30.2307 19.4228-20.4348 20.4186-20.624 38.75-7.3592 3.575 2.587 7.0048 5.0063 7.6217 5.3764.6169.3701 4.4419-1.0705 8.5-3.2012 4.058-2.1308 10.7533-4.8614 14.8783-6.068 9.66-2.8255 9.8011-2.9946 11.3926-13.648 2.3257-15.5689 2.5236-15.699 24.6074-16.191 24.838-.5534 26.0802.1332 28.6038 15.8107 1.8679 11.6041.9078 10.3793 10.5926 13.5144 4.4906 1.4537 11.4311 4.4358 15.4234 6.627 8.2088 4.5051 7.658 4.5873 17.7394-2.6446 9.5344-6.8395 11.7558-6.0086 27.3838 10.2429 16.9202 17.5952 16.9249 17.6296 4.4933 33.0876-5.0797 6.3164-5.0797 6.3164.7425 17.5 3.2022 6.151 6.5403 13.7224 7.4181 16.8253 1.8265 6.4567 1.8856 6.4938 11.7508 7.3707 16.646 1.4796 16.8523 1.8273 16.8523 28.4085 0 25.3968.05 25.3073-15.1925 27.1488-11.2098 1.3543-11.1125 1.2836-13.7609 10.003-1.1629 3.8286-3.8647 10.2844-6.0038 14.3462-4.1823 7.9412-3.8897 9.7959 3.1196 19.7732 7.5214 10.7063 6.6272 13.9658-7.9492 28.9765-16.933 17.4374-17.4419 17.5676-32.7132 8.3702-9-5.4204-9-5.4204-21.5-1.375-18.8174 6.0898-17.2196 4.6919-19.2034 16.8003-1.9304 11.7825-3.0592 15.0944-5.7081 16.7487-2.3204 1.4491-34.2665 2.5611-38.959 1.3561zm79.8088-56.9325c11.7593-8.4876 6.787-26.1363-7.3636-26.1363-5.08 0-7.9251-1.9064-11.679-7.8256-5.5162-8.6981-4.3248-12.0528 7.6044-21.4125 3.85-3.0207 7.8572-6.4529 8.905-7.627 1.4723-1.65 3.0623-2.1358 7-2.1386 15.3593-.0113 20.605-20.7404 7.3541-29.0611-9.9424-6.2432-22.6958 2.7634-22.7476 16.0648-.0453 11.6331-12.2812 19.4881-24.001 15.4078-12.5655-4.3747-21.7748 2.1025-24.1976 17.0189-.5154 3.1732-14.1672 6.1938-18.5968 4.1147-1.9649-.9223-6.0552-1.5414-10.183-1.5414-6.8992 0-6.8992 0-10.7162-4.7431-2.0993-2.6088-6.2213-7.6142-9.16-11.1232-4.4756-5.3443-5.2323-6.8064-4.6614-9.0068 1.8058-6.96 1.6595-10.8957-.5999-16.148-3.5611-8.278 7.8117-28.9748 15.9268-28.9845 16.9498-.0202 27.5813-15.5344 20.3328-29.6709-11.4124-22.257-44.2527-9.0584-37.6993 15.1515.954 3.5243 1.5396 6.7717 1.3013 7.2164-8.6083 16.0663-16.4417 27.3775-19.6886 28.4297-18.8037 6.0938-16.4603 28.6567 3.4458 33.1776C833.239 361.2802 851 382.3642 851 390.7396c0 18.0123 24.348 21.5772 29.3852 4.3024 2.0442-7.0106 12.9822-10.346 21.192-6.4621 3.6716 1.7369 7.9012 2.7618 12.9843 3.1462 6.5768.4974 8.1068 1.0038 11.9887 3.9678 4.693 3.5835 4.7408 3.685 4.4741 9.502-.5486 11.9646 13.373 19.8266 22.914 12.9403zm6.904-112.8188c2.1846-3.9036-4.707-19.4131-12.9656-29.1788-14.2268-16.823-42.5018-26.7677-61.1266-21.499-6.8868 1.9482 3.9803 11.2896 15.0473 12.9346 19.9455 2.9648 39.0246 17.3322 44.8168 33.7491 2.0685 5.8628 11.6734 8.559 14.2281 3.994z"
     id="path3858" />
  <path
     fill="#fff"
     d="M455.827 888.2085c-10.896-1.1963-10.1681 2.921-10.6779-60.401-.2463-30.603-.1151-56.9675.2916-58.5879l.7394-2.9462 97.1745-.0184c87.5905-.0166 97.2447.1648 97.887 1.8386 1.0203 2.6587.892 3.087-.641 2.1395-.8616-.5324-1.0345-.32-.4757.584 1.2386 2.0042 1.6841 7.1493.619 7.1493-.4883 0-.4959 1.7378-.0169 3.8616.7553 3.3486.7619 8.354.0135 10.2087-.13.3224-.116 1.1139.0312 1.7587.1473.645.1878 7.768.09 15.829-.0979 8.0611-.1677 15.448-.1553 16.4153.2895 22.554-.0366 52.753-.6019 55.7667-.4074 2.1715-1.5231 4.5976-2.4794 5.3913-1.339 1.1112-21.7292 1.4708-88.6957 1.5643-47.8263.0667-89.7224-.1824-93.1024-.5535zm84.8066-9.24c-.3423-.5538 4.5072-.9465 10.7766-.8727 17.7881.2094 18.7643-.3437 37.6564-21.3345 20.5217-22.8014 23.7833-26.903 23.3711-29.3893-.467-2.8165-35.2254-39.4933-39.522-41.7033-2.3777-1.223-9.675-1.52-32.3063-1.3151l-29.2348.2646-7.9165 8.6924c-4.354 4.7809-12.8093 14.2326-18.7894 21.0039-5.9801 6.7713-11.2907 12.1796-11.8014 12.0183-2.2049-.6961-.5893 2.3151 3.747 6.9842 2.5716 2.7688 4.6821 5.7248 4.6902 6.569.008.8442.4487 1.2665.9794.9386 1.2416-.7674 16.164 16.9512 15.6459 18.5776-.215.6747-.0284.8644.4145.4214.443-.443 3.9328 2.8191 7.755 7.2492 8.018 9.2928 11.0077 10.6512 23.9216 10.8692 4.8942.0826 9.1605.574 9.4806 1.092.32.5178.8457.9416 1.1682.9416.3224 0 .3062-.4532-.0361-1.007zm-83.193-133.9177c-2.367-1.8618-3.0895-3.4697-3.0895-6.8752 0-7.977 8.3299-13.1546 15.226-9.464 2.7962 1.4965 5.0327 8.269 4.0386 12.2298-1.6128 6.4258-10.394 8.6568-16.1751 4.1094zm37.5337-.4452c-3.5094-3.2524-3.966-7.2964-1.3871-12.2836 1.8646-3.6058 3.924-4.774 8.416-4.774 1.897 0 2.6144.4697 2.068 1.3538-.5314.86-.3201 1.0345.5793.4786 2.3497-1.4522 5.9816 3.8998 5.9816 8.8147 0 8.3122-9.437 12.1758-15.6578 6.4105z"
     paint-order="markers fill stroke"
     style="font-variation-settings:&quot;opsz&quot;32,&quot;wght&quot;900"
     id="path3860" />
  <path
     fill="#fff"
     d="M527.7455 864.5517c.5293-.8564.3205-1.0347-.5684-.4854-.7727.4776-2.2616.1634-3.3084-.6982-4.0043-3.2956-23.7838-25.8362-23.3243-26.58.2656-.4301 3.1713-.5992 6.4571-.3758 3.2858.2235 5.71.8338 5.387 1.3563-.323.5226.4317.6837 1.677.358 1.7372-.4543 2.8344.526 4.7154 4.2132 1.3483 2.6429 2.0529 4.8052 1.5656 4.8052-.4872 0 1.108 1.0687 3.5449 2.3747 2.5531 1.3685 5.081 1.9895 5.9655 1.4657 3.559-2.1079 22.9858-25.1269 22.9858-27.2362 0-1.2666-3.1607-6.0767-7.0238-10.689-3.8631-4.6124-6.7051-8.902-6.3155-9.5323.4392-.7107 5.4457-.8496 13.1795-.3657 13.928.8715 16.9188 1.44 15.9367 3.029-.3699.5985.3953 1.0882 1.7005 1.0882 2.7338 0 4.8005 3.222 4.8005 7.484 0 4.1427-24.5236 34.4028-38.8335 47.9175-3.3475 3.1615-10.2773 4.6792-8.5416 1.8708zm413.5213-446.6809c-3.325-.9608-5.9419-3.7666-6.9848-7.4891-1.5338-5.4748-1.7515-7.8886-.6499-7.2078.7719.477.9994-.1316.6083-1.6272-.3436-1.3142-2.925-4.2742-5.7364-6.578-4.411-3.6144-6.3104-4.323-13.8561-5.1692-4.8094-.5394-10.489-1.9007-12.6214-3.0252-3.7941-2.0009-14.3302-3.3382-13.3113-1.6896.2836.459-1.2753 1.482-3.4644 2.2736-3.1345 1.1335-4.5921 2.7763-6.8617 7.7337-1.585 3.462-4.0867 6.9394-5.5594 7.7276-5.9009 3.158-15.9352.6506-18.1141-4.5266-.4587-1.0898-1.0231-4.5167-1.2542-7.6153-.3875-5.1955-1.3044-6.6696-11.7886-18.9522-10.7208-12.5599-11.6708-13.3638-16.6788-14.1148-3.9776-.5965-6.4257-1.9115-9.7538-5.2396-3.9606-3.9607-4.4433-5.0816-4.4433-10.3198 0-4.8694.5843-6.502 3.4088-9.5257 1.8749-2.007 5.0358-3.9745 7.0244-4.3722 2.9713-.5943 4.8021-2.5686 10.273-11.0783 3.6616-5.6954 7.09-10.0879 7.6187-9.7611.5287.3267.6522-.2114.2744-1.1959-.3778-.9844.421-3.5824 1.775-5.7734 2.349-3.8007 2.375-4.1918.565-8.5236-1.5623-3.7392-1.6692-5.5264-.6063-10.1315 1.7136-7.4237 4.2709-11.0846 9.665-13.8365 4.764-2.4304 12.1545-3.042 13.3517-1.105.3985.6449 1.65 1.1725 2.781 1.1725 2.5806 0 7.809 5.3909 9.4558 9.7496 4.7767 12.6426-4.6825 25.081-19.272 25.3417-5.821.104-5.8929.1524-10.1541 6.8365-2.3604 3.7025-5.5439 9.37-7.0745 12.5944-2.7296 5.7503-2.7446 5.9636-.7792 11.1389 1.2034 3.169 1.7913 7.1495 1.472 9.9664-1.4398 12.7014-1.0608 15.6537 2.1725 16.9215 1.451.569 5.0125 3.7816 7.9145 7.1393 2.902 3.3577 5.9736 6.8364 6.8257 7.7304.9958 1.0447 4.1497 1.6256 8.8262 1.6256 4.6651 0 8.205.6502 9.8634 1.8118 2.333 1.634 3.1102 1.634 7.9232 0 2.9351-.9965 6.3302-1.8118 7.5447-1.8118 4.4543 0 5.9176-1.345 5.9176-5.4395 0-6.7974 2.9098-12.0117 7.8723-14.107 3.7848-1.598 5.476-1.6672 11.4742-.4696 13.4334 2.682 15.304 2.2534 22.9252-5.2532 4.935-4.8608 5.7555-6.2743 5.1753-8.9158-1.5612-7.1081 4.0329-17.0455 10.731-19.0627 1.3657-.4113 3.8382-.2327 5.4942.397 3.94 1.498 9.1123 6.031 8.3285 7.2992-.3385.5477-.0568.9959.6262.9959 1.4037 0 1.7163 8.5147.3624 9.8687-.4837.4836-.8794 1.3122-.8794 1.8412 0 .529-1.5402 2.3892-3.4227 4.1339-2.8328 2.6252-4.1892 3.0693-7.8687 2.5757-2.9777-.3994-4.8921-.0586-5.7971 1.0318-.7432.8955-1.8191 1.339-2.391.9856-.5718-.3534-1.0396.0674-1.0396.9352 0 1.8212-11.3158 10.6278-12.035 9.3663-.2631-.4616-.3412-.2412-.1735.4897.3628 1.5817-7.3162 8.6548-8.3135 7.6575-.3797-.3797-.5607 1.2343-.4023 3.5866.1584 2.3524.7101 4.0161 1.226 3.6973.516-.3188.938-.01.938.6872 0 2.1913 5.9692 10.3969 9.0153 12.3927 1.6047 1.0515 4.8759 2.0512 7.2693 2.2217 2.91.2073 5.4268 1.385 7.597 3.5553 6.1952 6.1951 6.4214 12.1943.6677 17.7067-2.7098 2.5962-3.6872 2.946-5.056 1.81-1.3207-1.096-1.89-1.0955-2.5686.002-.5527.8943-.3763 1.1045.482.574.7444-.4601 1.3536-.2778 1.3536.4051 0 1.4673-2.665 1.446-7.8874-.063zM952.443 304.619c-2.3723-.3706-2.9835-.9874-2.4514-2.4739.3898-1.0891.2835-1.595-.2363-1.1242-.9118.8258-7.0466-10.5003-6.6559-12.288.1057-.4837-.2035-.7723-.6872-.6413-.4836.131-4.1885-3.0231-8.233-7.009-4.0444-3.986-7.6115-7.2483-7.9267-7.2496-.3153-.001-2.1096-.7968-3.9873-1.7678-5.114-2.6445-12.914-5.1104-18.8393-5.956-9.5436-1.3617-16.869-6.3339-14.6415-9.938 2.0265-3.279 23.8183-.293 32.8156 4.4965 1.9347 1.0298 3.9697 1.7452 4.5223 1.5896.5526-.1556 3.4546 1.3231 6.4489 3.286 6.9189 4.5356 15.3634 12.924 13.034 12.9473-.95.01-.4242.6767 1.1685 1.4826 1.5927.8059 3.7033 3.0406 4.69 4.9659.987 1.9253 2.0945 3.7644 2.4614 4.0869 1.7078 1.5008 5.9207 11.8967 5.5664 13.736-.4264 2.2144-2.0394 2.6394-7.0486 1.857zm291.784 59.8279c-.5107-.5108-9.0899-.937-19.0647-.9473-14.4438-.015-18.3474-.36-19.1738-1.695-.5707-.9219-1.9196-1.8057-2.9976-1.9639-1.078-.1582-2.0773-.4591-2.2206-.6687-.1434-.2097-1.4298-1.9232-2.8587-3.808-2.0037-2.6428-2.2548-3.6447-1.0976-4.379 1.172-.7437 1.1797-.956.035-.9701-2.3439-.0287-1.6919-4.0027.9248-5.6368 1.3148-.8211 2.1411-1.8966 1.8362-2.39-.3049-.4933-.07-1.6633.5228-2.5998.846-1.3373 1.081-1.1514 1.0951.8662.01 1.4129.4528 2.8377.9842 3.166.5315.3285.9272-.5637.8794-1.9826-.058-1.718.5678-2.5306 1.8724-2.4325 1.3084.0984 1.729-.4523 1.2664-1.658-.4547-1.1847-.2212-1.5139.6789-.9576.7545.4663 1.3718.407 1.3718-.1317 0-.5388 1.9786-.7916 4.397-.5618l4.3969.4178 1.4633-6.2494c1.0722-4.5794 2.4822-7.1027 5.2763-9.4423 4.0151-3.362 7.4196-4.1616 8.1674-1.9181.2575.7722 3.501 1.4386 7.6722 1.5763 7.2102.2379 11.4859 2.1233 10.0573 4.435-.426.6891-.1907.8723.5403.4205 1.6033-.9909 4.1719 3.509 3.0444 5.3334-.5414.876-.2919 1.002.7313.3697 1.1275-.6969 1.3478-.4253.8042.9913-.4118 1.0732-.2377 1.9512.387 1.9512.6246 0 1.1525 2.2424 1.173 4.9832.035 4.705.1365 4.8523 1.8145 2.6381.9857-1.3005 2.8086-2.1796 4.0926-1.9737 1.3847.222 2.187-.2213 1.9961-1.103-.1755-.8107.6667-1.688 1.8716-1.9495 1.4719-.3195 1.9064-.0153 1.3242.9267-.659 1.0662-.2912 1.0942 1.535.117 2.513-1.345 6.5018-.5653 5.4894 1.0729-.3224.5216.9616 1.6336 2.8534 2.471 1.8918.8374 3.1828 1.9382 2.8688 2.4462-.314.508-.029.9237.634.9237.6627 0 .9012.7915.53 1.7588-.3712.9674-.091 1.7588.6231 1.7588 2.0225 0 1.5323 4.1683-1.0796 9.1792-1.9044 3.6538-2.9543 4.4981-5.2763 4.2432-1.5944-.175-2.8988.1031-2.8988.618 0 1.79-12.8681 3.3217-20.5191 2.4422-1.2898-.1482-3.4137.0703-4.7199.4857s-2.7927.3374-3.3035-.1733zm28.5425-21.9459c0-.2534-.8189-.775-1.8197-1.159-1.0435-.4005-1.5141-.204-1.1033.4607.6885 1.1142 2.923 1.648 2.923.6983zm-42.5283-23.698c-.3896-.3896-1.4009-.4312-2.2473-.0925-.9354.3743-.6575.652.7084.7083 1.236.051 1.9285-.2262 1.5389-.6158zm9.8999-127.4193c-.7367-1.79-2.1389-3.5612-3.1159-3.9361-.977-.375-1.7763-1.4167-1.7763-2.315 0-.8984-.5277-1.6334-1.1726-1.6334-.6448 0-1.1725.5277-1.1725 1.1726 0 .6448-.9841 1.1725-2.1869 1.1725s-3.5566 1.0774-5.2307 2.3942l-3.0438 2.3943.3163-4.0165c.174-2.209 1.2395-5.4254 2.3678-7.1474 2.1506-3.2823 6.9088-5.809 7.5843-4.0274.2163.5705.9149.7149 1.5525.3208.6375-.394 2.4176.4659 3.9557 1.9108 2.8109 2.6408 4.7987 10.4195 3.7757 14.7755-.4309 1.835-.7311 1.6625-1.8536-1.065z"
     paint-order="markers fill stroke"
     style="font-variation-settings:&quot;opsz&quot;32,&quot;wght&quot;900"
     id="path3862" />
  <path
     style="font-variation-settings:'opsz' 32, 'wght' 900;fill:#ffffff;stroke:#506690;stroke-width:0;stroke-linecap:round;stroke-linejoin:bevel;paint-order:markers fill stroke"
     d="m 1175.4504,191.93709 c 0,-1.80804 1.3673,-6.03116 3.0384,-9.38471 3.1847,-6.39072 7.1708,-8.7511 10.9202,-6.46624 2.8054,1.70964 5.9703,8.65518 5.9724,13.10656 v 3.93469 l -3.4017,-3.64156 c -1.9596,-2.09774 -4.583,-3.64156 -6.188,-3.64156 -4.0752,0 -7.9981,3.19564 -7.9981,6.51535 0,1.57564 -0.5276,2.86481 -1.1725,2.86481 -0.6449,0 -1.1725,-1.47931 -1.1725,-3.28734 z"
     id="path3987" />
</svg>
