<svg xmlns="http://www.w3.org/2000/svg" viewBox="0 0 1536 1024">
  <path fill="#f3ad1e" d="M322 938c-106.8982-.4972-107.5317-.512-113.1679-2.6454-48.3384-18.2975-43.6178-95.577 6.2615-102.5037 13.0818-1.8167 311.1457-.5088 317.57 1.3935 31.1829 9.2334 45.8783 49.5743 27.7761 76.2493-1.36 2.0041-2.2137 4.0629-1.8972 4.575.353.5711 99.5365.9313 256.4398.9313 255.8642 0 255.8642 0 258.9229 2.5737 6.4497 5.427 6.0055 14.685-.9002 18.7643-3.0397 1.7956-426.9448 2.1693-751.005.662Zm363.2645-45.5356c-13.305-3.5985-23.4696-12.2681-34.9072-29.7732-3.6623-5.6052-8.72-13.3412-11.2395-17.1912-6.1257-9.3608-16.2464-19.2741-23.7109-23.225-12.436-6.5823-3.0082-6.244-174.4468-6.2602-169.9466-.0161-161.6974.2577-171.8755-5.7059-5.7181-3.3504-12.0993-9.7715-15.5323-15.6295-6.0017-10.2412-5.6697.096-5.8836-183.1794-.196-168-.196-168-13.003-186.5-7.0437-10.175-15.774-22.8375-19.4006-28.139-6.186-9.0427-7.0525-9.8749-14.0108-13.4545-47.0903-24.2248-44.7816-93.4086 3.9385-118.0204 6.0878-3.0753 14.7465-9.93 41.5-32.8532 18.594-15.932 46.1822-39.5325 61.3072-52.4458 25.4771-21.7515 65.3066-55.9379 70.588-60.5871 1.402-1.234 2.8875-4.48 3.879-8.4754 11.6114-46.7872 82.8423-47.254 95.5613-.6263 1.6644 6.1017 1.6644 6.1017 11.568 11.6929A345400.254 345400.254 0 0 1 535 147.7362c45.9718 25.9692 42.608 24.3633 48.938 23.3627 8.1859-1.294 15.7698.6018 24.3327 6.0826 4.7706 3.0535 4.7706 3.0535 9.7625-1.6158 10.7898-10.0926 21.7312-12.3823 36.9668-7.7359 5.225 1.5935 20.975 6.3827 35 10.6428 14.025 4.2601 27.3 8.646 29.5 9.7466 20.8947 10.452 17.0424 39.2808-5.249 39.2808-8.1071 0-6.9298.7244-15.6177-9.6101-.7444-.8856-4.679-2.5947-8.7434-3.798-4.0645-1.2034-16.368-5.0619-27.3412-8.5745-10.9732-3.5126-20.3248-6.1558-20.7813-5.8736-.7788.4813-42.3442 55.2315-44.061 58.0373-.5083.8308 1.676 5.1654 6.076 12.058 3.7783 5.9185 11.1104 17.8306 16.2936 26.4713 9.1968 15.3318 9.537 15.749 14.1146 17.3107 5.2964 1.8068 10.321 6.3966 11.308 10.3295 1.2408 4.9436 1.8832 5.1494 16.0746 5.1494 21.4531 0 30.1453 2.8304 39.8106 12.9635C713.1907 354.3418 713.4276 355.488 714 403c.5 41.5.5 41.5 3.5 36.6699 8.4599-13.6208 11.6823-17.8734 19.4912-25.723 69.4214-69.7821 189.4788-20.4033 192.7193 79.2642.5433 16.711.5433 16.711 44.6664 17 54.1465.3545 58.5423 1.6916 67.8732 20.6453 4.7591 9.6672 5.2194 332.6332.4877 342.2681-3.4081 6.94-10.9528 14.1488-18.5197 17.6954-6.8513 3.2112-327.4104 4.7665-338.9536 1.6445zm331.4192-22.4078c8.5412-3.8778 7.7835 11.8029 8.0714-167.0566.2831-175.886.7726-162.4022-6.0773-167.429-3.1596-2.3185-90.7704-3.8784-92.9931-1.6557-.5368.5368-2.7123 5.123-4.8345 10.1916-4.9791 11.8918-14.8036 26.5435-23.7323 35.3931-7.0625 7-7.0625 7-7.0902 57.327-.0374 68.021 2.9631 65.3413-44.9735 40.1639-36.1977-19.0119-29.5088-18.4512-55.3311-4.6382-58.3415 31.2082-53.8338 34.5179-53.6867-39.4183.0952-47.8477-.0102-51.1176-1.7175-53.3115-1.0004-1.2854-3.7897-4.764-6.1984-7.73-2.4088-2.9661-6.4588-8.9734-9-13.3495-4.6205-7.9566-4.6205-7.9566-5.2418 12-1.125 36.1406-.9982 297.3648.1454 299.5017 1.6188 3.0247 295.998 3.036 302.6596.0115zM774.5 785.911c-11.6365-1.3708-15.9207-11.6903-8.1-19.511 3.8707-3.8707 216.3296-5.6596 223.6327-1.883 7.5109 3.884 7.5947 16.401.1366 20.3924-2.0992 1.1235-206.5735 2.073-215.6693 1.0016zm-6.6558-56.166c-6.8928-5.8266-6.3065-16.3861 1.123-20.228 4.6407-2.3998 216.9226-2.2859 220.993.1185 7.8909 4.6613 7.933 16.7827.0726 20.8476-5.6189 2.9056-218.7156 2.1977-222.1886-.738zm149.9115-67.4998c-7.5512-4.682-7.3941-16.074.2841-20.6097 5.7033-3.369 70.0065-2.3288 73.777 1.1934 5.6346 5.2634 5.1855 13.467-1.0232 18.6913-3.8985 3.2804-67.892 3.9156-73.038.725zm4.333-53.1524c-10.9345-1.909-13.9466-16.3693-4.675-22.4443 4.277-2.8025 68.5428-2.4566 73.1547.3937 7.6187 4.7087 6.7205 16.4354-1.6098 21.0161-2.8033 1.5415-58.9872 2.4107-66.8698 1.0345zm-231.3329 8.0793c-.286-282.7272.6163-256.6332-9.0575-261.9232-8.895-4.864-390.9155-2.1941-393.6224 2.7511-1.3547 2.475-5.976 8.088-10.2695 12.4733-8.056 8.2283-13.2731 399.316-5.5097 413.0239 5.53 9.7643-9.4302 8.9387 172.2033 9.5028 161 .5 161 .5 169.4012 3.4325 18.8643 6.5846 32.282 18.7717 49.605 45.0556 14.95 22.6833 20.2005 28.4963 25.7496 28.5082 1.6705.004 1.7434-12.2858 1.5-252.8242zm-104.4692 27.6384c-26.625-24.2826-29.6074-28.8526-24.401-37.3905 5.9476-9.7532 13.8573-8.4704 25.7081 4.1693 9.8865 10.5445 7.9302 12.1875 37.2047-31.2464 8.2783-12.2822 18.8764-14.8737 24.6695-6.0322 4.889 7.4616 4.4514 8.349-21.4436 43.4803-28.1752 38.2248-28.9217 38.708-41.7377 27.0195zm-272.3933 2.6926c-8.8015-4.7839-7.7746-18.9363 1.6335-22.5133 4.3972-1.6718 166.7622-1.318 170.7553.3722 9.9548 4.2134 10.0972 18.0746.2281 22.1982-5.1043 2.1327-168.6876 2.0786-172.617-.0571zm-.6239-50.715c-6.2663-3.024-7.4082-13.4955-2.0555-18.8482 4.6058-4.6057 218.7686-4.6551 223.1792-.0515 5.0879 5.3106 4.298 14.4128-1.6099 18.5509-2.7848 1.9505-215.4944 2.2886-219.5138.3488zm4.0822-64.8806c-10.3659-3.0029-10.5395-4.1976-10.1603-69.9075.4135-71.6647-8.8258-63 67.1782-63 75.2181 0 66.617-8.8563 66.625 68.6021.006 62.04.332 59.453-8.0144 63.6464-3.9036 1.9612-109.0645 2.5606-115.6285.659zM363.8 508.8c1.7213-1.7213 1.6762-30.1854-.05-31.5255-1.7031-1.3221-30.9012-1.3748-32.5-.0587-.9007.7415-1.25 5.3034-1.25 16.3233 0 11.2997.3265 15.426 1.25 15.7986 2.8004 1.13 31.354.6583 32.55-.5377zm53.6182.593c2.0917-.8027 2.408-31.889.3318-32.6177-1.0846-.3807-15.1174-.3367-28.5.0894-3.904.1243-7.087 28.965-3.5833 32.4686.8332.8333 29.5947.8873 31.7515.0597zM363.8 453.8c1.6775-1.6775 1.6775-30.9225 0-32.6-1.6775-1.6775-30.9225-1.6775-32.6 0-1.6775 1.6775-1.6775 30.9225 0 32.6 1.6775 1.6775 30.9225 1.6775 32.6 0zm53.6182.593c2.3755-.9116 2.3755-32.8744 0-33.786-2.0604-.7907-28.776-.7907-30.8364 0-2.0926.803-2.4082 32.8929-.3318 33.7307 1.8041.728 29.2881.7768 31.1682.0553zm58.4633 40.104c-7.4778-4.0638-7.2297-16.6168.4237-21.4442 3.1029-1.9572 119.1459-1.4586 122.1731.525 6.4614 4.2336 6.9219 14.1077.9042 19.3912-3.9848 3.4987-117.295 4.9005-123.501 1.528zm-1.4026-53.8181c-5.9996-5.9996-5.2796-15.6621 1.4253-19.1293 7.1549-3.7 169.7514-1.6192 173.178 2.2162 4.6995 5.26 3.5527 14.5748-2.299 18.6735-5.3569 3.752-168.4582 2.0857-172.3043-1.7604zm125.0253-112.6857c.3423-.5538-.2506-2.2413-1.3174-3.75-4.8375-6.8415-27.7647-43.3423-30.5279-48.6014-5.7807-11.0024-4.9436-20.4348 2.9533-33.2778 5.1698-8.4078 5.2014-8.6179 1.6378-10.8784-7.5928-4.8166-11.8412-11.1337-13.7705-20.4763-1.1339-5.4906-1.1339-5.4906-10.5567-10.8802-5.1825-2.9643-22.0228-12.6814-37.4228-21.5935-15.4-8.9122-30.5277-17.6274-33.617-19.3671-5.6171-3.1631-5.6171-3.1631-11.5 2.416-8.5408 8.0998-19.2036 13.0104-31.383 14.453-9.0386 1.0706-9.6943 1.3134-13.5 4.998-2.2 2.1301-7.8841 7.606-12.6314 12.1687-4.7472 4.5627-25.4104 25.6208-45.9182 46.7958s-44.2632 45.5572-52.7897 54.1827c-15.3986 15.5772-18.4335 23.8616-12.4802 34.0673.693 1.1878 302.0888.9322 302.8237-.2568zM1149.5 490.3297c-92.5214-7.7275-146.2785-33.25-170.249-80.8297-6.947-13.7892-6.4332-18.4525 2.971-26.9628 6.057-5.4812 6.193-5.7182 6.8335-11.9073 1.1885-11.4827 11.3643-27.0759 20.0048-30.6549 3.4941-1.4473 3.6045-2.2326.8566-6.0917-3.9082-5.4886-6.0815-13.8567-6.9816-26.8833-.9954-14.4035-1.3771-15.9633-6.2952-25.725-8.75-17.3674.4014-25.8893 22.2668-20.7352 17.8524 4.208 29.9477 16.3267 33.4546 33.519 1.563 7.6626.8525 7.566 12.3477 1.6786 13.0846-6.7013 13.5806-8.3634 5.1833-17.3712-26.8223-28.7722-29.6302-76.961-6.1831-106.115 2.764-3.4367 6.748-9.194 8.8532-12.7937 10.121-17.3062 28.758-32.0529 50.4374-39.9091 8.5-3.0803 8.5-3.0803 9-13.7475.9232-19.6953 11.7794-25.3009 49-25.3009 38.7435 0 49.6988 5.8786 49.2948 26.4515-.2311 11.7662-.194 11.8488 7.0179 15.6092 16.3691 8.5352 30.775 22.4764 37.1496 35.9511 1.8045 3.8144 3.7003 6.2047 5.8098 7.3251 30.7965 16.3568 31.5372 78.7083 1.1797 99.3155-7.0835 4.8085-9.0985 8.1464-9.3713 15.524-.095 2.5605 7.7296 6.7591 14.5776 7.8226 11.9929 1.8625 23.4403-7.757 21.1532-17.7756-6.4842-28.4038 11.7865-61.4923 39.0206-70.6668 19.1716-6.4584 26.5509.858 21.1916 21.011-3.2241 12.124-2.8663 12.3251 5.5853 3.1402 13.9374-15.1467 21.3751-14.998 27.5245.5503 11.8989 30.085-9.9003 71.1072-42.1039 79.2324-6.3294 1.597-6.5457 1.7622-9.9091 7.571-8.1188 14.0215-25.3315 26.482-42.6203 30.8535-12.2224 3.0904-11.8645 2.7812-9.3074 8.0444 2.378 4.8948 2.3347 4.8738 21.8074 10.5506 29.1231 8.49 63.5318 25.7199 69.7293 34.9162 5.1957 7.71-3.3233 26.818-22.4064 50.2576-23.8759 29.3266-131.6147 51.2626-216.8229 44.146zm-393-128.1949c-1.65-1.0217-5.025-5.0825-7.5-9.0239-2.475-3.9414-10.8196-16.9412-18.5436-28.8885-30.6228-47.367-33.2726-53.8608-25.2507-61.8827 11.6399-11.6398 23.0556.4434 57.8131 61.1932 4.2261 7.3865 3.2663 8.2913 18.3333-17.2829 15.8092-26.8339 16.9463-28.25 22.6841-28.25 10.3315 0 13.8155 9.7854 7.292 20.4803-33.0874 54.2437-38.7377 62.9296-41.862 64.3531-3.7822 1.7233-9.5576 1.4122-12.9662-.6986z"/>
  <path fill="#0484f3" d="M322 938c-106.8982-.4972-107.5317-.512-113.1679-2.6454-48.3384-18.2975-43.6178-95.577 6.2615-102.5037 13.0818-1.8167 311.1457-.5088 317.57 1.3935 31.1829 9.2334 45.8783 49.5743 27.7761 76.2493-1.36 2.0041-2.2137 4.0629-1.8972 4.575.353.5711 99.5365.9313 256.4398.9313 255.8642 0 255.8642 0 258.9229 2.5737 6.4497 5.427 6.0055 14.685-.9002 18.7643-3.0397 1.7956-426.9448 2.1693-751.005.662Zm363.2645-45.5356c-13.305-3.5985-23.4696-12.2681-34.9072-29.7732-3.6623-5.6052-8.72-13.3412-11.2395-17.1912-6.1257-9.3608-16.2464-19.2741-23.7109-23.225-12.436-6.5823-3.0082-6.244-174.4468-6.2602-169.9466-.0161-161.6974.2577-171.8755-5.7059-5.7181-3.3504-12.0993-9.7715-15.5323-15.6295-6.0017-10.2412-5.6697.096-5.8836-183.1794-.196-168-.196-168-13.003-186.5-7.0437-10.175-15.774-22.8375-19.4006-28.139-6.186-9.0427-7.0525-9.8749-14.0108-13.4545-47.0903-24.2248-44.7816-93.4086 3.9385-118.0204 6.0878-3.0753 14.7465-9.93 41.5-32.8532 18.594-15.932 46.1822-39.5325 61.3072-52.4458 25.4771-21.7515 65.3066-55.9379 70.588-60.5871 1.402-1.234 2.8875-4.48 3.879-8.4754 11.6114-46.7872 82.8423-47.254 95.5613-.6263 1.6644 6.1017 1.6644 6.1017 11.568 11.6929A345400.254 345400.254 0 0 1 535 147.7362c45.9718 25.9692 42.608 24.3633 48.938 23.3627 8.1859-1.294 15.7698.6018 24.3327 6.0826 4.7706 3.0535 4.7706 3.0535 9.7625-1.6158 10.7898-10.0926 21.7312-12.3823 36.9668-7.7359 5.225 1.5935 20.975 6.3827 35 10.6428 14.025 4.2601 27.3 8.646 29.5 9.7466 20.8947 10.452 17.0424 39.2808-5.249 39.2808-8.1071 0-6.9298.7244-15.6177-9.6101-.7444-.8856-4.679-2.5947-8.7434-3.798-4.0645-1.2034-16.368-5.0619-27.3412-8.5745-10.9732-3.5126-20.3248-6.1558-20.7813-5.8736-.7788.4813-42.3442 55.2315-44.061 58.0373-.5083.8308 1.676 5.1654 6.076 12.058 3.7783 5.9185 11.1104 17.8306 16.2936 26.4713 9.1968 15.3318 9.537 15.749 14.1146 17.3107 5.2964 1.8068 10.321 6.3966 11.308 10.3295 1.2408 4.9436 1.8832 5.1494 16.0746 5.1494 21.4531 0 30.1453 2.8304 39.8106 12.9635C713.1907 354.3418 713.4276 355.488 714 403c.5 41.5.5 41.5 3.5 36.6699 8.4599-13.6208 11.6823-17.8734 19.4912-25.723 69.4214-69.7821 189.4788-20.4033 192.7193 79.2642.5433 16.711.5433 16.711 44.6664 17 54.1465.3545 58.5423 1.6916 67.8732 20.6453 4.7591 9.6672 5.2194 332.6332.4877 342.2681-3.4081 6.94-10.9528 14.1488-18.5197 17.6954-6.8513 3.2112-327.4104 4.7665-338.9536 1.6445zm331.4192-22.4078c8.5412-3.8778 7.7835 11.8029 8.0714-167.0566.2831-175.886.7726-162.4022-6.0773-167.429-3.1596-2.3185-90.7704-3.8784-92.9931-1.6557-.5368.5368-2.7123 5.123-4.8345 10.1916-4.9791 11.8918-14.8036 26.5435-23.7323 35.3931-7.0625 7-7.0625 7-7.0902 57.327-.0374 68.021 2.9631 65.3413-44.9735 40.1639-36.1977-19.0119-29.5088-18.4512-55.3311-4.6382-58.3415 31.2082-53.8338 34.5179-53.6867-39.4183.0952-47.8477-.0102-51.1176-1.7175-53.3115-1.0004-1.2854-3.7897-4.764-6.1984-7.73-2.4088-2.9661-6.4588-8.9734-9-13.3495-4.6205-7.9566-4.6205-7.9566-5.2418 12-1.125 36.1406-.9982 297.3648.1454 299.5017 1.6188 3.0247 295.998 3.036 302.6596.0115zM774.5 785.911c-11.6365-1.3708-15.9207-11.6903-8.1-19.511 3.8707-3.8707 216.3296-5.6596 223.6327-1.883 7.5109 3.884 7.5947 16.401.1366 20.3924-2.0992 1.1235-206.5735 2.073-215.6693 1.0016zm-6.6558-56.166c-6.8928-5.8266-6.3065-16.3861 1.123-20.228 4.6407-2.3998 216.9226-2.2859 220.993.1185 7.8909 4.6613 7.933 16.7827.0726 20.8476-5.6189 2.9056-218.7156 2.1977-222.1886-.738zm149.9115-67.4998c-7.5512-4.682-7.3941-16.074.2841-20.6097 5.7033-3.369 70.0065-2.3288 73.777 1.1934 5.6346 5.2634 5.1855 13.467-1.0232 18.6913-3.8985 3.2804-67.892 3.9156-73.038.725zm4.333-53.1524c-10.9345-1.909-13.9466-16.3693-4.675-22.4443 4.277-2.8025 68.5428-2.4566 73.1547.3937 7.6187 4.7087 6.7205 16.4354-1.6098 21.0161-2.8033 1.5415-58.9872 2.4107-66.8698 1.0345zm-231.3329 8.0793c-.286-282.7272.6163-256.6332-9.0575-261.9232-8.895-4.864-390.9155-2.1941-393.6224 2.7511-1.3547 2.475-5.976 8.088-10.2695 12.4733-8.056 8.2283-13.2731 399.316-5.5097 413.0239 5.53 9.7643-9.4302 8.9387 172.2033 9.5028 161 .5 161 .5 169.4012 3.4325 18.8643 6.5846 32.282 18.7717 49.605 45.0556 14.95 22.6833 20.2005 28.4963 25.7496 28.5082 1.6705.004 1.7434-12.2858 1.5-252.8242zm-104.4692 27.6384c-26.625-24.2826-29.6074-28.8526-24.401-37.3905 5.9476-9.7532 13.8573-8.4704 25.7081 4.1693 9.8865 10.5445 7.9302 12.1875 37.2047-31.2464 8.2783-12.2822 18.8764-14.8737 24.6695-6.0322 4.889 7.4616 4.4514 8.349-21.4436 43.4803-28.1752 38.2248-28.9217 38.708-41.7377 27.0195zm-272.3933 2.6926c-8.8015-4.7839-7.7746-18.9363 1.6335-22.5133 4.3972-1.6718 166.7622-1.318 170.7553.3722 9.9548 4.2134 10.0972 18.0746.2281 22.1982-5.1043 2.1327-168.6876 2.0786-172.617-.0571zm-.6239-50.715c-6.2663-3.024-7.4082-13.4955-2.0555-18.8482 4.6058-4.6057 218.7686-4.6551 223.1792-.0515 5.0879 5.3106 4.298 14.4128-1.6099 18.5509-2.7848 1.9505-215.4944 2.2886-219.5138.3488zm4.0822-64.8806c-10.3659-3.0029-10.5395-4.1976-10.1603-69.9075.4135-71.6647-8.8258-63 67.1782-63 75.2181 0 66.617-8.8563 66.625 68.6021.006 62.04.332 59.453-8.0144 63.6464-3.9036 1.9612-109.0645 2.5606-115.6285.659zM363.8 508.8c1.7213-1.7213 1.6762-30.1854-.05-31.5255-1.7031-1.3221-30.9012-1.3748-32.5-.0587-.9007.7415-1.25 5.3034-1.25 16.3233 0 11.2997.3265 15.426 1.25 15.7986 2.8004 1.13 31.354.6583 32.55-.5377zm53.6182.593c2.0917-.8027 2.408-31.889.3318-32.6177-1.0846-.3807-15.1174-.3367-28.5.0894-3.904.1243-7.087 28.965-3.5833 32.4686.8332.8333 29.5947.8873 31.7515.0597zM363.8 453.8c1.6775-1.6775 1.6775-30.9225 0-32.6-1.6775-1.6775-30.9225-1.6775-32.6 0-1.6775 1.6775-1.6775 30.9225 0 32.6 1.6775 1.6775 30.9225 1.6775 32.6 0zm53.6182.593c2.3755-.9116 2.3755-32.8744 0-33.786-2.0604-.7907-28.776-.7907-30.8364 0-2.0926.803-2.4082 32.8929-.3318 33.7307 1.8041.728 29.2881.7768 31.1682.0553zm58.4633 40.104c-7.4778-4.0638-7.2297-16.6168.4237-21.4442 3.1029-1.9572 119.1459-1.4586 122.1731.525 6.4614 4.2336 6.9219 14.1077.9042 19.3912-3.9848 3.4987-117.295 4.9005-123.501 1.528zm-1.4026-53.8181c-5.9996-5.9996-5.2796-15.6621 1.4253-19.1293 7.1549-3.7 169.7514-1.6192 173.178 2.2162 4.6995 5.26 3.5527 14.5748-2.299 18.6735-5.3569 3.752-168.4582 2.0857-172.3043-1.7604zM783.467 657c33.8673-17.8797 28.8522-18.5636 81.8724 11.165 3.7618 2.1093 7.0243 3.835 7.25 3.835.2258 0 .4105-16.425.4105-36.5s-.2318-36.5-.5151-36.5c-.2834 0-2.8709 1.3286-5.75 2.9524-30.9564 17.4591-74.2643 16.4988-106.4426-2.3604-3.3708-1.9756-6.3906-3.592-6.7106-3.592-.32 0-.5817 17.1-.5817 38 0 25.3389.3423 38 1.0273 38 .565 0 13.8129-6.75 29.4398-15zm55.612-64.839c87.9296-23.1078 97.4513-146.9085 14.0446-182.608-63.35-27.115-131.26 18.5421-131.5555 88.447-.2695 63.7656 57.3832 109.9625 117.5109 94.161zm-63.7221-35.1526c-6.2565-2.5248-6.531-6.5807-1.8352-27.111 1.937-8.4685 3.7381-16.38 4.0024-17.581.3959-1.7988-2.1545-4.4957-14.4712-15.3028-17.5688-15.4155-18.6184-17.3663-12.7781-23.7483 2.4386-2.6648 3.5406-2.8774 24.5766-4.7406 16.6343-1.4734 18.5499-2.0423 19.7479-5.865 12.324-39.325 23.6336-43.7863 35.8958-14.1597 8.1873 19.7814 7.3994 19.0732 22.2144 19.9643 36.6846 2.2063 39.941 7.143 17.6197 26.7114-6.4772 5.6784-12.9795 11.4806-14.4496 12.894-2.6729 2.5696-2.6729 2.5696 1.257 21.5975 4.38 21.2083 4.2942 22.8701-1.3618 26.3424-4.5535 2.7955-6.9586 2.0784-22.7066-6.7699-20.102-11.2947-17.9535-10.5061-22.037-8.0883-9.907 5.866-30.9202 16.8407-32.1387 16.7852-.766-.0349-2.357-.4525-3.5356-.9282zM599.5042 327.9932c.3423-.5538-.2506-2.2413-1.3174-3.75-4.8375-6.8415-27.7647-43.3423-30.5279-48.6014-5.7807-11.0024-4.9436-20.4348 2.9533-33.2778 5.1698-8.4078 5.2014-8.6179 1.6378-10.8784-7.5928-4.8166-11.8412-11.1337-13.7705-20.4763-1.1339-5.4906-1.1339-5.4906-10.5567-10.8802-5.1825-2.9643-22.0228-12.6814-37.4228-21.5935-15.4-8.9122-30.5277-17.6274-33.617-19.3671-5.6171-3.1631-5.6171-3.1631-11.5 2.416-8.5408 8.0998-19.2036 13.0104-31.383 14.453-9.0386 1.0706-9.6943 1.3134-13.5 4.998-2.2 2.1301-7.8841 7.606-12.6314 12.1687-4.7472 4.5627-25.4104 25.6208-45.9182 46.7958s-44.2632 45.5572-52.7897 54.1827c-15.3986 15.5772-18.4335 23.8616-12.4802 34.0673.693 1.1878 302.0888.9322 302.8237-.2568zM1149.5 490.3297c-92.5214-7.7275-146.2785-33.25-170.249-80.8297-6.947-13.7892-6.4332-18.4525 2.971-26.9628 6.057-5.4812 6.193-5.7182 6.8335-11.9073 1.1885-11.4827 11.3643-27.0759 20.0048-30.6549 3.4941-1.4473 3.6045-2.2326.8566-6.0917-3.9082-5.4886-6.0815-13.8567-6.9816-26.8833-.9954-14.4035-1.3771-15.9633-6.2952-25.725-8.75-17.3674.4014-25.8893 22.2668-20.7352 17.8524 4.208 29.9477 16.3267 33.4546 33.519 1.563 7.6626.8525 7.566 12.3477 1.6786 13.0846-6.7013 13.5806-8.3634 5.1833-17.3712-26.8223-28.7722-29.6302-76.961-6.1831-106.115 2.764-3.4367 6.748-9.194 8.8532-12.7937 10.121-17.3062 28.758-32.0529 50.4374-39.9091 8.5-3.0803 8.5-3.0803 9-13.7475.9232-19.6953 11.7794-25.3009 49-25.3009 38.7435 0 49.6988 5.8786 49.2948 26.4515-.2311 11.7662-.194 11.8488 7.0179 15.6092 16.3691 8.5352 30.775 22.4764 37.1496 35.9511 1.8045 3.8144 3.7003 6.2047 5.8098 7.3251 30.7965 16.3568 31.5372 78.7083 1.1797 99.3155-7.0835 4.8085-9.0985 8.1464-9.3713 15.524-.095 2.5605 7.7296 6.7591 14.5776 7.8226 11.9929 1.8625 23.4403-7.757 21.1532-17.7756-6.4842-28.4038 11.7865-61.4923 39.0206-70.6668 19.1716-6.4584 26.5509.858 21.1916 21.011-3.2241 12.124-2.8663 12.3251 5.5853 3.1402 13.9374-15.1467 21.3751-14.998 27.5245.5503 11.8989 30.085-9.9003 71.1072-42.1039 79.2324-6.3294 1.597-6.5457 1.7622-9.9091 7.571-8.1188 14.0215-25.3315 26.482-42.6203 30.8535-12.2224 3.0904-11.8645 2.7812-9.3074 8.0444 2.378 4.8948 2.3347 4.8738 21.8074 10.5506 29.1231 8.49 63.5318 25.7199 69.7293 34.9162 5.1957 7.71-3.3233 26.818-22.4064 50.2576-23.8759 29.3266-131.6147 51.2626-216.8229 44.146z"/>
  <path fill="#2363a1" d="M322 938c-106.8982-.4972-107.5317-.512-113.1679-2.6454-48.3384-18.2975-43.6178-95.577 6.2615-102.5037 13.0818-1.8167 311.1457-.5088 317.57 1.3935 31.1829 9.2334 45.8783 49.5743 27.7761 76.2493-1.36 2.0041-2.2137 4.0629-1.8972 4.575.353.5711 99.5365.9313 256.4398.9313 255.8642 0 255.8642 0 258.9229 2.5737 6.4497 5.427 6.0055 14.685-.9002 18.7643-3.0397 1.7956-426.9448 2.1693-751.005.662Zm153.4291-23.0955c.3274-.3275-.3325-2.6924-1.4662-5.2555-5.3755-12.1523-6.065-29.1838-1.8194-44.944 1.155-4.2872 1.9132-7.9817 1.685-8.2099-2.0544-2.0543-254.8347-1.5403-260.3285.5294-25.6037 9.6456-22.5764 50.1748 4.3032 57.611 4.8757 1.349 256.2844 1.6114 257.626.269zM233.5 905.0713c-15.1903-3.6659-20.2235-22.4004-9.0263-33.5976 10.0821-10.0822 25.9665-7.332 32.5852 5.6418 7.3906 14.4868-7.2722 31.8862-23.5589 27.9558zm144.9005-1.4653c-5.7168-2.662-8.9949-6.6079-10.986-13.224-5.6503-18.7744 19.4044-33.235 33.9474-19.5932 17.1454 16.0829-1.5417 42.791-22.9614 32.8172zm152.2602 8.7746c21.8806-10.3511 21.5744-44.7733-.4858-54.6117-19.374-8.6405-38.7533 3.8974-39.9644 25.856-1.322 23.9673 19.4133 38.7078 40.4502 28.7557zm154.6038-19.9162c-13.305-3.5985-23.4696-12.2681-34.9072-29.7732-3.6623-5.6052-8.72-13.3412-11.2395-17.1912-6.1257-9.3608-16.2464-19.2741-23.7109-23.225-12.436-6.5823-3.0082-6.244-174.4468-6.2602-169.9466-.0161-161.6974.2577-171.8755-5.7059-5.7181-3.3504-12.0993-9.7715-15.5323-15.6295-6.0017-10.2412-5.6697.096-5.8836-183.1794-.196-168-.196-168-13.003-186.5-7.0437-10.175-15.774-22.8375-19.4006-28.139-6.186-9.0427-7.0525-9.8749-14.0108-13.4545-47.0903-24.2248-44.7816-93.4086 3.9385-118.0204 6.0878-3.0753 14.7465-9.93 41.5-32.8532 18.594-15.932 46.1822-39.5325 61.3072-52.4458 25.4771-21.7515 65.3066-55.9379 70.588-60.5871 1.402-1.234 2.8875-4.48 3.879-8.4754 11.6114-46.7872 82.8423-47.254 95.5613-.6263 1.6644 6.1017 1.6644 6.1017 11.568 11.6929A345400.254 345400.254 0 0 1 535 147.7362c45.9718 25.9692 42.608 24.3633 48.938 23.3627 8.1859-1.294 15.7698.6018 24.3327 6.0826 4.7706 3.0535 4.7706 3.0535 9.7625-1.6158 10.7898-10.0926 21.7312-12.3823 36.9668-7.7359 5.225 1.5935 20.975 6.3827 35 10.6428 14.025 4.2601 27.3 8.646 29.5 9.7466 20.8947 10.452 17.0424 39.2808-5.249 39.2808-8.1071 0-6.9298.7244-15.6177-9.6101-.7444-.8856-4.679-2.5947-8.7434-3.798-4.0645-1.2034-16.368-5.0619-27.3412-8.5745-10.9732-3.5126-20.3248-6.1558-20.7813-5.8736-.7788.4813-42.3442 55.2315-44.061 58.0373-.5083.8308 1.676 5.1654 6.076 12.058 3.7783 5.9185 11.1104 17.8306 16.2936 26.4713 9.1968 15.3318 9.537 15.749 14.1146 17.3107 5.2964 1.8068 10.321 6.3966 11.308 10.3295 1.2408 4.9436 1.8832 5.1494 16.0746 5.1494 21.4531 0 30.1453 2.8304 39.8106 12.9635C713.1907 354.3418 713.4276 355.488 714 403c.5 41.5.5 41.5 3.5 36.6699 8.4599-13.6208 11.6823-17.8734 19.4912-25.723 69.4214-69.7821 189.4788-20.4033 192.7193 79.2642.5433 16.711.5433 16.711 44.6664 17 54.1465.3545 58.5423 1.6916 67.8732 20.6453 4.7591 9.6672 5.2194 332.6332.4877 342.2681-3.4081 6.94-10.9528 14.1488-18.5197 17.6954-6.8513 3.2112-327.4104 4.7665-338.9536 1.6445zm331.4192-22.4078c8.5412-3.8778 7.7835 11.8029 8.0714-167.0566.2831-175.886.7726-162.4022-6.0773-167.429-3.1596-2.3185-90.7704-3.8784-92.9931-1.6557-.5368.5368-2.7123 5.123-4.8345 10.1916-4.9791 11.8918-14.8036 26.5435-23.7323 35.3931-7.0625 7-7.0625 7-7.0902 57.327-.0374 68.021 2.9631 65.3413-44.9735 40.1639-36.1977-19.0119-29.5088-18.4512-55.3311-4.6382-58.3415 31.2082-53.8338 34.5179-53.6867-39.4183.0952-47.8477-.0102-51.1176-1.7175-53.3115-1.0004-1.2854-3.7897-4.764-6.1984-7.73-2.4088-2.9661-6.4588-8.9734-9-13.3495-4.6205-7.9566-4.6205-7.9566-5.2418 12-1.125 36.1406-.9982 297.3648.1454 299.5017 1.6188 3.0247 295.998 3.036 302.6596.0115zM774.5 785.911c-11.6365-1.3708-15.9207-11.6903-8.1-19.511 3.8707-3.8707 216.3296-5.6596 223.6327-1.883 7.5109 3.884 7.5947 16.401.1366 20.3924-2.0992 1.1235-206.5735 2.073-215.6693 1.0016zm-6.6558-56.166c-6.8928-5.8266-6.3065-16.3861 1.123-20.228 4.6407-2.3998 216.9226-2.2859 220.993.1185 7.8909 4.6613 7.933 16.7827.0726 20.8476-5.6189 2.9056-218.7156 2.1977-222.1886-.738zm149.9115-67.4998c-7.5512-4.682-7.3941-16.074.2841-20.6097 5.7033-3.369 70.0065-2.3288 73.777 1.1934 5.6346 5.2634 5.1855 13.467-1.0232 18.6913-3.8985 3.2804-67.892 3.9156-73.038.725zm4.333-53.1524c-10.9345-1.909-13.9466-16.3693-4.675-22.4443 4.277-2.8025 68.5428-2.4566 73.1547.3937 7.6187 4.7087 6.7205 16.4354-1.6098 21.0161-2.8033 1.5415-58.9872 2.4107-66.8698 1.0345zm-231.3329 8.0793c-.286-282.7272.6163-256.6332-9.0575-261.9232-8.895-4.864-390.9155-2.1941-393.6224 2.7511-1.3547 2.475-5.976 8.088-10.2695 12.4733-8.056 8.2283-13.2731 399.316-5.5097 413.0239 5.53 9.7643-9.4302 8.9387 172.2033 9.5028 161 .5 161 .5 169.4012 3.4325 18.8643 6.5846 32.282 18.7717 49.605 45.0556 14.95 22.6833 20.2005 28.4963 25.7496 28.5082 1.6705.004 1.7434-12.2858 1.5-252.8242zm-104.4692 27.6384c-26.625-24.2826-29.6074-28.8526-24.401-37.3905 5.9476-9.7532 13.8573-8.4704 25.7081 4.1693 9.8865 10.5445 7.9302 12.1875 37.2047-31.2464 8.2783-12.2822 18.8764-14.8737 24.6695-6.0322 4.889 7.4616 4.4514 8.349-21.4436 43.4803-28.1752 38.2248-28.9217 38.708-41.7377 27.0195zm-272.3933 2.6926c-8.8015-4.7839-7.7746-18.9363 1.6335-22.5133 4.3972-1.6718 166.7622-1.318 170.7553.3722 9.9548 4.2134 10.0972 18.0746.2281 22.1982-5.1043 2.1327-168.6876 2.0786-172.617-.0571zm-.6239-50.715c-6.2663-3.024-7.4082-13.4955-2.0555-18.8482 4.6058-4.6057 218.7686-4.6551 223.1792-.0515 5.0879 5.3106 4.298 14.4128-1.6099 18.5509-2.7848 1.9505-215.4944 2.2886-219.5138.3488zm4.0822-64.8806c-10.3659-3.0029-10.5395-4.1976-10.1603-69.9075.4135-71.6647-8.8258-63 67.1782-63 75.2181 0 66.617-8.8563 66.625 68.6021.006 62.04.332 59.453-8.0144 63.6464-3.9036 1.9612-109.0645 2.5606-115.6285.659zM363.8 508.8c1.7213-1.7213 1.6762-30.1854-.05-31.5255-1.7031-1.3221-30.9012-1.3748-32.5-.0587-.9007.7415-1.25 5.3034-1.25 16.3233 0 11.2997.3265 15.426 1.25 15.7986 2.8004 1.13 31.354.6583 32.55-.5377zm53.6182.593c2.0917-.8027 2.408-31.889.3318-32.6177-1.0846-.3807-15.1174-.3367-28.5.0894-3.904.1243-7.087 28.965-3.5833 32.4686.8332.8333 29.5947.8873 31.7515.0597zM363.8 453.8c1.6775-1.6775 1.6775-30.9225 0-32.6-1.6775-1.6775-30.9225-1.6775-32.6 0-1.6775 1.6775-1.6775 30.9225 0 32.6 1.6775 1.6775 30.9225 1.6775 32.6 0zm53.6182.593c2.3755-.9116 2.3755-32.8744 0-33.786-2.0604-.7907-28.776-.7907-30.8364 0-2.0926.803-2.4082 32.8929-.3318 33.7307 1.8041.728 29.2881.7768 31.1682.0553zm58.4633 40.104c-7.4778-4.0638-7.2297-16.6168.4237-21.4442 3.1029-1.9572 119.1459-1.4586 122.1731.525 6.4614 4.2336 6.9219 14.1077.9042 19.3912-3.9848 3.4987-117.295 4.9005-123.501 1.528zm-1.4026-53.8181c-5.9996-5.9996-5.2796-15.6621 1.4253-19.1293 7.1549-3.7 169.7514-1.6192 173.178 2.2162 4.6995 5.26 3.5527 14.5748-2.299 18.6735-5.3569 3.752-168.4582 2.0857-172.3043-1.7604zM783.467 657c33.8673-17.8797 28.8522-18.5636 81.8724 11.165 3.7618 2.1093 7.0243 3.835 7.25 3.835.2258 0 .4105-16.425.4105-36.5s-.2318-36.5-.5151-36.5c-.2834 0-2.8709 1.3286-5.75 2.9524-30.9564 17.4591-74.2643 16.4988-106.4426-2.3604-3.3708-1.9756-6.3906-3.592-6.7106-3.592-.32 0-.5817 17.1-.5817 38 0 25.3389.3423 38 1.0273 38 .565 0 13.8129-6.75 29.4398-15zm55.612-64.839c87.9296-23.1078 97.4513-146.9085 14.0446-182.608-63.35-27.115-131.26 18.5421-131.5555 88.447-.2695 63.7656 57.3832 109.9625 117.5109 94.161zm-63.7221-35.1526c-6.2565-2.5248-6.531-6.5807-1.8352-27.111 1.937-8.4685 3.7381-16.38 4.0024-17.581.3959-1.7988-2.1545-4.4957-14.4712-15.3028-17.5688-15.4155-18.6184-17.3663-12.7781-23.7483 2.4386-2.6648 3.5406-2.8774 24.5766-4.7406 16.6343-1.4734 18.5499-2.0423 19.7479-5.865 12.324-39.325 23.6336-43.7863 35.8958-14.1597 8.1873 19.7814 7.3994 19.0732 22.2144 19.9643 36.6846 2.2063 39.941 7.143 17.6197 26.7114-6.4772 5.6784-12.9795 11.4806-14.4496 12.894-2.6729 2.5696-2.6729 2.5696 1.257 21.5975 4.38 21.2083 4.2942 22.8701-1.3618 26.3424-4.5535 2.7955-6.9586 2.0784-22.7066-6.7699-20.102-11.2947-17.9535-10.5061-22.037-8.0883-9.907 5.866-30.9202 16.8407-32.1387 16.7852-.766-.0349-2.357-.4525-3.5356-.9282zm-534.5878-188.516c34.7684-8.1974 46.9004-49.9665 21.8026-75.0642-30.4452-30.4453-82.047-4.088-75.5151 38.5718 3.9629 25.8816 28.3738 42.4665 53.7125 36.4924zm358.735-40.4992c.3423-.5538-.2506-2.2413-1.3174-3.75-4.8375-6.8415-27.7647-43.3423-30.5279-48.6014-5.7807-11.0024-4.9436-20.4348 2.9533-33.2778 5.1698-8.4078 5.2014-8.6179 1.6378-10.8784-7.5928-4.8166-11.8412-11.1337-13.7705-20.4763-1.1339-5.4906-1.1339-5.4906-10.5567-10.8802-5.1825-2.9643-22.0228-12.6814-37.4228-21.5935-15.4-8.9122-30.5277-17.6274-33.617-19.3671-5.6171-3.1631-5.6171-3.1631-11.5 2.416-8.5408 8.0998-19.2036 13.0104-31.383 14.453-9.0386 1.0706-9.6943 1.3134-13.5 4.998-2.2 2.1301-7.8841 7.606-12.6314 12.1687-4.7472 4.5627-25.4104 25.6208-45.9182 46.7958s-44.2632 45.5572-52.7897 54.1827c-15.3986 15.5772-18.4335 23.8616-12.4802 34.0673.693 1.1878 302.0888.9322 302.8237-.2568zM310.5652 263.75c92.4916-93.198 92.9734-93.7691 85.425-101.2597-3.797-3.768-8.3027-9.4756-10.0125-12.6836-3.7047-6.9506-1.728-7.7484-20.626 8.3255-8.1685 6.9477-30.3767 25.8075-49.3517 41.9107-18.975 16.1032-36.3248 30.8937-38.5551 32.8678-2.2304 1.9741-10.4429 8.9722-18.25 15.5513-15.9103 13.4075-15.5763 12.9412-10.4449 14.5818 11.3032 3.6138 27.087 15.1023 32.2697 23.4882 2.8839 4.666.4202 6.5657 29.5455-22.782zm133.8487-109.164c20.0217-9.7958 24.2426-36.2174 8.2084-51.3819-20.4741-19.3635-53.0968-6.7938-54.453 20.9812-1.178 24.1277 24.5271 41.026 46.2446 30.4006zM1149.5 490.3296c-92.5214-7.7275-146.2785-33.25-170.249-80.8297-6.947-13.7892-6.4332-18.4525 2.971-26.9628 6.057-5.4812 6.193-5.7182 6.8335-11.9073 1.1885-11.4827 11.3643-27.0759 20.0048-30.6549 3.4941-1.4473 3.6045-2.2326.8566-6.0917-3.9082-5.4886-6.0815-13.8567-6.9816-26.8833-.9954-14.4035-1.3771-15.9633-6.2952-25.725-8.75-17.3674.4014-25.8893 22.2668-20.7352 17.8524 4.208 29.9477 16.3267 33.4546 33.519 1.563 7.6626.8525 7.566 12.3477 1.6786 13.0846-6.7013 13.5806-8.3634 5.1833-17.3712-26.8223-28.7722-29.6302-76.961-6.1831-106.115 2.764-3.4367 6.748-9.194 8.8532-12.7937 10.121-17.3062 28.758-32.0529 50.4374-39.9091 8.5-3.0803 8.5-3.0803 9-13.7475.9232-19.6953 11.7794-25.3009 49-25.3009 38.7435 0 49.6988 5.8786 49.2948 26.4515-.2311 11.7662-.194 11.8488 7.0179 15.6092 16.3691 8.5352 30.775 22.4764 37.1496 35.9511 1.8045 3.8144 3.7003 6.2047 5.8098 7.3251 30.7965 16.3568 31.5372 78.7083 1.1797 99.3155-7.0835 4.8085-9.0985 8.1464-9.3713 15.524-.095 2.5605 7.7296 6.7591 14.5776 7.8226 11.9929 1.8625 23.4403-7.757 21.1532-17.7756-6.4842-28.4038 11.7865-61.4923 39.0206-70.6668 19.1716-6.4584 26.5509.858 21.1916 21.011-3.2241 12.124-2.8663 12.3251 5.5853 3.1402 13.9374-15.1467 21.3751-14.998 27.5245.5503 11.8989 30.085-9.9003 71.1072-42.1039 79.2324-6.3294 1.597-6.5457 1.7622-9.9091 7.571-8.1188 14.0215-25.3315 26.482-42.6203 30.8535-12.2224 3.0904-11.8645 2.7812-9.3074 8.0444 2.378 4.8948 2.3347 4.8738 21.8074 10.5506 29.1231 8.49 63.5318 25.7199 69.7293 34.9162 5.1957 7.71-3.3233 26.818-22.4064 50.2576-23.8759 29.3266-131.6147 51.2626-216.8229 44.146zm67.2689-38.3173c43.0473-1.7363 90.8361-9.4151 119.0895-19.1357 10.8253-3.7245 11.8682-1.5536 4.1138 8.5635-5.4337 7.0894-5.2304 7.5318 2.5278 5.5022 7.9583-2.0818 9.5829-3.2504 15.575-11.2025 14.1936-18.8363 14.3414-22.2177.7403-16.9396-101.9217 39.5527-268.6555 36.089-354.9612-7.3738-8.9585-4.5114-9.2902-4.0243-3.2882 4.8294 14.591 21.5232 40.5582 39.8084 30.4957 21.474-6.214-11.3223-6.0995-11.4114 7.9384-6.1796 28.5578 10.6433 77.0171 18.5845 124.5 20.4022 28.0938 1.0754 28.0922 1.0754 53.2689.06zm33.0491-20.4191c48.3809-5.33 121.2012-23.8377 119.9765-30.4929-.3527-1.9168-26.6218-15.3103-40.5849-20.6925a21251.9627 21251.9627 0 0 1-17.0352-6.5753c-9.3464-3.614-8.763-3.7594-10.626 2.649-12.8079 44.0575-202.6556 48.4359-245.1182 5.6531-4.3327-4.3653-4.3327-4.3653-10.4757-.2632-10.467 6.9896-16.745 7.543-21.4975 1.895-3.2204-3.8272-6.0898-3.4865-17.6588 2.097-14.9035 7.193-14.9404 6.625.9472 14.58 31.8389 15.9415 78.1198 27.1843 129.7546 31.5203 7.15.6004 14.575 1.2582 16.5 1.4616 9.7287 1.0283 82.4806-.3628 95.818-1.8321zm-26.3575-35.1062c28.526-3.7462 55.4096-12.2663 63.1604-20.017 6.5489-6.549-.6892-30.1074-9.9645-32.4327-9.7299-2.4393-14.2662-6.9804-11.3541-11.3661 1.2826-1.9318 2.3888-2.0815 16.2869-2.2042 25.0003-.2208 41.134-6.6672 51.6231-20.627 4.776-6.3562 4.7832-6.302-1.2482-9.3583-2.7698-1.4035-6.7618-4.1111-8.8712-6.0168-4.7794-4.318-5.8741-4.3177-10.061.002-10.3133 10.6406-25.1167 11.6957-42.6942 3.043-11.0245-5.4268-9.7262-5.3814-14.4579-.5057-31.9669 32.9397-110.8424 42.8245-156.619 19.6277-7.1829-3.6398-7.6287-3.5013-13.259 4.1179-9.485 12.8356-19.0018 37.712-19.0018 49.6696 0 19.3691 91.4489 34.6052 156.4605 26.0674zm-182.4263-29.0636c3.0062-3.0671 7.3288-6.6809 9.6058-8.0306 4.1877-2.4823 6.3403-6.1399 9.3532-15.8929 2.6817-8.6806 10.4216-22.3232 20.4843-36.106 3.9799-5.4512-12.4592.464-25.729 9.258-8.1547 5.4042-22.6113 18.893-28.6826 26.7626-2.2136 2.8692-6.1715 6.753-8.7953 8.6307-13.1191 9.388-17.0788 19.0947-6.93 16.9878 10.4842-2.1765 15.9536-1.8481 20.2662 1.2169 4.88 3.4682 4.0323 3.698 10.4274-2.8265zm-7.8207-46.6735c15.9116-14.359 5.0155-42.3447-18.2009-46.7476-6.8349-1.2962-6.784-1.4103-3.2102 7.1958 3.3538 8.0762 4.7121 14.8298 5.6878 28.2809 1.4046 19.3643 4.3864 21.5017 15.7233 11.2709zm158.0483-5.1819c26.7129-4.9994 49.2707-15.617 61.4189-28.9091 12.8132-14.0197 11.1725-18.721-2.4653-7.0646-39.9844 34.175-99.2427 41.1772-149.4761 17.6628-10.5473-4.9372-12.1207-5.006-8.8309-.3858 11.5627 16.2383 61.8873 25.7086 99.3534 18.6967zm-6.6472-17.116c17.7627-3.0976 32.6943-9.367 51.6354-21.6807 12.187-7.9229 11.9942-7.6465 7.1552-10.2525-33.9701-18.2941-27.1791-92.7566 9.3448-102.4662 5.874-1.5615 3.9622-6.3711-6.4232-16.1596-13.364-12.5958-21.7189-15.4763-31.548-10.8768-18.9234 8.8553-50.7223 7.6688-71.3691-2.663-7.0902-3.548-7.0902-3.548-14.8238-.4514-13.6692 5.4735-26.9677 15.1004-18.9914 13.7481C1200.2116 132.287 1244.7592 261.2581 1161 296.476c-2.475 1.0406-4.9275 2.2593-5.45 2.708-1.6548 1.4215 19.817.8808 29.0646-.7319zm-31.2537-8.7872c54.2547-21.0246 56.2317-100.7233 3.1438-126.7329-65.5014-32.0914-123.5263 44.9226-78.638 104.3728 16.1966 21.451 51.1358 31.7993 75.4942 22.36zm-35.1104-9.1193c-50.6983-11.518-62.1542-83.824-16.9093-106.7264 36.8277-18.6418 79.203 6.6537 82.3033 49.1302 2.6411 36.1864-30.6336 65.4934-65.394 57.5962zm21.9603-22.5233c11.2284-4.201 15.7868-9.1575 12.1342-13.1936-2.3609-2.6087-4.4165-2.3012-11.8201 1.7683-6.544 3.597-6.544 3.597-11.5025 1.814-4.1837-1.5045-5.3356-1.5813-7.3719-.4916-3.2316 1.7296-7.6615.648-12.2362-2.9875-7.0838-5.6295-14.7512.741-8.1643 6.7835 9.2957 8.5273 25.8597 11.2087 38.9608 6.307zM1360 289.242c17.6467-5.8452 30.0413-25.5501 30.1409-47.9184.061-13.6362-.4851-13.9154-8.5419-4.368-27.9257 33.0918-44.0718 19.8576-27.0915-22.2056 2.2478-5.568-13.2965 2.0945-20.8922 10.2989-27.8497 30.081-9.0102 75.917 26.3847 64.193zm-100-30.7397c0-.2737-1.6228-2.7565-3.6062-5.5173-13.8346-19.2567-12.2835-54.8188 3.1355-71.8858 4.3732-4.8405 4.3443-5.0992-.5691-5.0992-25.4182 0-35.4446 54.0925-14.1547 76.365 4.7347 4.9532 15.1945 9.1781 15.1945 6.1373zm19.4668-9.0357c13.907-13.907 15.4746-49.5637 2.796-63.5974-5.3111-5.8788-10.6699-4.8846-17.6544 3.2752-18.2627 21.3358-4.0117 79.1922 14.8584 60.3222zm-10.5676-8.5674c-12.5765-12.5765-5.3992-54.1242 8.1017-46.8987 9.4517 5.0584 8.8855 39.4375-.7747 47.0362-3.1811 2.5023-4.716 2.4735-7.327-.1375zM1205 130.5002c9.0607-2.7523 10-3.6938 10-10.0232 0-3.0124-.4215-5.477-.9367-5.477-.5151 0-4.6776.8969-9.25 1.993-14.5682 3.4925-35.9818 2.4607-53.5633-2.581-5.4068-1.5505-3.0641 10.9916 2.5 13.3844 12.4049 5.3345 38.1229 6.6914 51.25 2.7038z"/>
  <path fill="#033270" d="M530 936.9947c-258.5697-.4168-314.2009-.7405-317.5-1.8472-45.9129-15.4016-49.1094-84.1197-4.6102-99.1104 8.2354-2.7743 311.9617-3.2512 322.6501-.5066 31.4594 8.0782 47.1443 49.9067 28.0843 74.8955-1.3998 1.8353-2.6755 3.9528-2.8347 4.7055-.2442 1.1542 40.0856 1.4468 257.5426 1.8685 287.823.5582 263.6679-.4038 263.6679 10.5 0 11.595 64.2456 10.48-547 9.4947zm-53.4236-21.1183c.3043-.4924-.5548-3.7035-1.9092-7.1358-5.3706-13.6101-5.7946-29.1691-1.2248-44.9466 1.2507-4.3182 1.9421-8.0564 1.5364-8.3071-3.3437-2.0665-255.8967-1.5722-261.3596.5116-27.0955 10.335-24.4839 50.4639 3.8808 59.6303 4.7881 1.5474 258.1235 1.7894 259.0764.2476zm-244.7229-12.4237c-8.2703-2.586-13.7834-11.6594-12.2843-20.2175 3.5436-20.2294 31.103-22.9087 37.4616-3.642 4.8668 14.7468-9.8171 28.6622-25.1773 23.8595zm148.7713.0782c-12.9254-4.6072-17.0895-21.0638-7.8112-30.8702 11.3495-11.9954 32.106-5.426 33.9279 10.7382 1.6366 14.5197-12.1175 25.122-26.1167 20.132zm148.6725 10.6618c28.7287-12.708 22.7832-56.602-8.104-59.8303-25.2249-2.6365-41.7824 27.6235-27.0073 49.3576 7.9495 11.6937 22.5237 16.0408 35.1113 10.4727zm159.8241-22.3199c-15.4222-2.5616-24.972-10.941-41.797-36.6752-16.7238-25.5792-27.738-35.5226-43.3244-39.1123-2.9995-.6908-56.2206-1.0446-159.6135-1.0608-101.221-.016-156.9835-.3791-160.4957-1.0452-17.1267-3.248-30.1871-15.9267-33.7655-32.7785-.808-3.805-1.1253-52.2808-1.1253-171.9213 0-139.035-.2251-166.8834-1.3598-168.2008-1.201-1.3942-6.9467-9.7257-31.63-45.8645-5.9659-8.7346-6.8047-9.5263-14.1342-13.3395-46.1759-24.0234-43.0358-93.8885 5.2005-115.7084 4.2089-1.9038 9.8935-5.9673 16.4883-11.786 5.5357-4.8842 23.5309-20.3553 39.9893-34.3803 16.4584-14.025 39.6528-33.825 51.543-44 11.8902-10.175 30.0329-25.7 40.3171-34.5 28.5522-24.4316 26.404-22.2228 28.126-28.9185C391.21 82.7593 423.722 68.473 452.765 82.1633 463.968 87.4442 477 103.8463 477 112.666c0 3.7628 3.908 6.804 20 15.5635 8.525 4.6406 29.675 16.4998 47 26.354C575.5 172.5 575.5 172.5 586 172.519c11.0148.02 15.7495 1.5393 24.148 7.7486 2.7459 2.03 2.7459 2.03 8.2168-2.97 12.782-11.682 22.7998-12.7648 46.3573-5.0105 7.8222 2.5748 22.647 7.1989 32.944 10.2758 25.813 7.7133 30.7254 10.7498 33.388 20.6379 5.2023 19.32-18.5126 32.2992-29.3442 16.06-2.3846-3.575-3.719-4.4923-8.5187-5.855-6.2748-1.7816-36.7224-11.2894-44.822-13.9965-7.0272-2.3486-6.5742-2.7099-21.541 17.1812-7.3305 9.7423-17.2657 22.826-22.0782 29.0748-10.6218 13.7921-10.6294 11.5636.0982 28.7003 4.8665 7.774 12.328 19.8644 16.581 26.8677 7.1387 11.7551 8.0302 12.8133 11.6063 13.7763 5.3751 1.4473 9.5604 5.2767 11.2207 10.2665 1.4054 4.2239 1.4054 4.2239 17.3246 4.8593 44.781 1.7874 51.5772 12.564 51.2625 81.2861-.1752 38.2738.1195 40.5313 4.2284 32.394 52.4258-103.8237 210.109-65.3772 211.361 51.5343.1698 15.8498.1698 15.8498 44.1185 16 54.7398.187 62.032 2.4882 69.2583 21.855 2.6247 7.0343 3.7209 327.6015 1.1471 335.4523-3.6889 11.2523-15.1858 21.0128-27.3903 23.2535-7.3527 1.35-318.3067 1.314-326.4448-.0378zm329.9807-21.1427c7.4817-4.9981 6.8946 9.3993 6.8963-169.112 0-179.7173.6843-163.8472-7.2248-167.9942-11.0224-5.7794-94.9046-1.3333-97.3453 5.1598-5.8038 15.4396-13.8966 27.939-26.4925 40.9178-7.1886 7.4072-7.1886 7.4072-6.8122 57.4343.4977 66.154 4.135 62.9723-43.4245 37.985-34.7999-18.2834-31.7195-17.351-40.5246-12.267-69.5995 40.186-66.1716 41.6651-66.1834-28.5584-.009-52.7954-.009-52.7954-4.937-58.5525-6.8246-7.9728-8.875-10.9865-14.0509-20.6533-2.4768-4.6258-4.9532-8.4508-5.5032-8.5-1.0063-.0901-2.0363 322.5357-1.0381 325.1604 1.0281 2.7036 302.5678 1.7006 306.6402-1.02zm-250.214-87.2297c-5.5404-3.0112-6.2364-11.9455-1.2924-16.5905 2.495-2.3441 206.1243-4.5665 218.266-2.3821 9.367 1.6852 11.5241 14.6357 3.1583 18.9619-4.2664 2.2062-216.0733 2.2165-220.132.0107zm.5322-54.3859c-7.0163-4.2785-6.6953-14.3962.5797-18.2753 7.459-3.9771 217.4425-2.1473 221.0822 1.9266 4.9378 5.5267 4.0092 12.9769-2.0649 16.5649-4.6447 2.7437-215.0828 2.5366-219.597-.2162zm149.9626-67.6768c-8.3736-4.1873-6.4289-19.3236 2.5035-19.4849 2.1237-.0383 61.3716-.007 65.9113.0352 6.0125.0555 8.2322 11.7077 3.2854 17.2462-3.4452 3.8573-64.6324 5.7377-71.7002 2.2035zm-.0746-54.4274c-7.4669-3.0755-7.6113-15.7338-.223-19.5543 4.2846-2.2158 64.6806-2.1355 69.375.0922 6.2083 2.946 7.5083 11.2162 2.6228 16.686-2.931 3.2816-64.7432 5.6723-71.7748 2.776zM692.752 620.6142c.268-266.7822.4651-256.0195-4.8001-262.0163-6.8236-7.7716 12.0914-7.0674-197.4519-7.351-219.0456-.2965-199.9263-.9475-204.4946 6.962-1.9445 3.3666-6.7173 9.0601-10.7597 12.8352-7.931 7.4068-11.8064 401.9551-4.063 413.6559 6.389 9.6541-10.5012 8.7327 170.8173 9.319 180.069.5823 164.2686-.13 180.8367 8.153 14.7155 7.3569 24.3893 17.432 41.602 43.328 13.8864 20.892 19.7464 26.7803 26.0613 26.1877 1.9935-.187 2.0009-1.0089 2.252-251.0735zM593.5 648.8114c-15.147-8.5415-34.0867-32.6654-30.9067-39.3667 5.4421-11.4685 13.3473-9.0576 29.191 8.9027 5.364 6.0807 3.7058 7.5475 22.2855-19.7133 20.2485-29.7093 25.8543-33.7135 33.617-24.0125 4.972 6.2135 4.2281 8.052-12.4737 30.8295-33.5082 45.6977-34.936 47.182-41.7131 43.3603zm-279.75-2.8915c-6.374-3.7125-5.9117-15.7027.722-18.7252 5.4002-2.4605 170.6984-1.635 173.8809.8682 5.0012 3.934 5.277 10.9807.6247 15.961-2.8831 3.0865-170.0778 4.8955-175.2276 1.896zm-1.3367-52.3066c-5.1934-5.1934-4.14-13.5943 2.0588-16.4186 6.8523-3.1221 215.4032-1.4732 218.6048 1.7284 3.8942 3.8942 4.1246 10.5685.5098 14.7711-4.2248 4.912-216.2581 4.8344-221.1734-.0809zm3.6167-63.8926c-7.226-3.6564-7.03-1.873-7.03-63.9674 0-74.859-9.0215-65.7546 65.1511-65.7496 73.6717.005 64.725-9.1304 64.8981 66.2672.1372 59.7412.2068 58.8094-4.6777 62.6515-3.2546 2.56-113.3916 3.303-118.3415.7983zM365.5 493c0-26.8972-35.6764-27.8742-36.5146-1-.6502 20.8455-2.4058 19.1023 18.9057 18.7725C365.5 510.5 365.5 510.5 365.5 493Zm54.0104 16.75c1.0349-2.8897 1.164-32.6755.1462-33.6934-1.5513-1.5513-33.8927-1.4205-35.4566.1434-1.265 1.265-1.7802 30.1246-.593 33.2182.8043 2.096 35.158 2.4134 35.9034.3318zM365.5 437.5c0-18 0-18-18-18-16.8583 0-25.2683 16.4197-18.0476 35.2364.3938 1.0264 4.3496 1.2508 18.2751 1.0368C365.5 455.5 365.5 455.5 365.5 437.5Zm54.8632 16.75c.9219-3.2397.5383-31.5656-.4526-33.417-1.2147-2.2697-33.5015-2.842-35.7106-.633-1.6822 1.6822-1.6822 32.9178 0 34.6 2.1562 2.1562 35.5376 1.6485 36.1632-.55zm57.1126 39.3666c-6.3624-2.7985-7.4525-11.84-2.0758-17.2166 3.5109-3.5109 113.6345-5.6196 120.8877-2.3148 6.0741 2.7676 7.5503 11.8258 2.7948 17.149-3.2427 3.6298-113.8449 5.7966-121.6067 2.3824zm.9123-51.5967c-8.208-3.3164-8.3942-17.0791-.2693-19.9115 4.6753-1.6298 161.0688-1.443 165.8812.198 7.8547 2.6786 8.9098 14.3389 1.6955 18.7377-3.4457 2.101-162.2305 3.0271-167.3074.9758zM764.9067 667.143c5.8263-3.2213 18.992-10.2082 29.257-15.5264 22.1107-11.4554 15.8933-12.2939 52.4621 7.0752C860.445 666.0113 872.2575 672 872.8758 672c1.1374 0 1.7422-72.0486.6143-73.1765-.2804-.2805-4.8929 1.656-10.25 4.3031-32.9518 16.283-70.6728 14.5687-104.4891-4.749-2.612-1.492-4.9922-2.4697-5.2894-2.1725-.8209.8208-1.8545 71.0935-1.0904 74.1376.8622 3.4356.2536 3.5909 12.5355-3.1997zm65.38-72.5769c93.3673-15.1557 111.539-143.5932 26.0675-184.2447-64.0206-30.4492-135.889 16.511-135.7149 88.6786.144 59.6405 52.0838 104.91 109.6474 95.5661zm-56.6518-39.6387c-3.6041-2.835-3.4685-6.8983.8651-25.9274 4.6559-20.444 5.1881-18.1905-6.75-28.5798-21.3897-18.6146-22.6898-20.6343-16.9666-26.3574 2.2733-2.2733 3.9684-2.8945 9.25-3.3897 3.5566-.3334 12.1987-1.1311 19.2045-1.7726 14.949-1.369 12.8838.4574 21.6985-19.1887 8.3921-18.704 8.7672-19.3464 12.102-20.7277 6.343-2.6274 8.2293-.3944 17.016 20.143 9.0787 21.22 4.3664 18.6535 39.3746 21.4449 19.6405 1.566 18.5175 8.786-4.4353 28.5161C857.9747 505.1216 853 510.1402 853 511.1879c0 .9846 1.575 9.3202 3.5 18.5236 6.4204 30.6956 2.8531 33.3825-24.2806 18.2885-8.8983-4.95-16.6962-9-17.3285-9-.6323 0-8.5562 4.05-17.6085 9-17.532 9.5869-19.5246 10.1706-23.6475 6.9274zM239.1135 370.0012c26.3138-4.8792 43.7655-32.9338 36.0025-57.8763-12.5469-40.3132-66.9567-44.5296-85.1202-6.5962-16.0008 33.4166 12.7905 71.2085 49.1177 64.4725zm362.351-41.0658c.6468-.6467.6513-1.48.013-2.401-37.9606-54.7737-41.3166-65.1146-27.926-86.0474 4.372-6.8348 4.3245-7.9994-.4257-10.4228-6.9906-3.5663-12.4885-12.1355-13.766-21.4558-.6268-4.5728-.6268-4.5728-9.7433-9.4564-5.014-2.686-19.9165-11.1813-33.1165-18.8785-51.1992-29.8552-44.561-27.4525-53.1248-19.229C454.2787 169.7794 441.5747 175 429.4156 175c-6.4254 0-4.5844-1.693-60.12 55.286-27.9376 28.6637-56.803 58.143-64.1452 65.5094-12.5566 12.598-13.3157 13.581-12.778 16.5491.3145 1.7355.878 6.2329 1.2522 9.9941.523 5.2575 1.0935 6.9916 2.4673 7.5 2.99 1.1067 304.2539.2156 305.3727-.9032zm-270.876-84.161c24.7013-25.424 51.3803-52.8694 59.2867-60.9896 14.3751-14.764 14.3751-14.764 7.7614-21.0244-3.6376-3.4432-8.3406-9.1593-10.4512-12.7024-4.8748-8.1836-4.4252-8.1502-12.6854-.943-3.85 3.3592-10.825 9.308-15.5 13.2195-4.675 3.9116-29.425 24.9135-55 46.671-25.575 21.7574-49.65 42.2223-53.5 45.4774-8.3482 7.0583-8.4085 7.3475-1.9883 9.5298 11.6147 3.948 22.8001 11.7346 29.9746 20.8666 6.4055 8.1532 1.687 11.7852 52.1021-40.105zm269.5292-32.6568c3.0982-3.0982 3.8823-4.623 3.8823-7.5496 0-12.6173-14.772-18.6781-23.4491-9.621-11.836 12.354 7.4547 29.2827 19.5668 17.1707zm-158.4558-55.264c18.0529-6.7545 26.934-28.1514 18.7998-45.2931-9.4254-19.8625-38.2911-24.7837-53.8877-9.1871-24.7984 24.7983 2.2348 66.772 35.088 54.4801zM1156.5 489.3175c-85.6008-5.5122-140.7361-27.8596-168.4049-68.2579-15.1952-22.186-15.3198-32.5594-.4907-40.8582 1.215-.68 1.9658-2.9682 2.5407-7.7431 1.5291-12.702 10.5414-26.7586 19.8459-30.9543 4.8104-2.1692 4.9009-3.031.9688-9.2194-4.0577-6.3859-5.7187-12.7667-6.452-24.7847-.8162-13.3774-2.1043-18.8042-6.2365-26.2743-8.3931-15.1733-1.6003-22.9645 17.1786-19.7035 19.3439 3.3591 32.1236 15.5586 35.6934 34.0729 1.576 8.1735 1.4227 8.1427 12.6045 2.5314 16.2364-8.1478 16.9255-10.2793 6.8809-21.2849-26.3974-28.9229-28.7957-74.8492-5.4358-104.0915 2.9189-3.6539 7.1859-9.705 9.4822-13.4468 10.7863-17.5765 27.0695-30.3838 48.5055-38.1514 10.3194-3.7393 10.3194-3.7393 9.9938-12.7969-.4123-11.4727.9839-15.2053 6.9847-18.6718 22.2753-12.8679 77.0366-10.2024 86.5895 4.2147 2.003 3.023 2.2514 4.6487 2.2514 14.7331 0 11.3353 0 11.3353 5.25 13.9956 16.2733 8.2462 31.7052 22.5637 38.1022 35.3507 3.1047 6.2059 4.4479 7.8089 8.4663 10.1039 29.7151 16.971 27.8107 81.8978-2.8581 97.4389-4.7753 2.4198-5.9604 3.9589-5.9604 7.7407 0 1.1535-.5573 3.6384-1.2385 5.5222-3.3768 9.3385 20.3694 15.0391 31.3051 7.5152 7.1074-4.89 8.5874-8.5324 6.9636-17.138-6.1413-32.5476 19.3388-68.9685 48.5594-69.4103 11.5899-.1752 13.4768 5.828 7.8248 24.8947-4.019 13.5575-2.8155 13.77 8.4125 1.485 14.0378-15.3594 21.3008-15.169 26.1981.6868 9.6617 31.2809-11.3143 69.3271-41.7308 75.691-3.5715.7473-6.6003 1.5014-6.7306 1.6757-.1303.1743-1.6933 2.904-3.4732 6.0661-8.8063 15.6443-26.1231 27.4595-46.5904 31.7884-15.6475 3.3096-9.2847 12.4522 13.599 19.5402 40.1298 12.4298 69.2108 27.2415 73.2358 37.3009 4.3729 10.9289-21.0289 49.9062-38.1399 58.5232-47.9376 24.141-122.82 36.4795-193.6949 31.9156zm61.8233-36.3193c43.1434-1.9282 81.6942-8.0975 116.508-18.6448 11.2888-3.4202 11.7659-1.7027 2.4187 8.7072-6.803 7.5764-6.1682 8.0842 5.9538 4.7621 9.8859-2.7092 19.0529-12.7172 26.2027-28.6064 3.0413-6.7587 3.0894-6.7606-16.4178.6332-58.6794 22.241-143.8484 30.4752-228.4887 22.0903-44.3715-4.3956-94.1448-17.6181-122.4673-32.534-7.2492-3.8177-8.0327-4.0106-8.0327-1.9772 0 2.303 14.5215 21.1527 21.6659 28.1234 9.3717 9.144 25.4077 16.7878 20.9517 9.987-10.4811-15.9961-10.2583-17.459 1.9841-13.0275 29.8262 10.7966 77.7218 18.7017 123.8983 20.4492 28.748 1.0879 32.2679 1.0903 55.8233.0375zM1250 432.6435c33.5608-3.5857 60.018-8.9047 88.421-17.7764 18.3404-5.7286 33.7507-11.8384 33.3219-13.2112-2.4235-7.7603-68.941-35.1056-70.3137-28.9059-2.0275 9.1576-4.8153 13.0478-12.6339 17.6298-52.8502 30.9723-196.4854 25.9391-230.6105-8.081-6.3151-6.2956-5.8776-6.2346-12.1922-1.698-9.8207 7.0554-16.7126 7.4727-21.9719 1.3304-2.9598-3.4568-13.095-.801-24.2707 6.3597-7.833 5.0189-7.5957 5.4288 7.5 12.9577 32.5188 16.2187 77.2348 27.1794 129.25 31.6817 7.15.6188 14.575 1.29 16.5 1.4915 9.6881 1.0139 83.5381-.34 97-1.7783zm-26-35.1488c54.3237-7.4831 70.644-17.943 63.6027-40.7633-3.404-11.032-4.2937-12.0802-12.0313-14.1747-7.9451-2.1506-14.2876-9.9034-8.7048-10.6403.3484-.046 7.1584-.199 15.1334-.3399 25.3674-.4483 43.5221-8.0811 52.9016-22.2416 4.1022-6.1932 3.9925-6.6628-2.2727-9.728-2.9542-1.4454-7.484-4.4877-10.0662-6.7607-4.6951-4.1327-4.6951-4.1327-8.8789-.094-11.9922 11.5761-26.9786 12.6564-44.4963 3.2075-8.9444-4.8246-8.9667-4.8252-13.2413-.36-31.3351 32.732-106.9164 42.9557-154.6205 20.915-9.5039-4.391-9.4104-4.396-13.8324.7353C1076.8451 329.6062 1066 356.7505 1066 371.0458c0 12.7873 37.7043 24.3491 92.5 28.3645 11.5729.848 54.5651-.4093 65.5-1.9156zm-184.9462-27.12c1.8954-1.994 6.641-6.0117 10.5457-8.9282 7.0434-5.2607 7.1252-5.376 10.3389-14.579 4.2183-12.08 7.8946-19.2783 15.6897-30.7205 9.5798-14.0619 8.5941-15.5053-5.9714-8.745-16.5858 7.698-25.1988 14.46-44.706 35.098-4.6788 4.95-10.5985 10.69-13.1549 12.7555-10.6368 8.5943-11.4977 16.8244-1.5596 14.9108 11.5752-2.229 19.7787-1.1872 22.2594 2.8266 1.1298 1.828 3.0668 1.0547 6.5582-2.6183zm-5.4693-48.8001c17.3431-15.8862 5.2142-45.1745-20.3323-49.0974-5.7983-.8903-6.2766.903-2.4862 9.3214 3.7729 8.3797 3.9727 9.2889 5.2335 23.8098 1.1179 12.8758 2.2008 17.3564 5.2423 21.6906 2.4677 3.5166 2.0353 3.7171 12.3427-5.7244zm151.6721-4.1013c35.3927-5.275 62.2767-19.1363 74.7885-38.5608 5.5827-8.6672-.2372-10.3705-8.0869-2.3668-33.6052 34.2646-98.8533 43.408-148.4582 20.8038-16.1277-7.3492-19.163-6.4763-9.5844 2.7561 15.4225 14.8654 56.1596 22.6112 91.341 17.3677zM1192 298.0508c15.9921-3.9848 33.4896-12.1907 48.25-22.6281 9.1862-6.4959 9.1118-6.2035 2.6454-10.3935-33.374-21.6256-24.4968-93.8899 12.3546-100.5718 4.669-.8466 4.6596-1.3115-.1582-7.8331-13.2663-17.958-28.6927-25.9229-40.2035-20.7577-19.3435 8.68-49.0075 7.7882-70.1515-2.109-10.7679-5.0402-24.3519-.6232-39.2368 12.7582-4.5448 4.0857-5.7617 3.9207 10.5 1.4244 87.9805-13.5056 123.9881 127.9708 38.25 150.287-1.2375.322-2.25 1.137-2.25 1.811 0 2.0682 29.6324.596 40-1.9874zm-44.4601-5.5594c41.4296-10.4869 61.1994-59.2726 40.3176-99.4914-33.3463-64.2256-126.6899-43.0293-126.8401 28.8026-.096 45.7662 43.6822 81.5327 86.5225 70.6887zm-29.1222-12.9117c-49.1409-11.1955-61.1225-81.3206-17.8206-104.2985 36.4762-19.356 78.5875 5.0146 81.9717 47.4383 2.8477 35.6995-29.8445 64.6762-64.1511 56.8602zm17.2321-18.9746c11.6981-3.1147 20.386-9.7576 18.7703-14.3518-1.7453-4.9627-5.4564-5.1947-13.5106-.8444-7.0514 3.8086-7.0514 3.8086-11.6394 2.0564-3.8454-1.4685-5.1294-1.5563-7.933-.5426-4.0021 1.4472-6.4531.7968-12.0445-3.196-4.849-3.4627-9.7752-2.6364-10.8956 1.8277-2.4742 9.858 21.0541 19.3638 37.2528 15.0507zm25.1386-32.1828c3.434-5.8859 2.8319-16.2626-1.3356-23.0197-10.5298-17.0727-29.867.16-22.2712 19.8474 1.8117 4.6955 4.4563 3.5375 5.2293-2.2897C1144.1637 209.7466 1155 211.75 1155 225.2879c0 9.1286 1.7411 10.0714 5.7884 3.1344zM1098 223.1582c.883-12.9323 8.451-14.4764 11.5294-2.3524 2.2269 8.7702 8.4656 3.5489 8.469-7.088 0-12.991-9.8083-20.4873-19.9515-15.242-8.0724 4.1743-11.3988 20.4833-5.9915 29.375 3.3624 5.529 5.354 3.9567 5.9446-4.6926zm256.0786 68.8269c21.1711-4.015 37.2369-26.065 37.1483-50.9851-.04-11.3834-1.5552-15.537-4.3761-12-29.2784 36.7107-44.6654 35.9654-34.7331-1.6824 4.7586-18.0371 4.6507-16.7273 1.3088-15.8885-38.993 9.7866-46.6104 71.6623-9.9265 80.6326 4.2908 1.0492 4.6561 1.0466 10.5786-.0766zM1262 258.8712c0-.6208-1.6065-2.907-3.57-5.0803-15.1949-16.819-13.3937-58.6728 3.1738-73.7489 4.2135-3.8342 3.6718-5.042-2.2617-5.042-30.1083 0-37.8351 67.7103-9.4348 82.6773 4.5981 2.4232 12.0927 3.1632 12.0927 1.1939zm17.4591-7.9695c15.5626-13.664 16.6321-57.1558 1.6677-67.8114-5.91-4.2083-14.2183-.4347-19.8395 9.011-15.3113 25.729-.1258 74.866 18.1718 58.8004zm-10.2048-11.1517c-7.854-8.4377-7.9181-33.3686-.1086-42.2631 3.7447-4.265 5.9189-4.3873 9.1763-.516 10.3712 12.3254 1.5078 54.1406-9.0677 42.7791zM1205 131.4768c10.658-3.2829 11-3.629 11-11.1333 0-7.5359 1.357-7.1672-14-3.8032-10.3202 2.2607-33.3369 1.5102-44-1.4347-10.4635-2.8898-10-3.0924-10 4.3713 0 7.3937.5613 8.0258 9.7634 10.9946 12.105 3.9054 36.1593 4.4173 47.2366 1.0053zm-.2336-25.0707c14.0968-4.0667 14.5494-6.6738 1.8518-10.6673-17.7297-5.5762-62.2762-1.0562-56.6307 5.7461 6.0177 7.251 37.042 10.038 54.7789 4.9212z"/>
  <path fill="#fff" d="M1092.5462 227.2645c-2.89-4.4107-2.8317-15.8981.1107-21.8322 5.7998-11.6965 21.2935-9.7249 23.876 3.0384 1.0897 5.3853.1327 13.177-1.8636 15.1733-1.6271 1.627-4.88-.894-4.88-3.7821 0-2.303-4.2818-8.2222-5.9477-8.2222-2.7657 0-5.5214 4.8033-6.2914 10.966-.4525 3.6217-1.2902 6.8738-1.8617 7.227-.5714.353-1.9855-.8026-3.1423-2.5682zm62.9714-1.0265c0-7.0091-2.7115-12.2533-6.3354-12.2533-3.5188 0-5.6582 2.5692-7.2047 8.6517-.6757 2.6578-1.731 4.7522-2.345 4.6542-.6141-.0979-1.7889-2.4723-2.6109-5.2763-4.5586-15.552 10.1618-29.6043 19.7595-18.8627 5.953 6.6627 7.3391 18.788 2.9188 25.5343-2.823 4.3084-4.1823 3.5128-4.1823-2.448zM684.6737 867.2159c-1.9666-1.196-6.2378-5.8055-9.4916-10.2433-7.4952-10.2227-20.4524-29.7604-19.7369-29.7604.2983 0-4.0675-4.6168-9.7017-10.2595-11.0543-11.071-20.9815-17.5825-33.1023-21.7124l-7.6214-2.5968-160.0488-.667c-120.4373-.5018-161.1073-1.0176-164.3253-2.084-5.9015-1.9556-7.9651-5.736-9.2551-16.9542-1.4662-12.7507-1.433-235.0555.043-286.9291 1.3828-48.603 3.1675-86.9524 4.7362-101.7734 1.1321-10.6957 1.2678-11.045 7.1297-18.36 4.4326-5.5315 6.9274-7.6292 9.6617-8.1239 2.0274-.3668 21.3619-1.3058 42.9656-2.0868 49.0417-1.7729 339.0574-2.087 343.8189-.3724 1.7612.6342 3.2436 1.6807 3.2944 2.3256.0508.645 1.0598 1.5305 2.2424 1.968 1.6284.6023 2.3624 2.5942 3.0245 8.2076 1.009 8.5536 1.598 496.8767.6029 499.7138-.5944 1.6945-1.018 1.6653-4.2361-.2918zM601.3124 650.903c3.9304-1.6422 12.0069-11.6489 36.2747-44.944 16.1341-22.1355 17.0482-24.4024 12.709-31.518-4.196-6.8811-14.497-8.1808-19.8316-2.5023-1.3666 1.4546-8.4421 11.2854-15.7234 21.8461-7.2814 10.5608-14.722 20.3061-16.535 21.6564l-3.296 2.455-7.8066-8.0398c-7.0987-7.3109-8.3485-8.1134-13.7847-8.851-4.3304-.5877-6.3798-.3816-7.4349.748-.801.8575-1.9656 1.2446-2.5878.86-.6222-.3845-1.0202-.2642-.8844.2674.1357.5316-.679 3.077-1.8106 5.6566-2.6542 6.0504-1.2296 11.3967 4.5223 16.9717 2.274 2.204 4.1346 4.7833 4.1346 5.7316 0 .9483.3333 1.3909.7407.9835.4075-.4074 5.288 3.3841 10.8459 8.4257 9.5786 8.6889 13.6347 11.7406 15.7121 11.8213.5044.0196 2.6445-.686 4.7557-1.5682zm-112.1677-3.7415c1.402-.895 2.891-2.7043 3.3088-4.0206.4178-1.3163 1.1508-2.1515 1.629-1.856.4782.2956.5311-2.1001.1176-5.3238-.5317-4.1444-1.6774-6.7868-3.9114-9.021l-3.1595-3.16-84.6883-.3535c-77.4765-.3234-85.0075-.1857-88.4372 1.617-3.671 1.9297-7.39 7.7497-7.39 11.565 0 1.5361 3.897 10.4487 5.007 11.4515 1.0263.927 70.894 1.6586 118.1075 1.2367 45.836-.4095 57.3617-.8237 59.4165-2.1353zm43.8776-50.0726c3.51-2.3852 5.7502-6.686 5.7502-11.0393 0-4.1153-4.1268-10.5043-7.3415-11.366-5.055-1.3548-215.132-.8242-218.1505.551-2.6745 1.2186-6.6744 7.6876-6.6602 10.7716.017 3.723 2.5959 10.0794 4.4133 10.8781 4.7228 2.0756 18.8152 2.356 116.3496 2.3155 96.0477-.0399 102.7897-.1745 105.6391-2.1109zm-147.8498-63.0265c-1.1463-.7277 6.8263-1.1228 22.8964-1.1345 26.9539-.0196 28.1238-.281 31.6325-7.066 1.4835-2.8688 1.752-12.0725 1.752-60.0414v-56.6532l-2.9536-4.3468c-1.6246-2.3906-3.9723-4.8918-5.2172-5.558-1.468-.7857-22.2816-1.213-59.2213-1.2157-63.895-.005-62.1703-.2207-65.5405 8.2023-1.6551 4.1367-1.905 11.736-1.9315 58.7365-.0335 59.3984.216 61.9547 6.4134 65.734 2.9729 1.8129 6.0049 2.1823 17.9408 2.186 7.8999.002 14.3646.4 14.3662.8837.002.4837 9.367.9942 20.8122 1.1346 13.532.166 20.1943-.1353 19.0506-.8615zm11.4077.4842c-.3897-.3897-1.401-.4313-2.2474-.0925-.9353.3742-.6575.652.7084.7083 1.236.051 1.9286-.2262 1.539-.6158zm4.69 0c-.3896-.3897-1.4009-.4313-2.2473-.0925-.9353.3742-.6575.652.7084.7083 1.236.051 1.9286-.2262 1.539-.6158zm8.2077 0c-.3897-.3897-1.401-.4313-2.2474-.0925-.9353.3742-.6575.652.7084.7083 1.236.051 1.9286-.2262 1.539-.6158zm15.2427 0c-.3896-.3897-1.401-.4313-2.2473-.0925-.9354.3742-.6575.652.7084.7083 1.236.051 1.9285-.2262 1.539-.6158zm175.2659-41.3778c3.3575-3 3.8608-4.1884 3.8608-9.1154 0-6.7674-3.0807-11.5825-8.061-12.599-5.8517-1.1943-115.261-.774-118.4942.4553-3.696 1.4052-7.688 7.6863-7.6938 12.1058-.002 1.8054.8955 4.9712 1.9954 7.035 1.1 2.064 1.9003 4.1216 1.7786 4.5726-.1217.451 27.448.8594 61.266.9077l61.4873.0877zm-81.4644-46.5612c-.3896-.3896-1.4009-.4312-2.2473-.0926-.9353.3743-.6575.6522.7084.7084 1.236.051 1.9286-.2262 1.539-.6158zm6.2779-1.6366c1.236 0 2.289.6595 2.3399 1.4656.0741 1.1726.2108 1.1726.684 0 .3937-.9759 3.3243-1.4656 8.7705-1.4656 5.1542 0 7.9111.4336 7.4544 1.1725-.4517.731 1.8403 1.1658 6.0866 1.1546 4.8302-.0127 6.2996-.3486 5.0524-1.1546-1.3056-.8437-.608-1.1412 2.7074-1.1546 2.6826-.0108 4.1767.4503 3.7414 1.1546-.3985.6449.393 1.1725 1.7588 1.1725 1.366 0 2.1574-.5276 1.7588-1.1725-.4572-.7397 2.356-1.1725 7.6214-1.1725 6.3364 0 8.1468.3529 7.5185 1.4656-.662 1.1726-.5116 1.1726.7516 0 1.7253-1.6014 5.1183-2.0357 4.1918-.5365-.3159.511.5697 1.0153 1.9679 1.1206 2.02.1522 2.184-.037.7981-.9212-1.1259-.7184 8.4525-1.0945 27.0257-1.0614 15.8234.0282 29.663-.2915 30.755-.7105 3.142-1.2057 7.1073-8.613 6.9435-12.9704-.1654-4.399-2.9389-9.3262-6.2458-11.096-3.026-1.6195-168.0709-1.4943-171.1055.1297-2.9183 1.5619-5.7837 7.1808-5.7781 11.331.006 4.0126 3.6683 10.277 7.0753 12.1004 1.6565.8865 9.6843 1.2965 23.5132 1.2008 16.394-.1135 21.0182.1862 21.0905 1.367.0721 1.1778.2233 1.1881.684.0465.3252-.806 1.6027-1.4656 2.8387-1.4656zm95.1695 1.5685c-.8061-.3253-2.1252-.3253-2.9313 0-.8061.3253-.1466.5914 1.4656.5914s2.2718-.2661 1.4657-.5914z" paint-order="markers fill stroke" style="font-variation-settings:&quot;opsz&quot;32,&quot;wght&quot;900"/>
  <path fill="#fff" d="M332.615 453.3306c-1.1002-.6975-1.6128-4.4905-1.7581-13.0088l-.2051-12.0243 4.1031-3.4496c4.0462-3.4017 4.274-3.4447 16.4146-3.0953l12.3114.3543.3303 14.4916c.2206 9.683-.1188 15.0327-1.023 16.1221-1.0153 1.2234-4.7578 1.626-14.9867 1.6126-7.4985-.01-14.3324-.461-15.1865-1.0026zm-.1439 54.9947c-.9504-.5874-1.6453-4.643-1.94-11.3226-.363-8.2302-.0306-11.2658 1.589-14.5111l2.0478-4.1038 12.7025-.1605 12.7025-.1605 2.2427 3.678c1.782 2.9224 2.2437 5.9124 2.2472 14.553.004 10.4139-.1154 10.9203-2.8209 11.949-3.4208 1.3005-26.6907 1.364-28.7708.0785zm53.4739.3434c-1.1121-1.1121-.899-17.7701.293-22.9014.9652-4.1553 4.7971-9.5932 4.7971-6.8078 0 .729.5453.9884 1.2118.5765 1.9483-1.204 21.4634-1.5558 23.6223-.4258 1.7002.89 1.941 2.998 1.7588 15.3971l-.2112 14.366-15.3496.284c-8.4423.1561-15.6973-.0638-16.1222-.4886zm-.2822-61.1288c-.916-7.3314.0479-23.5239 1.483-24.9139.527-.5103 5.9705-1.0173 12.097-1.1267 15.7819-.2818 17.8248-.1384 17.0015 1.1938-.3986.645-.167 1.1725.5147 1.1725 1.3356 0 1.5509 29.1723.2176 29.4845-.4028.0943-7.4325.2716-15.6216.394l-14.8892.2226zm421.6166 423.0307c-50.6235-.336-92.1747-.7318-92.3359-.8794-.6986-.6395-.2163-313.0168.4844-313.7175.8312-.8312 5.2135 5.7106 5.603 8.364.1283.8746.7311 1.9438 1.3395 2.376 3.5036 2.4883 11.4479 13.79 12.3136 17.5173.5587 2.4055 1.0303 26.2704 1.0481 53.0331.0305 45.9192.1594 48.8679 2.2878 52.3584 4.876 7.9966 8.6555 6.8709 47.5679-14.1677 11.608-6.276 22.825-11.7023 24.9268-12.0583 3.803-.6441 14.3526 2.4832 14.3526 4.2547 0 .484.6595.8974 1.4656.9185.8061.021 12.2822 5.7663 25.5023 12.7671 27.147 14.376 30.6845 15.3012 35.7887 9.361l2.9044-3.3801.0236-43.494c.013-23.9217.4966-46.7633 1.0746-50.759.965-6.671 1.6856-7.993 8.8109-16.163 9.2191-10.5707 14.8367-19.1116 20.188-30.6937 3.6898-7.9863 4.2541-8.6123 8.906-9.8797 2.7315-.7442 8.9237-1.556 13.7603-1.804 4.8367-.248 11.3002-.6767 14.3634-.9526 3.0632-.276 5.5685-.142 5.5674.2977-.001.4396 6.8385.6383 15.1992.4416 8.7194-.2052 16.143.1464 17.4102.8245 1.2454.6665 2.671.7401 3.268.1687.5826-.5576 5.2517-.5927 10.3793-.078 12.1476 1.2193 13.062 2.3029 14.1191 16.7314 1.0707 14.614-.017 306.6132-1.1574 310.8197-1.0424 3.8437-3.8365 5.3775-5.4756 3.0058-.8215-1.1886-.9349-.9364-.4143.9218.6383 2.2784.1657 2.6356-4.3201 3.265-7.3498 1.0312-99.4445 1.3012-204.9514.6007zm180.686-84.5286c5.785-1.8934 8.0896-5.0882 8.0896-11.2139 0-10.7604-2.7148-12.0251-26.9887-12.573-9.9843-.2255-22.3744-.5231-27.5335-.6615-25.5243-.6848-170.3107 1.3524-173.0876 2.4354-1.6897.659-3.7367 2.6135-4.5487 4.3434-1.9902 4.2395-3.5003 10.894-2.3044 10.155.5295-.3273 1.285.4202 1.6788 1.6611.9776 3.0801 3.4423 4.9424 7.9608 6.015 6.3469 1.5068 212.1053 1.3535 216.7338-.1615zm-138.4753-52.045c0-1.4524 2.1573-1.7588 12.3806-1.7588 7.8596 0 12.119.4232 11.6643 1.159-.394.6376-.0294.9448.8102.6828s17.7949-.8037 37.6784-1.2038c24.8652-.5004 35.9169-.3475 35.3995.4898-.4138.6694.1014 1.2172 1.1448 1.2172 1.0435 0 1.5984-.4836 1.2331-1.0746-.3915-.6334 7.2873-1.105 18.7038-1.149 25.4716-.0977 26.6767-.669 27.83-13.1925.3288-3.5704-.238-4.8784-3.4289-7.9145l-3.8226-3.6373H880.6698c-66.0613 0-109.5644.4376-111.3597 1.1202-6.102 2.32-8.5617 10.041-5.5302 17.3596 2.418 5.8377 5.2664 6.381 32.8875 6.2734 18.7818-.0733 25.383.269 26.0706 1.3515.728 1.1461.9244 1.1427.9386-.0162.0229-1.8698 4.965-1.9122 6.8186-.0586.9904.9903 1.407 1.0163 1.407.0877 0-.8466 2.7308-1.3036 7.6214-1.2754 5.6975.0328 7.6213.4547 7.6213 1.671 0 .895.5277 1.6272 1.1726 1.6272.6448 0 1.1725-.7915 1.1725-1.7588zm126.7468-69.765c11.5964 0 12.92-.2303 15.8614-2.7604 2.537-2.1823 3.3609-4.1384 3.9334-9.3398.3983-3.6186.5428-6.398.3211-6.1762-.2217.2217-1.9217-1.1156-3.7778-2.9717l-3.3748-3.3747h-34.038c-23.8927 0-34.9545.4175-37.1125 1.4007-3.6131 1.6463-6.418 6.5219-6.4117 11.1456.006 4.4252 3.9954 10.6984 7.2875 11.459 4.1043.9484 22.5803 1.5095 34.2195 1.0393 5.7418-.232 16.1332-.4217 23.0919-.4217zm10.6777-55.1553c5.9667-1.6571 9.1404-6.0107 9.1404-12.5384 0-4.3434-.6197-5.813-3.6416-8.6358-4.2279-3.9494-1.389-3.7172-42.5466-3.4804-17.5162.1008-31.2806.6678-32.5374 1.3404-3.483 1.864-5.9429 6.56-5.774 11.0228.2586 6.8331.4232 7.6483 1.5438 7.6483.5912 0 .8512.6595.578 1.4656-1.0705 3.1574 7.8709 4.1509 38.4083 4.2675 17.6888.0675 32.3088-.39 34.8291-1.09z" paint-order="markers fill stroke" style="font-variation-settings:&quot;opsz&quot;32,&quot;wght&quot;900"/>
</svg>
